solid OpenSCAD_Model
  facet normal -0 0 1
    outer loop
      vertex -39.7 2.5 100
      vertex -19.4 -2.5 100
      vertex -19.4 2.5 100
    endloop
  endfacet
  facet normal 0 0 1
    outer loop
      vertex -19.4 -2.5 100
      vertex -39.7 2.5 100
      vertex -39.7 -2.5 100
    endloop
  endfacet
  facet normal 0 0 1
    outer loop
      vertex -19.4 -2.5 100
      vertex -12.0688 -2.36881 100
      vertex -12.4854 -1.86116 100
    endloop
  endfacet
  facet normal 0 0 1
    outer loop
      vertex -19.4 -2.5 100
      vertex -12.4854 -1.86116 100
      vertex -12.795 -1.28199 100
    endloop
  endfacet
  facet normal 0 0 1
    outer loop
      vertex -19.4 -2.5 100
      vertex -12.795 -1.28199 100
      vertex -12.9856 -0.653552 100
    endloop
  endfacet
  facet normal 0 0 1
    outer loop
      vertex -19.4 -2.5 100
      vertex -12.9856 -0.653552 100
      vertex -13.05 0 100
    endloop
  endfacet
  facet normal 0 0 1
    outer loop
      vertex -12.9856 0.653552 100
      vertex -19.4 2.5 100
      vertex -13.05 0 100
    endloop
  endfacet
  facet normal 0 0 1
    outer loop
      vertex -19.4 -2.5 100
      vertex -13.05 0 100
      vertex -19.4 2.5 100
    endloop
  endfacet
  facet normal 0 0 1
    outer loop
      vertex -12.0688 -2.36881 100
      vertex -19.4 -2.5 100
      vertex -12.2 -9.7 100
    endloop
  endfacet
  facet normal 0 0 1
    outer loop
      vertex -12.2 -9.7 100
      vertex -19.4 -2.5 100
      vertex -19.4 -9.7 100
    endloop
  endfacet
  facet normal 0 0 1
    outer loop
      vertex -12.2 9.7 100
      vertex -7.2 9.7 100
      vertex -7.2 30 100
    endloop
  endfacet
  facet normal 0 -0 1
    outer loop
      vertex -9.7 3.35 100
      vertex -7.2 9.7 100
      vertex -12.2 9.7 100
    endloop
  endfacet
  facet normal 0 0 1
    outer loop
      vertex -7.2 9.7 100
      vertex -7.83884 2.78542 100
      vertex -7.33119 2.36881 100
    endloop
  endfacet
  facet normal 0 0 1
    outer loop
      vertex -7.2 9.7 100
      vertex -8.41801 3.095 100
      vertex -7.83884 2.78542 100
    endloop
  endfacet
  facet normal 0 0 1
    outer loop
      vertex -7.2 9.7 100
      vertex -9.04645 3.28563 100
      vertex -8.41801 3.095 100
    endloop
  endfacet
  facet normal 0 0 1
    outer loop
      vertex -7.2 9.7 100
      vertex -9.7 3.35 100
      vertex -9.04645 3.28563 100
    endloop
  endfacet
  facet normal 0 0 1
    outer loop
      vertex -9.7 3.35 100
      vertex -12.2 9.7 100
      vertex -10.3536 3.28563 100
    endloop
  endfacet
  facet normal 0 0 1
    outer loop
      vertex -10.3536 3.28563 100
      vertex -12.2 9.7 100
      vertex -10.982 3.095 100
    endloop
  endfacet
  facet normal 0 0 1
    outer loop
      vertex -10.982 3.095 100
      vertex -12.2 9.7 100
      vertex -11.5612 2.78542 100
    endloop
  endfacet
  facet normal 0 0 1
    outer loop
      vertex -12.2 9.7 100
      vertex -7.2 30 100
      vertex -12.2 30 100
    endloop
  endfacet
  facet normal 0 0 1
    outer loop
      vertex -11.5612 2.78542 100
      vertex -12.2 9.7 100
      vertex -12.0688 2.36881 100
    endloop
  endfacet
  facet normal 0 0 1
    outer loop
      vertex -19.4 2.5 100
      vertex -12.2 9.7 100
      vertex -19.4 9.7 100
    endloop
  endfacet
  facet normal 0 0 1
    outer loop
      vertex -12.2 9.7 100
      vertex -19.4 2.5 100
      vertex -12.0688 2.36881 100
    endloop
  endfacet
  facet normal 0 0 1
    outer loop
      vertex -12.0688 2.36881 100
      vertex -19.4 2.5 100
      vertex -12.4854 1.86116 100
    endloop
  endfacet
  facet normal 0 0 1
    outer loop
      vertex -12.4854 1.86116 100
      vertex -19.4 2.5 100
      vertex -12.795 1.28199 100
    endloop
  endfacet
  facet normal 0 0 1
    outer loop
      vertex -12.795 1.28199 100
      vertex -19.4 2.5 100
      vertex -12.9856 0.653552 100
    endloop
  endfacet
  facet normal 0 0 1
    outer loop
      vertex -1.90735e-007 9.7 100
      vertex -6.35 0 100
      vertex -1.90735e-007 -9.7 100
    endloop
  endfacet
  facet normal 0 0 1
    outer loop
      vertex -1.90735e-007 9.7 100
      vertex -6.41437 0.653552 100
      vertex -6.35 0 100
    endloop
  endfacet
  facet normal 0 0 1
    outer loop
      vertex -1.90735e-007 9.7 100
      vertex -6.605 1.28199 100
      vertex -6.41437 0.653552 100
    endloop
  endfacet
  facet normal 0 0 1
    outer loop
      vertex -1.90735e-007 9.7 100
      vertex -6.91458 1.86116 100
      vertex -6.605 1.28199 100
    endloop
  endfacet
  facet normal 0 0 1
    outer loop
      vertex -7.33119 2.36881 100
      vertex -1.90735e-007 9.7 100
      vertex -7.2 9.7 100
    endloop
  endfacet
  facet normal 0 0 1
    outer loop
      vertex -1.90735e-007 9.7 100
      vertex -7.33119 2.36881 100
      vertex -6.91458 1.86116 100
    endloop
  endfacet
  facet normal -0 0 1
    outer loop
      vertex -6.41437 -0.653552 100
      vertex -1.90735e-007 -9.7 100
      vertex -6.35 0 100
    endloop
  endfacet
  facet normal -0 0 1
    outer loop
      vertex -6.605 -1.28199 100
      vertex -1.90735e-007 -9.7 100
      vertex -6.41437 -0.653552 100
    endloop
  endfacet
  facet normal -0 0 1
    outer loop
      vertex -6.91458 -1.86116 100
      vertex -1.90735e-007 -9.7 100
      vertex -6.605 -1.28199 100
    endloop
  endfacet
  facet normal -0 0 1
    outer loop
      vertex -7.33119 -2.36881 100
      vertex -1.90735e-007 -9.7 100
      vertex -6.91458 -1.86116 100
    endloop
  endfacet
  facet normal 0 0 1
    outer loop
      vertex -1.90735e-007 -9.7 100
      vertex -7.33119 -2.36881 100
      vertex -7.2 -9.7 100
    endloop
  endfacet
  facet normal -0 0 1
    outer loop
      vertex -7.83884 -2.78542 100
      vertex -7.2 -9.7 100
      vertex -7.33119 -2.36881 100
    endloop
  endfacet
  facet normal -0 0 1
    outer loop
      vertex -8.41801 -3.095 100
      vertex -7.2 -9.7 100
      vertex -7.83884 -2.78542 100
    endloop
  endfacet
  facet normal -0 0 1
    outer loop
      vertex -9.04645 -3.28563 100
      vertex -7.2 -9.7 100
      vertex -8.41801 -3.095 100
    endloop
  endfacet
  facet normal -0 0 1
    outer loop
      vertex -9.7 -3.35 100
      vertex -7.2 -9.7 100
      vertex -9.04645 -3.28563 100
    endloop
  endfacet
  facet normal 0 0 1
    outer loop
      vertex -7.2 -9.7 100
      vertex -9.7 -3.35 100
      vertex -12.2 -9.7 100
    endloop
  endfacet
  facet normal 0 0 1
    outer loop
      vertex -12.2 -9.7 100
      vertex -9.7 -3.35 100
      vertex -10.3536 -3.28563 100
    endloop
  endfacet
  facet normal 0 0 1
    outer loop
      vertex -12.2 -9.7 100
      vertex -10.3536 -3.28563 100
      vertex -10.982 -3.095 100
    endloop
  endfacet
  facet normal 0 0 1
    outer loop
      vertex -12.2 -9.7 100
      vertex -10.982 -3.095 100
      vertex -11.5612 -2.78542 100
    endloop
  endfacet
  facet normal 0 0 1
    outer loop
      vertex -12.2 -9.7 100
      vertex -11.5612 -2.78542 100
      vertex -12.0688 -2.36881 100
    endloop
  endfacet
  facet normal 0 0 1
    outer loop
      vertex -7.2 -9.7 100
      vertex -12.2 -9.7 100
      vertex -7.2 -30 100
    endloop
  endfacet
  facet normal 0 0 1
    outer loop
      vertex -7.2 -30 100
      vertex -12.2 -9.7 100
      vertex -12.2 -30 100
    endloop
  endfacet
  facet normal -0.956083 -0.290011 -0.0424106
    outer loop
      vertex -16.6705 -4.80573 0
      vertex -19.4 -9.7 95
      vertex -16.8981 -4.05535 0
    endloop
  endfacet
  facet normal 0 -0.999674 -0.025518
    outer loop
      vertex -19.4 -9.7 95
      vertex -12.2 -8.93129 64.8855
      vertex -12.2 -9.7 95
    endloop
  endfacet
  facet normal 0 -0.999674 -0.025518
    outer loop
      vertex -12.2 -8.93129 64.8855
      vertex -12.975 -7.275 0
      vertex -7.2 -8.93129 64.8855
    endloop
  endfacet
  facet normal 1.27832e-008 -0.999674 -0.025518
    outer loop
      vertex -12.975 -7.275 0
      vertex -12.2 -8.93129 64.8855
      vertex -19.4 -9.7 95
    endloop
  endfacet
  facet normal 0 -0.999674 -0.025518
    outer loop
      vertex -7.2 -8.93129 64.8855
      vertex -1.90735e-007 -9.7 95
      vertex -7.2 -9.7 95
    endloop
  endfacet
  facet normal -0 -0.999674 -0.025518
    outer loop
      vertex -1.90735e-007 -7.275 0
      vertex -7.2 -8.93129 64.8855
      vertex -12.975 -7.275 0
    endloop
  endfacet
  facet normal -9.1672e-009 -0.999674 -0.025518
    outer loop
      vertex -7.2 -8.93129 64.8855
      vertex -1.90735e-007 -7.275 0
      vertex -1.90735e-007 -9.7 95
    endloop
  endfacet
  facet normal 0 1 -0
    outer loop
      vertex -1.90735e-007 9.7 95
      vertex -7.2 9.7 100
      vertex -1.90735e-007 9.7 100
    endloop
  endfacet
  facet normal 0 1 0
    outer loop
      vertex -7.2 9.7 100
      vertex -1.90735e-007 9.7 95
      vertex -7.2 9.7 95
    endloop
  endfacet
  facet normal 0 1 -0
    outer loop
      vertex -12.2 9.7 95
      vertex -19.4 9.7 100
      vertex -12.2 9.7 100
    endloop
  endfacet
  facet normal 0 1 0
    outer loop
      vertex -19.4 9.7 100
      vertex -12.2 9.7 95
      vertex -19.4 9.7 95
    endloop
  endfacet
  facet normal 0 0.999674 -0.025518
    outer loop
      vertex -1.90735e-007 9.7 95
      vertex -7.2 8.93129 64.8855
      vertex -7.2 9.7 95
    endloop
  endfacet
  facet normal 0 0.999674 -0.025518
    outer loop
      vertex -7.275 7.275 0
      vertex -7.2 8.93129 64.8855
      vertex -1.90735e-007 7.275 0
    endloop
  endfacet
  facet normal -9.1672e-009 0.999674 -0.025518
    outer loop
      vertex -1.90735e-007 7.275 0
      vertex -7.2 8.93129 64.8855
      vertex -1.90735e-007 9.7 95
    endloop
  endfacet
  facet normal 0 0.999674 -0.025518
    outer loop
      vertex -12.2 8.93129 64.8855
      vertex -19.4 9.7 95
      vertex -12.2 9.7 95
    endloop
  endfacet
  facet normal 0 0.999674 -0.025518
    outer loop
      vertex -7.2 8.93129 64.8855
      vertex -7.275 7.275 0
      vertex -12.2 8.93129 64.8855
    endloop
  endfacet
  facet normal 1.96649e-008 0.999674 -0.025518
    outer loop
      vertex -12.2 8.93129 64.8855
      vertex -7.275 7.275 0
      vertex -19.4 9.7 95
    endloop
  endfacet
  facet normal -0.771911 -0.6335 -0.0532072
    outer loop
      vertex -15.8034 -6.10341 0
      vertex -19.4 -9.7 95
      vertex -16.3009 -5.49727 0
    endloop
  endfacet
  facet normal 1 0 0
    outer loop
      vertex -1.90735e-007 -9.7 95
      vertex -1.90735e-007 9.7 95
      vertex -1.90735e-007 9.7 100
    endloop
  endfacet
  facet normal 1 0 0
    outer loop
      vertex -1.90735e-007 9.7 95
      vertex -1.90735e-007 -9.7 95
      vertex -1.90735e-007 7.275 0
    endloop
  endfacet
  facet normal 1 0 0
    outer loop
      vertex -1.90735e-007 -9.7 95
      vertex -1.90735e-007 9.7 100
      vertex -1.90735e-007 -9.7 100
    endloop
  endfacet
  facet normal 1 0 0
    outer loop
      vertex -1.90735e-007 7.275 0
      vertex -1.90735e-007 -9.7 95
      vertex -1.90735e-007 -7.275 0
    endloop
  endfacet
  facet normal -1 0 0
    outer loop
      vertex -19.4 -9.7 95
      vertex -19.4 -2.5 100
      vertex -19.4 -2.5 95
    endloop
  endfacet
  facet normal -1 -0 0
    outer loop
      vertex -19.4 -2.5 100
      vertex -19.4 -9.7 95
      vertex -19.4 -9.7 100
    endloop
  endfacet
  facet normal -1 0 0
    outer loop
      vertex -19.4 2.5 95
      vertex -19.4 9.7 100
      vertex -19.4 9.7 95
    endloop
  endfacet
  facet normal -1 -0 0
    outer loop
      vertex -19.4 9.7 100
      vertex -19.4 2.5 95
      vertex -19.4 2.5 100
    endloop
  endfacet
  facet normal 0 0 -1
    outer loop
      vertex -1.90735e-007 -7.275 0
      vertex -7.275 7.275 0
      vertex -1.90735e-007 7.275 0
    endloop
  endfacet
  facet normal 0 0 -1
    outer loop
      vertex -12.975 -7.275 0
      vertex -7.275 7.275 0
      vertex -1.90735e-007 -7.275 0
    endloop
  endfacet
  facet normal 0 0 -1
    outer loop
      vertex -16.975 -3.275 0
      vertex -7.275 7.275 0
      vertex -12.975 -7.275 0
    endloop
  endfacet
  facet normal 0 0 -1
    outer loop
      vertex -16.975 -3.275 0
      vertex -12.975 -7.275 0
      vertex -13.7553 -7.19813 0
    endloop
  endfacet
  facet normal 0 0 -1
    outer loop
      vertex -16.975 3.27499 0
      vertex -7.275 7.275 0
      vertex -16.975 -3.275 0
    endloop
  endfacet
  facet normal 0 0 -1
    outer loop
      vertex -16.975 -3.275 0
      vertex -13.7553 -7.19813 0
      vertex -14.5057 -6.97051 0
    endloop
  endfacet
  facet normal 0 0 -1
    outer loop
      vertex -7.275 7.275 0
      vertex -16.975 3.27499 0
      vertex -12.975 7.27499 0
    endloop
  endfacet
  facet normal 0 0 -1
    outer loop
      vertex -16.975 -3.275 0
      vertex -14.5057 -6.97051 0
      vertex -15.1973 -6.60087 0
    endloop
  endfacet
  facet normal 0 0 -1
    outer loop
      vertex -12.975 7.27499 0
      vertex -16.975 3.27499 0
      vertex -13.7553 7.19811 0
    endloop
  endfacet
  facet normal 0 0 -1
    outer loop
      vertex -16.975 -3.275 0
      vertex -15.1973 -6.60087 0
      vertex -15.8034 -6.10341 0
    endloop
  endfacet
  facet normal 0 0 -1
    outer loop
      vertex -13.7553 7.19811 0
      vertex -16.975 3.27499 0
      vertex -14.5057 6.9705 0
    endloop
  endfacet
  facet normal 0 0 -1
    outer loop
      vertex -16.975 -3.275 0
      vertex -15.8034 -6.10341 0
      vertex -16.3009 -5.49727 0
    endloop
  endfacet
  facet normal 0 0 -1
    outer loop
      vertex -14.5057 6.9705 0
      vertex -16.975 3.27499 0
      vertex -15.1973 6.60085 0
    endloop
  endfacet
  facet normal 0 0 -1
    outer loop
      vertex -16.975 -3.275 0
      vertex -16.3009 -5.49727 0
      vertex -16.6705 -4.80573 0
    endloop
  endfacet
  facet normal 0 0 -1
    outer loop
      vertex -15.1973 6.60085 0
      vertex -16.975 3.27499 0
      vertex -15.8034 6.1034 0
    endloop
  endfacet
  facet normal 0 0 -1
    outer loop
      vertex -16.975 -3.275 0
      vertex -16.6705 -4.80573 0
      vertex -16.8981 -4.05535 0
    endloop
  endfacet
  facet normal 0 0 -1
    outer loop
      vertex -15.8034 6.1034 0
      vertex -16.975 3.27499 0
      vertex -16.3009 5.49726 0
    endloop
  endfacet
  facet normal 0 0 -1
    outer loop
      vertex -16.3009 5.49726 0
      vertex -16.975 3.27499 0
      vertex -16.6705 4.80572 0
    endloop
  endfacet
  facet normal 0 0 -1
    outer loop
      vertex -16.6705 4.80572 0
      vertex -16.975 3.27499 0
      vertex -16.8981 4.05534 0
    endloop
  endfacet
  facet normal 0 -1 0
    outer loop
      vertex -19.4 -9.7 95
      vertex -12.2 -9.7 100
      vertex -19.4 -9.7 100
    endloop
  endfacet
  facet normal 0 -1 -0
    outer loop
      vertex -12.2 -9.7 100
      vertex -19.4 -9.7 95
      vertex -12.2 -9.7 95
    endloop
  endfacet
  facet normal 0 -1 0
    outer loop
      vertex -7.2 -9.7 95
      vertex -1.90735e-007 -9.7 100
      vertex -7.2 -9.7 100
    endloop
  endfacet
  facet normal 0 -1 -0
    outer loop
      vertex -1.90735e-007 -9.7 100
      vertex -7.2 -9.7 95
      vertex -1.90735e-007 -9.7 95
    endloop
  endfacet
  facet normal -0.880834 -0.470824 -0.0495638
    outer loop
      vertex -16.3009 -5.49727 0
      vertex -19.4 -9.7 95
      vertex -16.6705 -4.80573 0
    endloop
  endfacet
  facet normal -0.999674 0 -0.025518
    outer loop
      vertex -16.975 3.27499 0
      vertex -18.6313 -2.5 64.8855
      vertex -18.6313 2.5 64.8855
    endloop
  endfacet
  facet normal -0.999674 0 -0.025518
    outer loop
      vertex -18.6313 -2.5 64.8855
      vertex -16.975 3.27499 0
      vertex -16.975 -3.275 0
    endloop
  endfacet
  facet normal -0.999674 -7.13139e-008 -0.025518
    outer loop
      vertex -18.6313 2.5 64.8855
      vertex -19.4 9.7 95
      vertex -16.975 3.27499 0
    endloop
  endfacet
  facet normal -0.999674 -0 -0.025518
    outer loop
      vertex -19.4 9.7 95
      vertex -18.6313 2.5 64.8855
      vertex -19.4 2.5 95
    endloop
  endfacet
  facet normal -0.999674 7.13139e-008 -0.025518
    outer loop
      vertex -19.4 -9.7 95
      vertex -18.6313 -2.5 64.8855
      vertex -16.975 -3.275 0
    endloop
  endfacet
  facet normal -0.999674 0 -0.025518
    outer loop
      vertex -18.6313 -2.5 64.8855
      vertex -19.4 -9.7 95
      vertex -19.4 -2.5 95
    endloop
  endfacet
  facet normal -0.994673 -0.0979871 -0.0320173
    outer loop
      vertex -16.8981 -4.05535 0
      vertex -19.4 -9.7 95
      vertex -16.975 -3.275 0
    endloop
  endfacet
  facet normal -0.771911 0.6335 -0.0532072
    outer loop
      vertex -16.3009 5.49726 0
      vertex -19.4 9.7 95
      vertex -15.8034 6.1034 0
    endloop
  endfacet
  facet normal -0.470824 -0.880834 -0.0495638
    outer loop
      vertex -14.5057 -6.97051 0
      vertex -19.4 -9.7 95
      vertex -15.1973 -6.60087 0
    endloop
  endfacet
  facet normal -0.0979871 -0.994673 -0.0320174
    outer loop
      vertex -12.975 -7.275 0
      vertex -19.4 -9.7 95
      vertex -13.7553 -7.19813 0
    endloop
  endfacet
  facet normal -0.290011 0.956083 -0.0424108
    outer loop
      vertex -14.5057 6.9705 0
      vertex -19.4 9.7 95
      vertex -13.7553 7.19811 0
    endloop
  endfacet
  facet normal -0.994673 0.0979871 -0.0320174
    outer loop
      vertex -16.975 3.27499 0
      vertex -19.4 9.7 95
      vertex -16.8981 4.05534 0
    endloop
  endfacet
  facet normal -0.633499 -0.771912 -0.0532072
    outer loop
      vertex -15.1973 -6.60087 0
      vertex -19.4 -9.7 95
      vertex -15.8034 -6.10341 0
    endloop
  endfacet
  facet normal -0.290011 -0.956083 -0.0424107
    outer loop
      vertex -13.7553 -7.19813 0
      vertex -19.4 -9.7 95
      vertex -14.5057 -6.97051 0
    endloop
  endfacet
  facet normal -0.0979871 0.994673 -0.0320175
    outer loop
      vertex -13.7553 7.19811 0
      vertex -19.4 9.7 95
      vertex -12.975 7.27499 0
    endloop
  endfacet
  facet normal -0.470824 0.880834 -0.049564
    outer loop
      vertex -15.1973 6.60085 0
      vertex -19.4 9.7 95
      vertex -14.5057 6.9705 0
    endloop
  endfacet
  facet normal -0.956083 0.290011 -0.0424107
    outer loop
      vertex -16.8981 4.05534 0
      vertex -19.4 9.7 95
      vertex -16.6705 4.80572 0
    endloop
  endfacet
  facet normal -2.17434e-006 0.999674 -0.0255183
    outer loop
      vertex -12.975 7.27499 0
      vertex -19.4 9.7 95
      vertex -7.275 7.275 0
    endloop
  endfacet
  facet normal -0.633499 0.771912 -0.0532073
    outer loop
      vertex -15.8034 6.1034 0
      vertex -19.4 9.7 95
      vertex -15.1973 6.60085 0
    endloop
  endfacet
  facet normal -0.880834 0.470824 -0.0495639
    outer loop
      vertex -16.6705 4.80572 0
      vertex -19.4 9.7 95
      vertex -16.3009 5.49726 0
    endloop
  endfacet
  facet normal 1 0 0
    outer loop
      vertex -7.2 9.7 95
      vertex -7.2 30 100
      vertex -7.2 9.7 100
    endloop
  endfacet
  facet normal 1 0 0
    outer loop
      vertex -7.2 30 100
      vertex -7.2 9.7 95
      vertex -7.2 8.93129 64.8855
    endloop
  endfacet
  facet normal 0 0.857493 -0.514496
    outer loop
      vertex -7.2 8.93129 64.8855
      vertex -12.2 30 100
      vertex -7.2 30 100
    endloop
  endfacet
  facet normal 0 0.857493 -0.514496
    outer loop
      vertex -12.2 30 100
      vertex -7.2 8.93129 64.8855
      vertex -12.2 8.93129 64.8855
    endloop
  endfacet
  facet normal -1 -7.84941e-009 3.18686e-008
    outer loop
      vertex -12.2 30 100
      vertex -12.2 8.93129 64.8855
      vertex -12.2 9.7 95
    endloop
  endfacet
  facet normal -1 -0 0
    outer loop
      vertex -12.2 30 100
      vertex -12.2 9.7 95
      vertex -12.2 9.7 100
    endloop
  endfacet
  facet normal 0 1 -0
    outer loop
      vertex -19.4 2.5 95
      vertex -39.7 2.5 100
      vertex -19.4 2.5 100
    endloop
  endfacet
  facet normal 0 1 0
    outer loop
      vertex -39.7 2.5 100
      vertex -19.4 2.5 95
      vertex -18.6313 2.5 64.8855
    endloop
  endfacet
  facet normal -0.857493 0 -0.514496
    outer loop
      vertex -18.6313 2.5 64.8855
      vertex -39.7 -2.5 100
      vertex -39.7 2.5 100
    endloop
  endfacet
  facet normal -0.857493 0 -0.514496
    outer loop
      vertex -39.7 -2.5 100
      vertex -18.6313 2.5 64.8855
      vertex -18.6313 -2.5 64.8855
    endloop
  endfacet
  facet normal 0 -1 0
    outer loop
      vertex -39.7 -2.5 100
      vertex -19.4 -2.5 95
      vertex -19.4 -2.5 100
    endloop
  endfacet
  facet normal 5.88706e-009 -1 2.39015e-008
    outer loop
      vertex -19.4 -2.5 95
      vertex -39.7 -2.5 100
      vertex -18.6313 -2.5 64.8855
    endloop
  endfacet
  facet normal -1 0 0
    outer loop
      vertex -12.2 -9.7 95
      vertex -12.2 -30 100
      vertex -12.2 -9.7 100
    endloop
  endfacet
  facet normal -1 0 0
    outer loop
      vertex -12.2 -30 100
      vertex -12.2 -9.7 95
      vertex -12.2 -8.93129 64.8855
    endloop
  endfacet
  facet normal 0 -0.857493 -0.514496
    outer loop
      vertex -12.2 -8.93129 64.8855
      vertex -7.2 -30 100
      vertex -12.2 -30 100
    endloop
  endfacet
  facet normal 0 -0.857493 -0.514496
    outer loop
      vertex -7.2 -30 100
      vertex -12.2 -8.93129 64.8855
      vertex -7.2 -8.93129 64.8855
    endloop
  endfacet
  facet normal 1 0 0
    outer loop
      vertex -7.2 -9.7 100
      vertex -7.2 -30 100
      vertex -7.2 -9.7 95
    endloop
  endfacet
  facet normal 1 3.92471e-009 1.59343e-008
    outer loop
      vertex -7.2 -8.93129 64.8855
      vertex -7.2 -9.7 95
      vertex -7.2 -30 100
    endloop
  endfacet
  facet normal -0.995185 -0.0980171 0
    outer loop
      vertex -6.35 0 87
      vertex -6.41437 0.653552 100
      vertex -6.41437 0.653552 87
    endloop
  endfacet
  facet normal -0.995185 -0.0980171 0
    outer loop
      vertex -6.41437 0.653552 100
      vertex -6.35 0 87
      vertex -6.35 0 100
    endloop
  endfacet
  facet normal 0.995185 -0.0980171 0
    outer loop
      vertex -13.05 0 100
      vertex -12.9856 0.653552 87
      vertex -12.9856 0.653552 100
    endloop
  endfacet
  facet normal 0.995185 -0.0980171 0
    outer loop
      vertex -12.9856 0.653552 87
      vertex -13.05 0 100
      vertex -13.05 0 87
    endloop
  endfacet
  facet normal 0.0980171 -0.995185 0
    outer loop
      vertex -10.3536 3.28563 87
      vertex -9.7 3.35 100
      vertex -10.3536 3.28563 100
    endloop
  endfacet
  facet normal 0.0980171 -0.995185 0
    outer loop
      vertex -9.7 3.35 100
      vertex -10.3536 3.28563 87
      vertex -9.7 3.35 87
    endloop
  endfacet
  facet normal -0.0980171 0.995185 0
    outer loop
      vertex -9.04645 -3.28563 87
      vertex -9.7 -3.35 100
      vertex -9.04645 -3.28563 100
    endloop
  endfacet
  facet normal -0.0980171 0.995185 0
    outer loop
      vertex -9.7 -3.35 100
      vertex -9.04645 -3.28563 87
      vertex -9.7 -3.35 87
    endloop
  endfacet
  facet normal -0.634394 -0.77301 0
    outer loop
      vertex -7.83884 2.78542 87
      vertex -7.33119 2.36881 100
      vertex -7.83884 2.78542 100
    endloop
  endfacet
  facet normal -0.634394 -0.77301 -0
    outer loop
      vertex -7.33119 2.36881 100
      vertex -7.83884 2.78542 87
      vertex -7.33119 2.36881 87
    endloop
  endfacet
  facet normal 0.77301 -0.634394 0
    outer loop
      vertex -12.4854 1.86116 100
      vertex -12.0688 2.36881 87
      vertex -12.0688 2.36881 100
    endloop
  endfacet
  facet normal 0.77301 -0.634394 0
    outer loop
      vertex -12.0688 2.36881 87
      vertex -12.4854 1.86116 100
      vertex -12.4854 1.86116 87
    endloop
  endfacet
  facet normal 0.471396 -0.881921 0
    outer loop
      vertex -11.5612 2.78542 87
      vertex -10.982 3.095 100
      vertex -11.5612 2.78542 100
    endloop
  endfacet
  facet normal 0.471396 -0.881921 0
    outer loop
      vertex -10.982 3.095 100
      vertex -11.5612 2.78542 87
      vertex -10.982 3.095 87
    endloop
  endfacet
  facet normal -0.881921 -0.471396 0
    outer loop
      vertex -6.605 1.28199 87
      vertex -6.91458 1.86116 100
      vertex -6.91458 1.86116 87
    endloop
  endfacet
  facet normal -0.881921 -0.471396 0
    outer loop
      vertex -6.91458 1.86116 100
      vertex -6.605 1.28199 87
      vertex -6.605 1.28199 100
    endloop
  endfacet
  facet normal -0.95694 -0.290285 0
    outer loop
      vertex -6.41437 0.653552 87
      vertex -6.605 1.28199 100
      vertex -6.605 1.28199 87
    endloop
  endfacet
  facet normal -0.95694 -0.290285 0
    outer loop
      vertex -6.605 1.28199 100
      vertex -6.41437 0.653552 87
      vertex -6.41437 0.653552 100
    endloop
  endfacet
  facet normal -0.77301 -0.634394 0
    outer loop
      vertex -6.91458 1.86116 87
      vertex -7.33119 2.36881 100
      vertex -7.33119 2.36881 87
    endloop
  endfacet
  facet normal -0.77301 -0.634394 0
    outer loop
      vertex -7.33119 2.36881 100
      vertex -6.91458 1.86116 87
      vertex -6.91458 1.86116 100
    endloop
  endfacet
  facet normal -0.290285 -0.95694 0
    outer loop
      vertex -9.04645 3.28563 87
      vertex -8.41801 3.095 100
      vertex -9.04645 3.28563 100
    endloop
  endfacet
  facet normal -0.290285 -0.95694 -0
    outer loop
      vertex -8.41801 3.095 100
      vertex -9.04645 3.28563 87
      vertex -8.41801 3.095 87
    endloop
  endfacet
  facet normal -0.0980171 -0.995185 0
    outer loop
      vertex -9.7 3.35 87
      vertex -9.04645 3.28563 100
      vertex -9.7 3.35 100
    endloop
  endfacet
  facet normal -0.0980171 -0.995185 -0
    outer loop
      vertex -9.04645 3.28563 100
      vertex -9.7 3.35 87
      vertex -9.04645 3.28563 87
    endloop
  endfacet
  facet normal -0.471396 -0.881921 0
    outer loop
      vertex -8.41801 3.095 87
      vertex -7.83884 2.78542 100
      vertex -8.41801 3.095 100
    endloop
  endfacet
  facet normal -0.471396 -0.881921 -0
    outer loop
      vertex -7.83884 2.78542 100
      vertex -8.41801 3.095 87
      vertex -7.83884 2.78542 87
    endloop
  endfacet
  facet normal 0.881921 -0.471396 0
    outer loop
      vertex -12.795 1.28199 100
      vertex -12.4854 1.86116 87
      vertex -12.4854 1.86116 100
    endloop
  endfacet
  facet normal 0.881921 -0.471396 0
    outer loop
      vertex -12.4854 1.86116 87
      vertex -12.795 1.28199 100
      vertex -12.795 1.28199 87
    endloop
  endfacet
  facet normal 0.95694 -0.290285 0
    outer loop
      vertex -12.9856 0.653552 100
      vertex -12.795 1.28199 87
      vertex -12.795 1.28199 100
    endloop
  endfacet
  facet normal 0.95694 -0.290285 0
    outer loop
      vertex -12.795 1.28199 87
      vertex -12.9856 0.653552 100
      vertex -12.9856 0.653552 87
    endloop
  endfacet
  facet normal 0.634394 -0.77301 0
    outer loop
      vertex -12.0688 2.36881 87
      vertex -11.5612 2.78542 100
      vertex -12.0688 2.36881 100
    endloop
  endfacet
  facet normal 0.634394 -0.77301 0
    outer loop
      vertex -11.5612 2.78542 100
      vertex -12.0688 2.36881 87
      vertex -11.5612 2.78542 87
    endloop
  endfacet
  facet normal 0.290285 -0.95694 0
    outer loop
      vertex -10.982 3.095 87
      vertex -10.3536 3.28563 100
      vertex -10.982 3.095 100
    endloop
  endfacet
  facet normal 0.290285 -0.95694 0
    outer loop
      vertex -10.3536 3.28563 100
      vertex -10.982 3.095 87
      vertex -10.3536 3.28563 87
    endloop
  endfacet
  facet normal -0.995185 0.0980171 0
    outer loop
      vertex -6.41437 -0.653552 87
      vertex -6.35 0 100
      vertex -6.35 0 87
    endloop
  endfacet
  facet normal -0.995185 0.0980171 0
    outer loop
      vertex -6.35 0 100
      vertex -6.41437 -0.653552 87
      vertex -6.41437 -0.653552 100
    endloop
  endfacet
  facet normal 0.77301 0.634394 0
    outer loop
      vertex -12.0688 -2.36881 100
      vertex -12.4854 -1.86116 87
      vertex -12.4854 -1.86116 100
    endloop
  endfacet
  facet normal 0.77301 0.634394 0
    outer loop
      vertex -12.4854 -1.86116 87
      vertex -12.0688 -2.36881 100
      vertex -12.0688 -2.36881 87
    endloop
  endfacet
  facet normal 0 0 1
    outer loop
      vertex -6.41437 0.653552 87
      vertex -6.41437 -0.653552 87
      vertex -6.35 0 87
    endloop
  endfacet
  facet normal 0 0 1
    outer loop
      vertex -6.605 1.28199 87
      vertex -6.41437 -0.653552 87
      vertex -6.41437 0.653552 87
    endloop
  endfacet
  facet normal 0 0 1
    outer loop
      vertex -6.605 1.28199 87
      vertex -6.605 -1.28199 87
      vertex -6.41437 -0.653552 87
    endloop
  endfacet
  facet normal 0 0 1
    outer loop
      vertex -6.91458 1.86116 87
      vertex -6.605 -1.28199 87
      vertex -6.605 1.28199 87
    endloop
  endfacet
  facet normal 0 0 1
    outer loop
      vertex -6.91458 1.86116 87
      vertex -6.91458 -1.86116 87
      vertex -6.605 -1.28199 87
    endloop
  endfacet
  facet normal 0 0 1
    outer loop
      vertex -7.33119 2.36881 87
      vertex -6.91458 -1.86116 87
      vertex -6.91458 1.86116 87
    endloop
  endfacet
  facet normal 0 0 1
    outer loop
      vertex -7.33119 2.36881 87
      vertex -7.33119 -2.36881 87
      vertex -6.91458 -1.86116 87
    endloop
  endfacet
  facet normal 0 0 1
    outer loop
      vertex -7.83884 2.78542 87
      vertex -7.33119 -2.36881 87
      vertex -7.33119 2.36881 87
    endloop
  endfacet
  facet normal 0 0 1
    outer loop
      vertex -7.83884 2.78542 87
      vertex -7.83884 -2.78542 87
      vertex -7.33119 -2.36881 87
    endloop
  endfacet
  facet normal 0 0 1
    outer loop
      vertex -8.41801 3.095 87
      vertex -7.83884 -2.78542 87
      vertex -7.83884 2.78542 87
    endloop
  endfacet
  facet normal 0 0 1
    outer loop
      vertex -8.41801 3.095 87
      vertex -8.41801 -3.095 87
      vertex -7.83884 -2.78542 87
    endloop
  endfacet
  facet normal 0 0 1
    outer loop
      vertex -9.04645 3.28563 87
      vertex -8.41801 -3.095 87
      vertex -8.41801 3.095 87
    endloop
  endfacet
  facet normal 0 0 1
    outer loop
      vertex -9.04645 3.28563 87
      vertex -9.04645 -3.28563 87
      vertex -8.41801 -3.095 87
    endloop
  endfacet
  facet normal 0 0 1
    outer loop
      vertex -9.7 3.35 87
      vertex -9.04645 -3.28563 87
      vertex -9.04645 3.28563 87
    endloop
  endfacet
  facet normal 0 0 1
    outer loop
      vertex -9.7 3.35 87
      vertex -9.7 -3.35 87
      vertex -9.04645 -3.28563 87
    endloop
  endfacet
  facet normal -0 0 1
    outer loop
      vertex -10.3536 3.28563 87
      vertex -9.7 -3.35 87
      vertex -9.7 3.35 87
    endloop
  endfacet
  facet normal 0 0 1
    outer loop
      vertex -10.3536 3.28563 87
      vertex -10.3536 -3.28563 87
      vertex -9.7 -3.35 87
    endloop
  endfacet
  facet normal -0 0 1
    outer loop
      vertex -10.982 3.095 87
      vertex -10.3536 -3.28563 87
      vertex -10.3536 3.28563 87
    endloop
  endfacet
  facet normal 0 0 1
    outer loop
      vertex -10.982 3.095 87
      vertex -10.982 -3.095 87
      vertex -10.3536 -3.28563 87
    endloop
  endfacet
  facet normal -0 0 1
    outer loop
      vertex -11.5612 2.78542 87
      vertex -10.982 -3.095 87
      vertex -10.982 3.095 87
    endloop
  endfacet
  facet normal 0 0 1
    outer loop
      vertex -11.5612 2.78542 87
      vertex -11.5612 -2.78542 87
      vertex -10.982 -3.095 87
    endloop
  endfacet
  facet normal -0 0 1
    outer loop
      vertex -12.0688 2.36881 87
      vertex -11.5612 -2.78542 87
      vertex -11.5612 2.78542 87
    endloop
  endfacet
  facet normal 0 0 1
    outer loop
      vertex -12.0688 2.36881 87
      vertex -12.0688 -2.36881 87
      vertex -11.5612 -2.78542 87
    endloop
  endfacet
  facet normal -0 0 1
    outer loop
      vertex -12.4854 1.86116 87
      vertex -12.0688 -2.36881 87
      vertex -12.0688 2.36881 87
    endloop
  endfacet
  facet normal 0 0 1
    outer loop
      vertex -12.4854 1.86116 87
      vertex -12.4854 -1.86116 87
      vertex -12.0688 -2.36881 87
    endloop
  endfacet
  facet normal -0 0 1
    outer loop
      vertex -12.795 1.28199 87
      vertex -12.4854 -1.86116 87
      vertex -12.4854 1.86116 87
    endloop
  endfacet
  facet normal 0 0 1
    outer loop
      vertex -12.795 1.28199 87
      vertex -12.795 -1.28199 87
      vertex -12.4854 -1.86116 87
    endloop
  endfacet
  facet normal -0 0 1
    outer loop
      vertex -12.9856 0.653552 87
      vertex -12.795 -1.28199 87
      vertex -12.795 1.28199 87
    endloop
  endfacet
  facet normal 0 0 1
    outer loop
      vertex -12.9856 0.653552 87
      vertex -12.9856 -0.653552 87
      vertex -12.795 -1.28199 87
    endloop
  endfacet
  facet normal 0 -0 1
    outer loop
      vertex -12.9856 -0.653552 87
      vertex -12.9856 0.653552 87
      vertex -13.05 0 87
    endloop
  endfacet
  facet normal -0.881921 0.471396 0
    outer loop
      vertex -6.91458 -1.86116 87
      vertex -6.605 -1.28199 100
      vertex -6.605 -1.28199 87
    endloop
  endfacet
  facet normal -0.881921 0.471396 0
    outer loop
      vertex -6.605 -1.28199 100
      vertex -6.91458 -1.86116 87
      vertex -6.91458 -1.86116 100
    endloop
  endfacet
  facet normal -0.634394 0.77301 0
    outer loop
      vertex -7.33119 -2.36881 87
      vertex -7.83884 -2.78542 100
      vertex -7.33119 -2.36881 100
    endloop
  endfacet
  facet normal -0.634394 0.77301 0
    outer loop
      vertex -7.83884 -2.78542 100
      vertex -7.33119 -2.36881 87
      vertex -7.83884 -2.78542 87
    endloop
  endfacet
  facet normal -0.95694 0.290285 0
    outer loop
      vertex -6.605 -1.28199 87
      vertex -6.41437 -0.653552 100
      vertex -6.41437 -0.653552 87
    endloop
  endfacet
  facet normal -0.95694 0.290285 0
    outer loop
      vertex -6.41437 -0.653552 100
      vertex -6.605 -1.28199 87
      vertex -6.605 -1.28199 100
    endloop
  endfacet
  facet normal 0.0980171 0.995185 -0
    outer loop
      vertex -9.7 -3.35 87
      vertex -10.3536 -3.28563 100
      vertex -9.7 -3.35 100
    endloop
  endfacet
  facet normal 0.0980171 0.995185 0
    outer loop
      vertex -10.3536 -3.28563 100
      vertex -9.7 -3.35 87
      vertex -10.3536 -3.28563 87
    endloop
  endfacet
  facet normal 0.471396 0.881921 -0
    outer loop
      vertex -10.982 -3.095 87
      vertex -11.5612 -2.78542 100
      vertex -10.982 -3.095 100
    endloop
  endfacet
  facet normal 0.471396 0.881921 0
    outer loop
      vertex -11.5612 -2.78542 100
      vertex -10.982 -3.095 87
      vertex -11.5612 -2.78542 87
    endloop
  endfacet
  facet normal 0.290285 0.95694 -0
    outer loop
      vertex -10.3536 -3.28563 87
      vertex -10.982 -3.095 100
      vertex -10.3536 -3.28563 100
    endloop
  endfacet
  facet normal 0.290285 0.95694 0
    outer loop
      vertex -10.982 -3.095 100
      vertex -10.3536 -3.28563 87
      vertex -10.982 -3.095 87
    endloop
  endfacet
  facet normal 0.634394 0.77301 -0
    outer loop
      vertex -11.5612 -2.78542 87
      vertex -12.0688 -2.36881 100
      vertex -11.5612 -2.78542 100
    endloop
  endfacet
  facet normal 0.634394 0.77301 0
    outer loop
      vertex -12.0688 -2.36881 100
      vertex -11.5612 -2.78542 87
      vertex -12.0688 -2.36881 87
    endloop
  endfacet
  facet normal 0.95694 0.290285 0
    outer loop
      vertex -12.795 -1.28199 100
      vertex -12.9856 -0.653552 87
      vertex -12.9856 -0.653552 100
    endloop
  endfacet
  facet normal 0.95694 0.290285 0
    outer loop
      vertex -12.9856 -0.653552 87
      vertex -12.795 -1.28199 100
      vertex -12.795 -1.28199 87
    endloop
  endfacet
  facet normal 0.995185 0.0980171 0
    outer loop
      vertex -12.9856 -0.653552 100
      vertex -13.05 0 87
      vertex -13.05 0 100
    endloop
  endfacet
  facet normal 0.995185 0.0980171 0
    outer loop
      vertex -13.05 0 87
      vertex -12.9856 -0.653552 100
      vertex -12.9856 -0.653552 87
    endloop
  endfacet
  facet normal -0.471396 0.881921 0
    outer loop
      vertex -7.83884 -2.78542 87
      vertex -8.41801 -3.095 100
      vertex -7.83884 -2.78542 100
    endloop
  endfacet
  facet normal -0.471396 0.881921 0
    outer loop
      vertex -8.41801 -3.095 100
      vertex -7.83884 -2.78542 87
      vertex -8.41801 -3.095 87
    endloop
  endfacet
  facet normal -0.290285 0.95694 0
    outer loop
      vertex -8.41801 -3.095 87
      vertex -9.04645 -3.28563 100
      vertex -8.41801 -3.095 100
    endloop
  endfacet
  facet normal -0.290285 0.95694 0
    outer loop
      vertex -9.04645 -3.28563 100
      vertex -8.41801 -3.095 87
      vertex -9.04645 -3.28563 87
    endloop
  endfacet
  facet normal -0.77301 0.634394 0
    outer loop
      vertex -7.33119 -2.36881 87
      vertex -6.91458 -1.86116 100
      vertex -6.91458 -1.86116 87
    endloop
  endfacet
  facet normal -0.77301 0.634394 0
    outer loop
      vertex -6.91458 -1.86116 100
      vertex -7.33119 -2.36881 87
      vertex -7.33119 -2.36881 100
    endloop
  endfacet
  facet normal 0.881921 0.471396 0
    outer loop
      vertex -12.4854 -1.86116 100
      vertex -12.795 -1.28199 87
      vertex -12.795 -1.28199 100
    endloop
  endfacet
  facet normal 0.881921 0.471396 0
    outer loop
      vertex -12.795 -1.28199 87
      vertex -12.4854 -1.86116 100
      vertex -12.4854 -1.86116 87
    endloop
  endfacet
  facet normal 0 0 1
    outer loop
      vertex 1.90735e-007 -9.7 100
      vertex 7.33119 -2.36881 100
      vertex 6.91458 -1.86116 100
    endloop
  endfacet
  facet normal 0 0 1
    outer loop
      vertex 1.90735e-007 -9.7 100
      vertex 6.91458 -1.86116 100
      vertex 6.605 -1.28199 100
    endloop
  endfacet
  facet normal 0 0 1
    outer loop
      vertex 1.90735e-007 -9.7 100
      vertex 6.605 -1.28199 100
      vertex 6.41437 -0.653552 100
    endloop
  endfacet
  facet normal 0 0 1
    outer loop
      vertex 1.90735e-007 -9.7 100
      vertex 6.41437 -0.653552 100
      vertex 6.35 -7.77625e-016 100
    endloop
  endfacet
  facet normal 0 0 1
    outer loop
      vertex 1.90735e-007 -9.7 100
      vertex 6.35 -7.77625e-016 100
      vertex 1.90735e-007 9.7 100
    endloop
  endfacet
  facet normal 0 0 1
    outer loop
      vertex 7.33119 -2.36881 100
      vertex 1.90735e-007 -9.7 100
      vertex 7.2 -9.7 100
    endloop
  endfacet
  facet normal 0 0 1
    outer loop
      vertex 7.2 9.7 100
      vertex 12.2 9.7 100
      vertex 12.2 30 100
    endloop
  endfacet
  facet normal 0 -0 1
    outer loop
      vertex 9.7 3.35 100
      vertex 12.2 9.7 100
      vertex 7.2 9.7 100
    endloop
  endfacet
  facet normal 0 0 1
    outer loop
      vertex 12.2 9.7 100
      vertex 11.5612 2.78542 100
      vertex 12.0688 2.36881 100
    endloop
  endfacet
  facet normal 0 0 1
    outer loop
      vertex 12.2 9.7 100
      vertex 10.982 3.095 100
      vertex 11.5612 2.78542 100
    endloop
  endfacet
  facet normal 0 0 1
    outer loop
      vertex 12.2 9.7 100
      vertex 10.3536 3.28563 100
      vertex 10.982 3.095 100
    endloop
  endfacet
  facet normal 0 0 1
    outer loop
      vertex 12.2 9.7 100
      vertex 9.7 3.35 100
      vertex 10.3536 3.28563 100
    endloop
  endfacet
  facet normal 0 0 1
    outer loop
      vertex 9.7 3.35 100
      vertex 7.2 9.7 100
      vertex 9.04645 3.28563 100
    endloop
  endfacet
  facet normal 0 0 1
    outer loop
      vertex 9.04645 3.28563 100
      vertex 7.2 9.7 100
      vertex 8.41801 3.095 100
    endloop
  endfacet
  facet normal 0 0 1
    outer loop
      vertex 8.41801 3.095 100
      vertex 7.2 9.7 100
      vertex 7.83884 2.78542 100
    endloop
  endfacet
  facet normal 0 0 1
    outer loop
      vertex 7.2 9.7 100
      vertex 12.2 30 100
      vertex 7.2 30 100
    endloop
  endfacet
  facet normal 0 0 1
    outer loop
      vertex 7.83884 2.78542 100
      vertex 7.2 9.7 100
      vertex 7.33119 2.36881 100
    endloop
  endfacet
  facet normal -0 0 1
    outer loop
      vertex 1.90735e-007 9.7 100
      vertex 7.33119 2.36881 100
      vertex 7.2 9.7 100
    endloop
  endfacet
  facet normal 0 0 1
    outer loop
      vertex 7.33119 2.36881 100
      vertex 1.90735e-007 9.7 100
      vertex 6.91458 1.86116 100
    endloop
  endfacet
  facet normal 0 0 1
    outer loop
      vertex 6.91458 1.86116 100
      vertex 1.90735e-007 9.7 100
      vertex 6.605 1.28199 100
    endloop
  endfacet
  facet normal 0 0 1
    outer loop
      vertex 6.605 1.28199 100
      vertex 1.90735e-007 9.7 100
      vertex 6.41437 0.653552 100
    endloop
  endfacet
  facet normal 0 0 1
    outer loop
      vertex 6.41437 0.653552 100
      vertex 1.90735e-007 9.7 100
      vertex 6.35 -7.77625e-016 100
    endloop
  endfacet
  facet normal -0 0 1
    outer loop
      vertex 12.2 9.7 100
      vertex 19.4 2.5 100
      vertex 19.4 9.7 100
    endloop
  endfacet
  facet normal 0 -0 1
    outer loop
      vertex 12.9856 0.653552 100
      vertex 19.4 2.5 100
      vertex 12.795 1.28199 100
    endloop
  endfacet
  facet normal -0 0 1
    outer loop
      vertex 12.9856 -0.653552 100
      vertex 19.4 -2.5 100
      vertex 13.05 -1.59811e-015 100
    endloop
  endfacet
  facet normal 0 0 1
    outer loop
      vertex 19.4 2.5 100
      vertex 13.05 -1.59811e-015 100
      vertex 19.4 -2.5 100
    endloop
  endfacet
  facet normal 0 -0 1
    outer loop
      vertex 13.05 -1.59811e-015 100
      vertex 19.4 2.5 100
      vertex 12.9856 0.653552 100
    endloop
  endfacet
  facet normal 0 0 1
    outer loop
      vertex 19.4 2.5 100
      vertex 12.4854 1.86116 100
      vertex 12.795 1.28199 100
    endloop
  endfacet
  facet normal 0 0 1
    outer loop
      vertex 19.4 2.5 100
      vertex 12.2 9.7 100
      vertex 12.0688 2.36881 100
    endloop
  endfacet
  facet normal 0 0 1
    outer loop
      vertex 19.4 2.5 100
      vertex 12.0688 2.36881 100
      vertex 12.4854 1.86116 100
    endloop
  endfacet
  facet normal -0 0 1
    outer loop
      vertex 19.4 2.5 100
      vertex 39.7 -2.5 100
      vertex 39.7 2.5 100
    endloop
  endfacet
  facet normal 0 0 1
    outer loop
      vertex 39.7 -2.5 100
      vertex 19.4 2.5 100
      vertex 19.4 -2.5 100
    endloop
  endfacet
  facet normal -0 0 1
    outer loop
      vertex 12.795 -1.28199 100
      vertex 19.4 -2.5 100
      vertex 12.9856 -0.653552 100
    endloop
  endfacet
  facet normal -0 0 1
    outer loop
      vertex 12.4854 -1.86116 100
      vertex 19.4 -2.5 100
      vertex 12.795 -1.28199 100
    endloop
  endfacet
  facet normal -0 0 1
    outer loop
      vertex 12.0688 -2.36881 100
      vertex 19.4 -2.5 100
      vertex 12.4854 -1.86116 100
    endloop
  endfacet
  facet normal 0 -0 1
    outer loop
      vertex 12.2 -9.7 100
      vertex 19.4 -2.5 100
      vertex 12.0688 -2.36881 100
    endloop
  endfacet
  facet normal 0 0 1
    outer loop
      vertex 19.4 -2.5 100
      vertex 12.2 -9.7 100
      vertex 19.4 -9.7 100
    endloop
  endfacet
  facet normal -0 0 1
    outer loop
      vertex 11.5612 -2.78542 100
      vertex 12.2 -9.7 100
      vertex 12.0688 -2.36881 100
    endloop
  endfacet
  facet normal -0 0 1
    outer loop
      vertex 10.982 -3.095 100
      vertex 12.2 -9.7 100
      vertex 11.5612 -2.78542 100
    endloop
  endfacet
  facet normal -0 0 1
    outer loop
      vertex 10.3536 -3.28563 100
      vertex 12.2 -9.7 100
      vertex 10.982 -3.095 100
    endloop
  endfacet
  facet normal -0 0 1
    outer loop
      vertex 9.7 -3.35 100
      vertex 12.2 -9.7 100
      vertex 10.3536 -3.28563 100
    endloop
  endfacet
  facet normal 0 0 1
    outer loop
      vertex 12.2 -9.7 100
      vertex 9.7 -3.35 100
      vertex 7.2 -9.7 100
    endloop
  endfacet
  facet normal 0 0 1
    outer loop
      vertex 7.2 -9.7 100
      vertex 9.7 -3.35 100
      vertex 9.04645 -3.28563 100
    endloop
  endfacet
  facet normal 0 0 1
    outer loop
      vertex 7.2 -9.7 100
      vertex 9.04645 -3.28563 100
      vertex 8.41801 -3.095 100
    endloop
  endfacet
  facet normal 0 0 1
    outer loop
      vertex 7.2 -9.7 100
      vertex 8.41801 -3.095 100
      vertex 7.83884 -2.78542 100
    endloop
  endfacet
  facet normal 0 0 1
    outer loop
      vertex 7.2 -9.7 100
      vertex 7.83884 -2.78542 100
      vertex 7.33119 -2.36881 100
    endloop
  endfacet
  facet normal 0 0 1
    outer loop
      vertex 12.2 -9.7 100
      vertex 7.2 -9.7 100
      vertex 12.2 -30 100
    endloop
  endfacet
  facet normal 0 0 1
    outer loop
      vertex 12.2 -30 100
      vertex 7.2 -9.7 100
      vertex 7.2 -30 100
    endloop
  endfacet
  facet normal 0.956083 0.290011 -0.0424106
    outer loop
      vertex 16.8981 4.05535 0
      vertex 16.6705 4.80573 0
      vertex 19.4 9.7 95
    endloop
  endfacet
  facet normal 0 0.999674 -0.025518
    outer loop
      vertex 19.4 9.7 95
      vertex 12.2 8.93129 64.8855
      vertex 12.2 9.7 95
    endloop
  endfacet
  facet normal 0 0.999674 -0.025518
    outer loop
      vertex 12.2 8.93129 64.8855
      vertex 12.975 7.275 0
      vertex 7.2 8.93129 64.8855
    endloop
  endfacet
  facet normal -1.27832e-008 0.999674 -0.025518
    outer loop
      vertex 12.975 7.275 0
      vertex 12.2 8.93129 64.8855
      vertex 19.4 9.7 95
    endloop
  endfacet
  facet normal 0 0.999674 -0.025518
    outer loop
      vertex 7.2 8.93129 64.8855
      vertex 1.90735e-007 9.7 95
      vertex 7.2 9.7 95
    endloop
  endfacet
  facet normal 0 0.999674 -0.025518
    outer loop
      vertex 1.90735e-007 7.275 0
      vertex 7.2 8.93129 64.8855
      vertex 12.975 7.275 0
    endloop
  endfacet
  facet normal 9.1672e-009 0.999674 -0.025518
    outer loop
      vertex 7.2 8.93129 64.8855
      vertex 1.90735e-007 7.275 0
      vertex 1.90735e-007 9.7 95
    endloop
  endfacet
  facet normal 0 -1 0
    outer loop
      vertex 1.90735e-007 -9.7 95
      vertex 7.2 -9.7 100
      vertex 1.90735e-007 -9.7 100
    endloop
  endfacet
  facet normal 0 -1 -0
    outer loop
      vertex 7.2 -9.7 100
      vertex 1.90735e-007 -9.7 95
      vertex 7.2 -9.7 95
    endloop
  endfacet
  facet normal 0 -1 0
    outer loop
      vertex 12.2 -9.7 95
      vertex 19.4 -9.7 100
      vertex 12.2 -9.7 100
    endloop
  endfacet
  facet normal 0 -1 -0
    outer loop
      vertex 19.4 -9.7 100
      vertex 12.2 -9.7 95
      vertex 19.4 -9.7 95
    endloop
  endfacet
  facet normal 0 -0.999674 -0.025518
    outer loop
      vertex 1.90735e-007 -9.7 95
      vertex 7.2 -8.93129 64.8855
      vertex 7.2 -9.7 95
    endloop
  endfacet
  facet normal -0 -0.999674 -0.025518
    outer loop
      vertex 7.275 -7.275 0
      vertex 7.2 -8.93129 64.8855
      vertex 1.90735e-007 -7.275 0
    endloop
  endfacet
  facet normal 9.1672e-009 -0.999674 -0.025518
    outer loop
      vertex 1.90735e-007 -7.275 0
      vertex 7.2 -8.93129 64.8855
      vertex 1.90735e-007 -9.7 95
    endloop
  endfacet
  facet normal 0 -0.999674 -0.025518
    outer loop
      vertex 12.2 -8.93129 64.8855
      vertex 19.4 -9.7 95
      vertex 12.2 -9.7 95
    endloop
  endfacet
  facet normal 0 -0.999674 -0.025518
    outer loop
      vertex 7.2 -8.93129 64.8855
      vertex 7.275 -7.275 0
      vertex 12.2 -8.93129 64.8855
    endloop
  endfacet
  facet normal -1.96649e-008 -0.999674 -0.025518
    outer loop
      vertex 12.2 -8.93129 64.8855
      vertex 7.275 -7.275 0
      vertex 19.4 -9.7 95
    endloop
  endfacet
  facet normal 0.771911 0.6335 -0.0532072
    outer loop
      vertex 16.3009 5.49727 0
      vertex 15.8034 6.10341 0
      vertex 19.4 9.7 95
    endloop
  endfacet
  facet normal -1 0 0
    outer loop
      vertex 1.90735e-007 -9.7 95
      vertex 1.90735e-007 9.7 95
      vertex 1.90735e-007 7.275 0
    endloop
  endfacet
  facet normal -1 0 0
    outer loop
      vertex 1.90735e-007 -9.7 95
      vertex 1.90735e-007 7.275 0
      vertex 1.90735e-007 -7.275 0
    endloop
  endfacet
  facet normal -1 0 0
    outer loop
      vertex 1.90735e-007 9.7 95
      vertex 1.90735e-007 -9.7 95
      vertex 1.90735e-007 9.7 100
    endloop
  endfacet
  facet normal -1 -0 0
    outer loop
      vertex 1.90735e-007 9.7 100
      vertex 1.90735e-007 -9.7 95
      vertex 1.90735e-007 -9.7 100
    endloop
  endfacet
  facet normal 1 -0 0
    outer loop
      vertex 19.4 2.5 100
      vertex 19.4 9.7 95
      vertex 19.4 9.7 100
    endloop
  endfacet
  facet normal 1 0 0
    outer loop
      vertex 19.4 9.7 95
      vertex 19.4 2.5 100
      vertex 19.4 2.5 95
    endloop
  endfacet
  facet normal 1 -0 0
    outer loop
      vertex 19.4 -9.7 100
      vertex 19.4 -2.5 95
      vertex 19.4 -2.5 100
    endloop
  endfacet
  facet normal 1 0 0
    outer loop
      vertex 19.4 -2.5 95
      vertex 19.4 -9.7 100
      vertex 19.4 -9.7 95
    endloop
  endfacet
  facet normal 0 0 -1
    outer loop
      vertex 12.975 -7.27499 0
      vertex 16.975 -3.27499 0
      vertex 16.8981 -4.05534 0
    endloop
  endfacet
  facet normal 0 0 -1
    outer loop
      vertex 7.275 -7.275 0
      vertex 16.975 -3.27499 0
      vertex 12.975 -7.27499 0
    endloop
  endfacet
  facet normal 0 0 -1
    outer loop
      vertex 12.975 -7.27499 0
      vertex 16.8981 -4.05534 0
      vertex 16.6705 -4.80572 0
    endloop
  endfacet
  facet normal -0 0 -1
    outer loop
      vertex 16.975 -3.27499 0
      vertex 7.275 -7.275 0
      vertex 16.975 3.275 0
    endloop
  endfacet
  facet normal 0 0 -1
    outer loop
      vertex 12.975 -7.27499 0
      vertex 16.6705 -4.80572 0
      vertex 16.3009 -5.49726 0
    endloop
  endfacet
  facet normal 0 0 -1
    outer loop
      vertex 16.975 3.275 0
      vertex 12.975 7.275 0
      vertex 16.8981 4.05535 0
    endloop
  endfacet
  facet normal 0 0 -1
    outer loop
      vertex 12.975 -7.27499 0
      vertex 16.3009 -5.49726 0
      vertex 15.8034 -6.1034 0
    endloop
  endfacet
  facet normal 0 0 -1
    outer loop
      vertex 16.8981 4.05535 0
      vertex 12.975 7.275 0
      vertex 16.6705 4.80573 0
    endloop
  endfacet
  facet normal 0 0 -1
    outer loop
      vertex 12.975 -7.27499 0
      vertex 15.8034 -6.1034 0
      vertex 15.1973 -6.60085 0
    endloop
  endfacet
  facet normal 0 0 -1
    outer loop
      vertex 16.6705 4.80573 0
      vertex 12.975 7.275 0
      vertex 16.3009 5.49727 0
    endloop
  endfacet
  facet normal 0 0 -1
    outer loop
      vertex 12.975 -7.27499 0
      vertex 15.1973 -6.60085 0
      vertex 14.5057 -6.9705 0
    endloop
  endfacet
  facet normal 0 0 -1
    outer loop
      vertex 16.3009 5.49727 0
      vertex 12.975 7.275 0
      vertex 15.8034 6.10341 0
    endloop
  endfacet
  facet normal 0 0 -1
    outer loop
      vertex 12.975 -7.27499 0
      vertex 14.5057 -6.9705 0
      vertex 13.7553 -7.19811 0
    endloop
  endfacet
  facet normal 0 0 -1
    outer loop
      vertex 15.8034 6.10341 0
      vertex 12.975 7.275 0
      vertex 15.1973 6.60087 0
    endloop
  endfacet
  facet normal 0 0 -1
    outer loop
      vertex 15.1973 6.60087 0
      vertex 12.975 7.275 0
      vertex 14.5057 6.97051 0
    endloop
  endfacet
  facet normal 0 0 -1
    outer loop
      vertex 14.5057 6.97051 0
      vertex 12.975 7.275 0
      vertex 13.7553 7.19813 0
    endloop
  endfacet
  facet normal -0 0 -1
    outer loop
      vertex 16.975 3.275 0
      vertex 7.275 -7.275 0
      vertex 12.975 7.275 0
    endloop
  endfacet
  facet normal 0 0 -1
    outer loop
      vertex 1.90735e-007 7.275 0
      vertex 7.275 -7.275 0
      vertex 1.90735e-007 -7.275 0
    endloop
  endfacet
  facet normal 0 0 -1
    outer loop
      vertex 7.275 -7.275 0
      vertex 1.90735e-007 7.275 0
      vertex 12.975 7.275 0
    endloop
  endfacet
  facet normal 0 1 -0
    outer loop
      vertex 19.4 9.7 95
      vertex 12.2 9.7 100
      vertex 19.4 9.7 100
    endloop
  endfacet
  facet normal 0 1 0
    outer loop
      vertex 12.2 9.7 100
      vertex 19.4 9.7 95
      vertex 12.2 9.7 95
    endloop
  endfacet
  facet normal 0 1 -0
    outer loop
      vertex 7.2 9.7 95
      vertex 1.90735e-007 9.7 100
      vertex 7.2 9.7 100
    endloop
  endfacet
  facet normal 0 1 0
    outer loop
      vertex 1.90735e-007 9.7 100
      vertex 7.2 9.7 95
      vertex 1.90735e-007 9.7 95
    endloop
  endfacet
  facet normal 0.880834 0.470824 -0.0495638
    outer loop
      vertex 16.6705 4.80573 0
      vertex 16.3009 5.49727 0
      vertex 19.4 9.7 95
    endloop
  endfacet
  facet normal 0.999674 -7.13139e-008 -0.025518
    outer loop
      vertex 19.4 9.7 95
      vertex 18.6313 2.5 64.8855
      vertex 16.975 3.275 0
    endloop
  endfacet
  facet normal 0.999674 0 -0.025518
    outer loop
      vertex 18.6313 2.5 64.8855
      vertex 19.4 9.7 95
      vertex 19.4 2.5 95
    endloop
  endfacet
  facet normal 0.999674 0 -0.025518
    outer loop
      vertex 18.6313 -2.5 64.8855
      vertex 16.975 3.275 0
      vertex 18.6313 2.5 64.8855
    endloop
  endfacet
  facet normal 0.999674 0 -0.025518
    outer loop
      vertex 16.975 3.275 0
      vertex 18.6313 -2.5 64.8855
      vertex 16.975 -3.27499 0
    endloop
  endfacet
  facet normal 0.999674 0 -0.025518
    outer loop
      vertex 19.4 -9.7 95
      vertex 18.6313 -2.5 64.8855
      vertex 19.4 -2.5 95
    endloop
  endfacet
  facet normal 0.999674 7.13139e-008 -0.025518
    outer loop
      vertex 18.6313 -2.5 64.8855
      vertex 19.4 -9.7 95
      vertex 16.975 -3.27499 0
    endloop
  endfacet
  facet normal 0.994673 0.0979871 -0.0320173
    outer loop
      vertex 16.975 3.275 0
      vertex 16.8981 4.05535 0
      vertex 19.4 9.7 95
    endloop
  endfacet
  facet normal 0.771911 -0.6335 -0.0532072
    outer loop
      vertex 19.4 -9.7 95
      vertex 15.8034 -6.1034 0
      vertex 16.3009 -5.49726 0
    endloop
  endfacet
  facet normal 0.470824 0.880834 -0.0495638
    outer loop
      vertex 15.1973 6.60087 0
      vertex 14.5057 6.97051 0
      vertex 19.4 9.7 95
    endloop
  endfacet
  facet normal 0.0979871 0.994673 -0.0320174
    outer loop
      vertex 13.7553 7.19813 0
      vertex 12.975 7.275 0
      vertex 19.4 9.7 95
    endloop
  endfacet
  facet normal 0.290011 -0.956083 -0.0424108
    outer loop
      vertex 19.4 -9.7 95
      vertex 13.7553 -7.19811 0
      vertex 14.5057 -6.9705 0
    endloop
  endfacet
  facet normal 0.994673 -0.0979871 -0.0320174
    outer loop
      vertex 19.4 -9.7 95
      vertex 16.8981 -4.05534 0
      vertex 16.975 -3.27499 0
    endloop
  endfacet
  facet normal 0.633499 0.771912 -0.0532072
    outer loop
      vertex 15.8034 6.10341 0
      vertex 15.1973 6.60087 0
      vertex 19.4 9.7 95
    endloop
  endfacet
  facet normal 0.290011 0.956083 -0.0424107
    outer loop
      vertex 14.5057 6.97051 0
      vertex 13.7553 7.19813 0
      vertex 19.4 9.7 95
    endloop
  endfacet
  facet normal 0.0979871 -0.994673 -0.0320175
    outer loop
      vertex 19.4 -9.7 95
      vertex 12.975 -7.27499 0
      vertex 13.7553 -7.19811 0
    endloop
  endfacet
  facet normal 0.470824 -0.880834 -0.049564
    outer loop
      vertex 19.4 -9.7 95
      vertex 14.5057 -6.9705 0
      vertex 15.1973 -6.60085 0
    endloop
  endfacet
  facet normal 0.956083 -0.290011 -0.0424107
    outer loop
      vertex 19.4 -9.7 95
      vertex 16.6705 -4.80572 0
      vertex 16.8981 -4.05534 0
    endloop
  endfacet
  facet normal 2.17434e-006 -0.999674 -0.0255183
    outer loop
      vertex 19.4 -9.7 95
      vertex 7.275 -7.275 0
      vertex 12.975 -7.27499 0
    endloop
  endfacet
  facet normal 0.633499 -0.771912 -0.0532073
    outer loop
      vertex 19.4 -9.7 95
      vertex 15.1973 -6.60085 0
      vertex 15.8034 -6.1034 0
    endloop
  endfacet
  facet normal 0.880834 -0.470824 -0.0495639
    outer loop
      vertex 19.4 -9.7 95
      vertex 16.3009 -5.49726 0
      vertex 16.6705 -4.80572 0
    endloop
  endfacet
  facet normal -1 0 0
    outer loop
      vertex 7.2 -9.7 95
      vertex 7.2 -30 100
      vertex 7.2 -9.7 100
    endloop
  endfacet
  facet normal -1 0 0
    outer loop
      vertex 7.2 -30 100
      vertex 7.2 -9.7 95
      vertex 7.2 -8.93129 64.8855
    endloop
  endfacet
  facet normal 0 -0.857493 -0.514496
    outer loop
      vertex 7.2 -8.93129 64.8855
      vertex 12.2 -30 100
      vertex 7.2 -30 100
    endloop
  endfacet
  facet normal 0 -0.857493 -0.514496
    outer loop
      vertex 12.2 -30 100
      vertex 7.2 -8.93129 64.8855
      vertex 12.2 -8.93129 64.8855
    endloop
  endfacet
  facet normal 1 0 0
    outer loop
      vertex 12.2 -9.7 100
      vertex 12.2 -30 100
      vertex 12.2 -9.7 95
    endloop
  endfacet
  facet normal 1 7.84941e-009 3.18686e-008
    outer loop
      vertex 12.2 -8.93129 64.8855
      vertex 12.2 -9.7 95
      vertex 12.2 -30 100
    endloop
  endfacet
  facet normal 0 -1 0
    outer loop
      vertex 19.4 -2.5 95
      vertex 39.7 -2.5 100
      vertex 19.4 -2.5 100
    endloop
  endfacet
  facet normal 0 -1 0
    outer loop
      vertex 39.7 -2.5 100
      vertex 19.4 -2.5 95
      vertex 18.6313 -2.5 64.8855
    endloop
  endfacet
  facet normal 0.857493 0 -0.514496
    outer loop
      vertex 39.7 -2.5 100
      vertex 18.6313 2.5 64.8855
      vertex 39.7 2.5 100
    endloop
  endfacet
  facet normal 0.857493 0 -0.514496
    outer loop
      vertex 18.6313 2.5 64.8855
      vertex 39.7 -2.5 100
      vertex 18.6313 -2.5 64.8855
    endloop
  endfacet
  facet normal 0 1 0
    outer loop
      vertex 39.7 2.5 100
      vertex 19.4 2.5 95
      vertex 19.4 2.5 100
    endloop
  endfacet
  facet normal -5.88706e-009 1 2.39015e-008
    outer loop
      vertex 19.4 2.5 95
      vertex 39.7 2.5 100
      vertex 18.6313 2.5 64.8855
    endloop
  endfacet
  facet normal 1 0 0
    outer loop
      vertex 12.2 9.7 95
      vertex 12.2 30 100
      vertex 12.2 9.7 100
    endloop
  endfacet
  facet normal 1 0 0
    outer loop
      vertex 12.2 30 100
      vertex 12.2 9.7 95
      vertex 12.2 8.93129 64.8855
    endloop
  endfacet
  facet normal 0 0.857493 -0.514496
    outer loop
      vertex 12.2 8.93129 64.8855
      vertex 7.2 30 100
      vertex 12.2 30 100
    endloop
  endfacet
  facet normal 0 0.857493 -0.514496
    outer loop
      vertex 7.2 30 100
      vertex 12.2 8.93129 64.8855
      vertex 7.2 8.93129 64.8855
    endloop
  endfacet
  facet normal -1 -3.92471e-009 1.59343e-008
    outer loop
      vertex 7.2 30 100
      vertex 7.2 8.93129 64.8855
      vertex 7.2 9.7 95
    endloop
  endfacet
  facet normal -1 -0 0
    outer loop
      vertex 7.2 30 100
      vertex 7.2 9.7 95
      vertex 7.2 9.7 100
    endloop
  endfacet
  facet normal 0.995185 0.0980171 0
    outer loop
      vertex 6.41437 -0.653552 100
      vertex 6.35 -7.77625e-016 87
      vertex 6.35 -7.77625e-016 100
    endloop
  endfacet
  facet normal 0.995185 0.0980171 0
    outer loop
      vertex 6.35 -7.77625e-016 87
      vertex 6.41437 -0.653552 100
      vertex 6.41437 -0.653552 87
    endloop
  endfacet
  facet normal -0.995185 0.0980171 0
    outer loop
      vertex 12.9856 -0.653552 87
      vertex 13.05 -1.59811e-015 100
      vertex 13.05 -1.59811e-015 87
    endloop
  endfacet
  facet normal -0.995185 0.0980171 0
    outer loop
      vertex 13.05 -1.59811e-015 100
      vertex 12.9856 -0.653552 87
      vertex 12.9856 -0.653552 100
    endloop
  endfacet
  facet normal -0.0980171 0.995185 0
    outer loop
      vertex 10.3536 -3.28563 87
      vertex 9.7 -3.35 100
      vertex 10.3536 -3.28563 100
    endloop
  endfacet
  facet normal -0.0980171 0.995185 0
    outer loop
      vertex 9.7 -3.35 100
      vertex 10.3536 -3.28563 87
      vertex 9.7 -3.35 87
    endloop
  endfacet
  facet normal 0.0980171 -0.995185 0
    outer loop
      vertex 9.04645 3.28563 87
      vertex 9.7 3.35 100
      vertex 9.04645 3.28563 100
    endloop
  endfacet
  facet normal 0.0980171 -0.995185 0
    outer loop
      vertex 9.7 3.35 100
      vertex 9.04645 3.28563 87
      vertex 9.7 3.35 87
    endloop
  endfacet
  facet normal 0.634394 0.77301 -0
    outer loop
      vertex 7.83884 -2.78542 87
      vertex 7.33119 -2.36881 100
      vertex 7.83884 -2.78542 100
    endloop
  endfacet
  facet normal 0.634394 0.77301 0
    outer loop
      vertex 7.33119 -2.36881 100
      vertex 7.83884 -2.78542 87
      vertex 7.33119 -2.36881 87
    endloop
  endfacet
  facet normal -0.77301 0.634394 0
    outer loop
      vertex 12.0688 -2.36881 87
      vertex 12.4854 -1.86116 100
      vertex 12.4854 -1.86116 87
    endloop
  endfacet
  facet normal -0.77301 0.634394 0
    outer loop
      vertex 12.4854 -1.86116 100
      vertex 12.0688 -2.36881 87
      vertex 12.0688 -2.36881 100
    endloop
  endfacet
  facet normal -0.471396 0.881921 0
    outer loop
      vertex 11.5612 -2.78542 87
      vertex 10.982 -3.095 100
      vertex 11.5612 -2.78542 100
    endloop
  endfacet
  facet normal -0.471396 0.881921 0
    outer loop
      vertex 10.982 -3.095 100
      vertex 11.5612 -2.78542 87
      vertex 10.982 -3.095 87
    endloop
  endfacet
  facet normal 0.881921 0.471396 0
    outer loop
      vertex 6.91458 -1.86116 100
      vertex 6.605 -1.28199 87
      vertex 6.605 -1.28199 100
    endloop
  endfacet
  facet normal 0.881921 0.471396 0
    outer loop
      vertex 6.605 -1.28199 87
      vertex 6.91458 -1.86116 100
      vertex 6.91458 -1.86116 87
    endloop
  endfacet
  facet normal 0.95694 0.290285 0
    outer loop
      vertex 6.605 -1.28199 100
      vertex 6.41437 -0.653552 87
      vertex 6.41437 -0.653552 100
    endloop
  endfacet
  facet normal 0.95694 0.290285 0
    outer loop
      vertex 6.41437 -0.653552 87
      vertex 6.605 -1.28199 100
      vertex 6.605 -1.28199 87
    endloop
  endfacet
  facet normal 0.77301 0.634394 0
    outer loop
      vertex 7.33119 -2.36881 100
      vertex 6.91458 -1.86116 87
      vertex 6.91458 -1.86116 100
    endloop
  endfacet
  facet normal 0.77301 0.634394 0
    outer loop
      vertex 6.91458 -1.86116 87
      vertex 7.33119 -2.36881 100
      vertex 7.33119 -2.36881 87
    endloop
  endfacet
  facet normal 0.290285 0.95694 -0
    outer loop
      vertex 9.04645 -3.28563 87
      vertex 8.41801 -3.095 100
      vertex 9.04645 -3.28563 100
    endloop
  endfacet
  facet normal 0.290285 0.95694 0
    outer loop
      vertex 8.41801 -3.095 100
      vertex 9.04645 -3.28563 87
      vertex 8.41801 -3.095 87
    endloop
  endfacet
  facet normal 0.0980171 0.995185 -0
    outer loop
      vertex 9.7 -3.35 87
      vertex 9.04645 -3.28563 100
      vertex 9.7 -3.35 100
    endloop
  endfacet
  facet normal 0.0980171 0.995185 0
    outer loop
      vertex 9.04645 -3.28563 100
      vertex 9.7 -3.35 87
      vertex 9.04645 -3.28563 87
    endloop
  endfacet
  facet normal 0.471396 0.881921 -0
    outer loop
      vertex 8.41801 -3.095 87
      vertex 7.83884 -2.78542 100
      vertex 8.41801 -3.095 100
    endloop
  endfacet
  facet normal 0.471396 0.881921 0
    outer loop
      vertex 7.83884 -2.78542 100
      vertex 8.41801 -3.095 87
      vertex 7.83884 -2.78542 87
    endloop
  endfacet
  facet normal -0.881921 0.471396 0
    outer loop
      vertex 12.4854 -1.86116 87
      vertex 12.795 -1.28199 100
      vertex 12.795 -1.28199 87
    endloop
  endfacet
  facet normal -0.881921 0.471396 0
    outer loop
      vertex 12.795 -1.28199 100
      vertex 12.4854 -1.86116 87
      vertex 12.4854 -1.86116 100
    endloop
  endfacet
  facet normal -0.95694 0.290285 0
    outer loop
      vertex 12.795 -1.28199 87
      vertex 12.9856 -0.653552 100
      vertex 12.9856 -0.653552 87
    endloop
  endfacet
  facet normal -0.95694 0.290285 0
    outer loop
      vertex 12.9856 -0.653552 100
      vertex 12.795 -1.28199 87
      vertex 12.795 -1.28199 100
    endloop
  endfacet
  facet normal -0.634394 0.77301 0
    outer loop
      vertex 12.0688 -2.36881 87
      vertex 11.5612 -2.78542 100
      vertex 12.0688 -2.36881 100
    endloop
  endfacet
  facet normal -0.634394 0.77301 0
    outer loop
      vertex 11.5612 -2.78542 100
      vertex 12.0688 -2.36881 87
      vertex 11.5612 -2.78542 87
    endloop
  endfacet
  facet normal -0.290285 0.95694 0
    outer loop
      vertex 10.982 -3.095 87
      vertex 10.3536 -3.28563 100
      vertex 10.982 -3.095 100
    endloop
  endfacet
  facet normal -0.290285 0.95694 0
    outer loop
      vertex 10.3536 -3.28563 100
      vertex 10.982 -3.095 87
      vertex 10.3536 -3.28563 87
    endloop
  endfacet
  facet normal 0.995185 -0.0980171 0
    outer loop
      vertex 6.35 -7.77625e-016 100
      vertex 6.41437 0.653552 87
      vertex 6.41437 0.653552 100
    endloop
  endfacet
  facet normal 0.995185 -0.0980171 0
    outer loop
      vertex 6.41437 0.653552 87
      vertex 6.35 -7.77625e-016 100
      vertex 6.35 -7.77625e-016 87
    endloop
  endfacet
  facet normal -0.77301 -0.634394 0
    outer loop
      vertex 12.4854 1.86116 87
      vertex 12.0688 2.36881 100
      vertex 12.0688 2.36881 87
    endloop
  endfacet
  facet normal -0.77301 -0.634394 0
    outer loop
      vertex 12.0688 2.36881 100
      vertex 12.4854 1.86116 87
      vertex 12.4854 1.86116 100
    endloop
  endfacet
  facet normal 0 0 1
    outer loop
      vertex 12.9856 0.653552 87
      vertex 12.9856 -0.653552 87
      vertex 13.05 -1.59811e-015 87
    endloop
  endfacet
  facet normal 0 0 1
    outer loop
      vertex 12.795 1.28199 87
      vertex 12.9856 -0.653552 87
      vertex 12.9856 0.653552 87
    endloop
  endfacet
  facet normal 0 0 1
    outer loop
      vertex 12.795 1.28199 87
      vertex 12.795 -1.28199 87
      vertex 12.9856 -0.653552 87
    endloop
  endfacet
  facet normal 0 0 1
    outer loop
      vertex 12.4854 1.86116 87
      vertex 12.795 -1.28199 87
      vertex 12.795 1.28199 87
    endloop
  endfacet
  facet normal 0 0 1
    outer loop
      vertex 12.4854 1.86116 87
      vertex 12.4854 -1.86116 87
      vertex 12.795 -1.28199 87
    endloop
  endfacet
  facet normal 0 0 1
    outer loop
      vertex 12.0688 2.36881 87
      vertex 12.4854 -1.86116 87
      vertex 12.4854 1.86116 87
    endloop
  endfacet
  facet normal 0 0 1
    outer loop
      vertex 12.0688 2.36881 87
      vertex 12.0688 -2.36881 87
      vertex 12.4854 -1.86116 87
    endloop
  endfacet
  facet normal 0 0 1
    outer loop
      vertex 11.5612 2.78542 87
      vertex 12.0688 -2.36881 87
      vertex 12.0688 2.36881 87
    endloop
  endfacet
  facet normal 0 0 1
    outer loop
      vertex 11.5612 2.78542 87
      vertex 11.5612 -2.78542 87
      vertex 12.0688 -2.36881 87
    endloop
  endfacet
  facet normal 0 0 1
    outer loop
      vertex 10.982 3.095 87
      vertex 11.5612 -2.78542 87
      vertex 11.5612 2.78542 87
    endloop
  endfacet
  facet normal 0 0 1
    outer loop
      vertex 10.982 3.095 87
      vertex 10.982 -3.095 87
      vertex 11.5612 -2.78542 87
    endloop
  endfacet
  facet normal 0 0 1
    outer loop
      vertex 10.3536 3.28563 87
      vertex 10.982 -3.095 87
      vertex 10.982 3.095 87
    endloop
  endfacet
  facet normal 0 0 1
    outer loop
      vertex 10.3536 3.28563 87
      vertex 10.3536 -3.28563 87
      vertex 10.982 -3.095 87
    endloop
  endfacet
  facet normal 0 0 1
    outer loop
      vertex 9.7 3.35 87
      vertex 10.3536 -3.28563 87
      vertex 10.3536 3.28563 87
    endloop
  endfacet
  facet normal 0 0 1
    outer loop
      vertex 9.7 3.35 87
      vertex 9.7 -3.35 87
      vertex 10.3536 -3.28563 87
    endloop
  endfacet
  facet normal -0 0 1
    outer loop
      vertex 9.04645 3.28563 87
      vertex 9.7 -3.35 87
      vertex 9.7 3.35 87
    endloop
  endfacet
  facet normal 0 0 1
    outer loop
      vertex 9.04645 3.28563 87
      vertex 9.04645 -3.28563 87
      vertex 9.7 -3.35 87
    endloop
  endfacet
  facet normal -0 0 1
    outer loop
      vertex 8.41801 3.095 87
      vertex 9.04645 -3.28563 87
      vertex 9.04645 3.28563 87
    endloop
  endfacet
  facet normal 0 0 1
    outer loop
      vertex 8.41801 3.095 87
      vertex 8.41801 -3.095 87
      vertex 9.04645 -3.28563 87
    endloop
  endfacet
  facet normal -0 0 1
    outer loop
      vertex 7.83884 2.78542 87
      vertex 8.41801 -3.095 87
      vertex 8.41801 3.095 87
    endloop
  endfacet
  facet normal 0 0 1
    outer loop
      vertex 7.83884 2.78542 87
      vertex 7.83884 -2.78542 87
      vertex 8.41801 -3.095 87
    endloop
  endfacet
  facet normal -0 0 1
    outer loop
      vertex 7.33119 2.36881 87
      vertex 7.83884 -2.78542 87
      vertex 7.83884 2.78542 87
    endloop
  endfacet
  facet normal 0 0 1
    outer loop
      vertex 7.33119 2.36881 87
      vertex 7.33119 -2.36881 87
      vertex 7.83884 -2.78542 87
    endloop
  endfacet
  facet normal -0 0 1
    outer loop
      vertex 6.91458 1.86116 87
      vertex 7.33119 -2.36881 87
      vertex 7.33119 2.36881 87
    endloop
  endfacet
  facet normal 0 0 1
    outer loop
      vertex 6.91458 1.86116 87
      vertex 6.91458 -1.86116 87
      vertex 7.33119 -2.36881 87
    endloop
  endfacet
  facet normal -0 0 1
    outer loop
      vertex 6.605 1.28199 87
      vertex 6.91458 -1.86116 87
      vertex 6.91458 1.86116 87
    endloop
  endfacet
  facet normal 0 0 1
    outer loop
      vertex 6.605 1.28199 87
      vertex 6.605 -1.28199 87
      vertex 6.91458 -1.86116 87
    endloop
  endfacet
  facet normal -0 0 1
    outer loop
      vertex 6.41437 0.653552 87
      vertex 6.605 -1.28199 87
      vertex 6.605 1.28199 87
    endloop
  endfacet
  facet normal 0 0 1
    outer loop
      vertex 6.41437 0.653552 87
      vertex 6.41437 -0.653552 87
      vertex 6.605 -1.28199 87
    endloop
  endfacet
  facet normal 0 -0 1
    outer loop
      vertex 6.41437 -0.653552 87
      vertex 6.41437 0.653552 87
      vertex 6.35 -7.77625e-016 87
    endloop
  endfacet
  facet normal 0.881921 -0.471396 0
    outer loop
      vertex 6.605 1.28199 100
      vertex 6.91458 1.86116 87
      vertex 6.91458 1.86116 100
    endloop
  endfacet
  facet normal 0.881921 -0.471396 0
    outer loop
      vertex 6.91458 1.86116 87
      vertex 6.605 1.28199 100
      vertex 6.605 1.28199 87
    endloop
  endfacet
  facet normal 0.634394 -0.77301 0
    outer loop
      vertex 7.33119 2.36881 87
      vertex 7.83884 2.78542 100
      vertex 7.33119 2.36881 100
    endloop
  endfacet
  facet normal 0.634394 -0.77301 0
    outer loop
      vertex 7.83884 2.78542 100
      vertex 7.33119 2.36881 87
      vertex 7.83884 2.78542 87
    endloop
  endfacet
  facet normal 0.95694 -0.290285 0
    outer loop
      vertex 6.41437 0.653552 100
      vertex 6.605 1.28199 87
      vertex 6.605 1.28199 100
    endloop
  endfacet
  facet normal 0.95694 -0.290285 0
    outer loop
      vertex 6.605 1.28199 87
      vertex 6.41437 0.653552 100
      vertex 6.41437 0.653552 87
    endloop
  endfacet
  facet normal -0.0980171 -0.995185 0
    outer loop
      vertex 9.7 3.35 87
      vertex 10.3536 3.28563 100
      vertex 9.7 3.35 100
    endloop
  endfacet
  facet normal -0.0980171 -0.995185 -0
    outer loop
      vertex 10.3536 3.28563 100
      vertex 9.7 3.35 87
      vertex 10.3536 3.28563 87
    endloop
  endfacet
  facet normal -0.471396 -0.881921 0
    outer loop
      vertex 10.982 3.095 87
      vertex 11.5612 2.78542 100
      vertex 10.982 3.095 100
    endloop
  endfacet
  facet normal -0.471396 -0.881921 -0
    outer loop
      vertex 11.5612 2.78542 100
      vertex 10.982 3.095 87
      vertex 11.5612 2.78542 87
    endloop
  endfacet
  facet normal -0.290285 -0.95694 0
    outer loop
      vertex 10.3536 3.28563 87
      vertex 10.982 3.095 100
      vertex 10.3536 3.28563 100
    endloop
  endfacet
  facet normal -0.290285 -0.95694 -0
    outer loop
      vertex 10.982 3.095 100
      vertex 10.3536 3.28563 87
      vertex 10.982 3.095 87
    endloop
  endfacet
  facet normal -0.634394 -0.77301 0
    outer loop
      vertex 11.5612 2.78542 87
      vertex 12.0688 2.36881 100
      vertex 11.5612 2.78542 100
    endloop
  endfacet
  facet normal -0.634394 -0.77301 -0
    outer loop
      vertex 12.0688 2.36881 100
      vertex 11.5612 2.78542 87
      vertex 12.0688 2.36881 87
    endloop
  endfacet
  facet normal -0.95694 -0.290285 0
    outer loop
      vertex 12.9856 0.653552 87
      vertex 12.795 1.28199 100
      vertex 12.795 1.28199 87
    endloop
  endfacet
  facet normal -0.95694 -0.290285 0
    outer loop
      vertex 12.795 1.28199 100
      vertex 12.9856 0.653552 87
      vertex 12.9856 0.653552 100
    endloop
  endfacet
  facet normal -0.995185 -0.0980171 0
    outer loop
      vertex 13.05 -1.59811e-015 87
      vertex 12.9856 0.653552 100
      vertex 12.9856 0.653552 87
    endloop
  endfacet
  facet normal -0.995185 -0.0980171 0
    outer loop
      vertex 12.9856 0.653552 100
      vertex 13.05 -1.59811e-015 87
      vertex 13.05 -1.59811e-015 100
    endloop
  endfacet
  facet normal 0.471396 -0.881921 0
    outer loop
      vertex 7.83884 2.78542 87
      vertex 8.41801 3.095 100
      vertex 7.83884 2.78542 100
    endloop
  endfacet
  facet normal 0.471396 -0.881921 0
    outer loop
      vertex 8.41801 3.095 100
      vertex 7.83884 2.78542 87
      vertex 8.41801 3.095 87
    endloop
  endfacet
  facet normal 0.290285 -0.95694 0
    outer loop
      vertex 8.41801 3.095 87
      vertex 9.04645 3.28563 100
      vertex 8.41801 3.095 100
    endloop
  endfacet
  facet normal 0.290285 -0.95694 0
    outer loop
      vertex 9.04645 3.28563 100
      vertex 8.41801 3.095 87
      vertex 9.04645 3.28563 87
    endloop
  endfacet
  facet normal 0.77301 -0.634394 0
    outer loop
      vertex 6.91458 1.86116 100
      vertex 7.33119 2.36881 87
      vertex 7.33119 2.36881 100
    endloop
  endfacet
  facet normal 0.77301 -0.634394 0
    outer loop
      vertex 7.33119 2.36881 87
      vertex 6.91458 1.86116 100
      vertex 6.91458 1.86116 87
    endloop
  endfacet
  facet normal -0.881921 -0.471396 0
    outer loop
      vertex 12.795 1.28199 87
      vertex 12.4854 1.86116 100
      vertex 12.4854 1.86116 87
    endloop
  endfacet
  facet normal -0.881921 -0.471396 0
    outer loop
      vertex 12.4854 1.86116 100
      vertex 12.795 1.28199 87
      vertex 12.795 1.28199 100
    endloop
  endfacet
endsolid OpenSCAD_Model
