solid OpenSCAD_Model
  facet normal 0.671559 0.740951 -0
    outer loop
      vertex 41.3657 41.3657 0
      vertex 37.112 45.2211 2
      vertex 41.3657 41.3657 2
    endloop
  endfacet
  facet normal 0.671559 0.740951 0
    outer loop
      vertex 37.112 45.2211 2
      vertex 41.3657 41.3657 0
      vertex 37.112 45.2211 0
    endloop
  endfacet
  facet normal 0.998795 -0.0490675 0
    outer loop
      vertex 58.2183 -5.734 2
      vertex 58.5 0 0
      vertex 58.5 0 2
    endloop
  endfacet
  facet normal 0.998795 -0.0490675 0
    outer loop
      vertex 58.5 0 0
      vertex 58.2183 -5.734 2
      vertex 58.2183 -5.734 0
    endloop
  endfacet
  facet normal -0.33689 0.941544 0
    outer loop
      vertex -16.9817 55.981 0
      vertex -22.387 54.047 2
      vertex -16.9817 55.981 2
    endloop
  endfacet
  facet normal -0.33689 0.941544 0
    outer loop
      vertex -22.387 54.047 2
      vertex -16.9817 55.981 0
      vertex -22.387 54.047 0
    endloop
  endfacet
  facet normal -0.903989 0.427555 0
    outer loop
      vertex -54.047 22.387 0
      vertex -51.5924 27.5767 2
      vertex -51.5924 27.5767 0
    endloop
  endfacet
  facet normal -0.903989 0.427555 0
    outer loop
      vertex -51.5924 27.5767 2
      vertex -54.047 22.387 0
      vertex -54.047 22.387 2
    endloop
  endfacet
  facet normal 0.903989 0.427555 0
    outer loop
      vertex 54.047 22.387 2
      vertex 51.5924 27.5767 0
      vertex 51.5924 27.5767 2
    endloop
  endfacet
  facet normal 0.903989 0.427555 0
    outer loop
      vertex 51.5924 27.5767 0
      vertex 54.047 22.387 2
      vertex 54.047 22.387 0
    endloop
  endfacet
  facet normal 0.857729 0.514103 0
    outer loop
      vertex 51.5924 27.5767 2
      vertex 48.641 32.5009 0
      vertex 48.641 32.5009 2
    endloop
  endfacet
  facet normal 0.857729 0.514103 0
    outer loop
      vertex 48.641 32.5009 0
      vertex 51.5924 27.5767 2
      vertex 51.5924 27.5767 0
    endloop
  endfacet
  facet normal 0.427555 0.903989 -0
    outer loop
      vertex 27.5767 51.5924 0
      vertex 22.387 54.047 2
      vertex 27.5767 51.5924 2
    endloop
  endfacet
  facet normal 0.427555 0.903989 0
    outer loop
      vertex 22.387 54.047 2
      vertex 27.5767 51.5924 0
      vertex 22.387 54.047 0
    endloop
  endfacet
  facet normal 0.146731 0.989176 -0
    outer loop
      vertex 11.4128 57.3759 0
      vertex 5.734 58.2183 2
      vertex 11.4128 57.3759 2
    endloop
  endfacet
  facet normal 0.146731 0.989176 0
    outer loop
      vertex 5.734 58.2183 2
      vertex 11.4128 57.3759 0
      vertex 5.734 58.2183 0
    endloop
  endfacet
  facet normal -0.989176 0.146731 0
    outer loop
      vertex -58.2183 5.734 0
      vertex -57.3759 11.4128 2
      vertex -57.3759 11.4128 0
    endloop
  endfacet
  facet normal -0.989176 0.146731 0
    outer loop
      vertex -57.3759 11.4128 2
      vertex -58.2183 5.734 0
      vertex -58.2183 5.734 2
    endloop
  endfacet
  facet normal -0.740951 0.671559 0
    outer loop
      vertex -45.2211 37.112 0
      vertex -41.3657 41.3657 2
      vertex -41.3657 41.3657 0
    endloop
  endfacet
  facet normal -0.740951 0.671559 0
    outer loop
      vertex -41.3657 41.3657 2
      vertex -45.2211 37.112 0
      vertex -45.2211 37.112 2
    endloop
  endfacet
  facet normal -0.146731 0.989176 0
    outer loop
      vertex -5.734 58.2183 0
      vertex -11.4128 57.3759 2
      vertex -5.734 58.2183 2
    endloop
  endfacet
  facet normal -0.146731 0.989176 0
    outer loop
      vertex -11.4128 57.3759 2
      vertex -5.734 58.2183 0
      vertex -11.4128 57.3759 0
    endloop
  endfacet
  facet normal -0.146731 -0.989176 0
    outer loop
      vertex -11.4128 -57.3759 0
      vertex -5.734 -58.2183 2
      vertex -11.4128 -57.3759 2
    endloop
  endfacet
  facet normal -0.146731 -0.989176 -0
    outer loop
      vertex -5.734 -58.2183 2
      vertex -11.4128 -57.3759 0
      vertex -5.734 -58.2183 0
    endloop
  endfacet
  facet normal -0.671559 -0.740951 0
    outer loop
      vertex -41.3657 -41.3657 0
      vertex -37.112 -45.2211 2
      vertex -41.3657 -41.3657 2
    endloop
  endfacet
  facet normal -0.671559 -0.740951 -0
    outer loop
      vertex -37.112 -45.2211 2
      vertex -41.3657 -41.3657 0
      vertex -37.112 -45.2211 0
    endloop
  endfacet
  facet normal 0 0 -1
    outer loop
      vertex 51 0 0
      vertex 58.5 0 0
      vertex 58.2183 -5.734 0
    endloop
  endfacet
  facet normal 0 0 -1
    outer loop
      vertex 50.7544 -4.99887 0
      vertex 58.2183 -5.734 0
      vertex 57.3759 -11.4128 0
    endloop
  endfacet
  facet normal 0 0 -1
    outer loop
      vertex 58.5 0 0
      vertex 51 0 0
      vertex 58.2183 5.734 0
    endloop
  endfacet
  facet normal 0 0 -1
    outer loop
      vertex 50.0201 -9.94961 0
      vertex 57.3759 -11.4128 0
      vertex 55.981 -16.9817 0
    endloop
  endfacet
  facet normal 0 0 -1
    outer loop
      vertex 50.7544 4.99887 0
      vertex 58.2183 5.734 0
      vertex 51 0 0
    endloop
  endfacet
  facet normal 0 0 -1
    outer loop
      vertex 48.804 -14.8045 0
      vertex 55.981 -16.9817 0
      vertex 54.047 -22.387 0
    endloop
  endfacet
  facet normal -0 0 -1
    outer loop
      vertex 58.2183 5.734 0
      vertex 50.7544 4.99887 0
      vertex 57.3759 11.4128 0
    endloop
  endfacet
  facet normal 0 0 -1
    outer loop
      vertex 47.1179 -19.5169 0
      vertex 54.047 -22.387 0
      vertex 51.5924 -27.5767 0
    endloop
  endfacet
  facet normal 0 0 -1
    outer loop
      vertex 50.0201 9.94961 0
      vertex 57.3759 11.4128 0
      vertex 50.7544 4.99887 0
    endloop
  endfacet
  facet normal -0 0 -1
    outer loop
      vertex 57.3759 11.4128 0
      vertex 50.0201 9.94961 0
      vertex 55.981 16.9817 0
    endloop
  endfacet
  facet normal 0 0 -1
    outer loop
      vertex 58.2183 -5.734 0
      vertex 50.7544 -4.99887 0
      vertex 51 0 0
    endloop
  endfacet
  facet normal 0 0 -1
    outer loop
      vertex 57.3759 -11.4128 0
      vertex 50.0201 -9.94961 0
      vertex 50.7544 -4.99887 0
    endloop
  endfacet
  facet normal 0 0 -1
    outer loop
      vertex 55.981 -16.9817 0
      vertex 48.804 -14.8045 0
      vertex 50.0201 -9.94961 0
    endloop
  endfacet
  facet normal 0 0 -1
    outer loop
      vertex 44.978 -24.0412 0
      vertex 51.5924 -27.5767 0
      vertex 48.641 -32.5009 0
    endloop
  endfacet
  facet normal 0 0 -1
    outer loop
      vertex 54.047 -22.387 0
      vertex 47.1179 -19.5169 0
      vertex 48.804 -14.8045 0
    endloop
  endfacet
  facet normal 0 0 -1
    outer loop
      vertex 42.4049 -28.3341 0
      vertex 48.641 -32.5009 0
      vertex 45.2211 -37.112 0
    endloop
  endfacet
  facet normal 0 0 -1
    outer loop
      vertex 51.5924 -27.5767 0
      vertex 44.978 -24.0412 0
      vertex 47.1179 -19.5169 0
    endloop
  endfacet
  facet normal 0 0 -1
    outer loop
      vertex 48.641 -32.5009 0
      vertex 42.4049 -28.3341 0
      vertex 44.978 -24.0412 0
    endloop
  endfacet
  facet normal 0 0 -1
    outer loop
      vertex 39.4235 -32.3541 0
      vertex 45.2211 -37.112 0
      vertex 41.3657 -41.3657 0
    endloop
  endfacet
  facet normal 0 0 -1
    outer loop
      vertex 45.2211 -37.112 0
      vertex 39.4235 -32.3541 0
      vertex 42.4049 -28.3341 0
    endloop
  endfacet
  facet normal 0 0 -1
    outer loop
      vertex 36.0624 -36.0624 0
      vertex 41.3657 -41.3657 0
      vertex 37.112 -45.2211 0
    endloop
  endfacet
  facet normal 0 0 -1
    outer loop
      vertex 41.3657 -41.3657 0
      vertex 36.0624 -36.0624 0
      vertex 39.4235 -32.3541 0
    endloop
  endfacet
  facet normal 0 0 -1
    outer loop
      vertex 32.3541 -39.4235 0
      vertex 37.112 -45.2211 0
      vertex 32.5009 -48.641 0
    endloop
  endfacet
  facet normal 0 0 -1
    outer loop
      vertex 37.112 -45.2211 0
      vertex 32.3541 -39.4235 0
      vertex 36.0624 -36.0624 0
    endloop
  endfacet
  facet normal 0 0 -1
    outer loop
      vertex 32.5009 -48.641 0
      vertex 28.3341 -42.4049 0
      vertex 32.3541 -39.4235 0
    endloop
  endfacet
  facet normal 0 0 -1
    outer loop
      vertex 27.5767 -51.5924 0
      vertex 28.3341 -42.4049 0
      vertex 32.5009 -48.641 0
    endloop
  endfacet
  facet normal 0 0 -1
    outer loop
      vertex 27.5767 -51.5924 0
      vertex 24.0412 -44.978 0
      vertex 28.3341 -42.4049 0
    endloop
  endfacet
  facet normal 0 0 -1
    outer loop
      vertex 22.387 -54.047 0
      vertex 24.0412 -44.978 0
      vertex 27.5767 -51.5924 0
    endloop
  endfacet
  facet normal 0 0 -1
    outer loop
      vertex 22.387 -54.047 0
      vertex 19.5169 -47.1179 0
      vertex 24.0412 -44.978 0
    endloop
  endfacet
  facet normal 0 0 -1
    outer loop
      vertex 16.9817 -55.981 0
      vertex 19.5169 -47.1179 0
      vertex 22.387 -54.047 0
    endloop
  endfacet
  facet normal 0 0 -1
    outer loop
      vertex 16.9817 -55.981 0
      vertex 14.8045 -48.804 0
      vertex 19.5169 -47.1179 0
    endloop
  endfacet
  facet normal 0 0 -1
    outer loop
      vertex 11.4128 -57.3759 0
      vertex 14.8045 -48.804 0
      vertex 16.9817 -55.981 0
    endloop
  endfacet
  facet normal 0 0 -1
    outer loop
      vertex 11.4128 -57.3759 0
      vertex 9.94961 -50.0201 0
      vertex 14.8045 -48.804 0
    endloop
  endfacet
  facet normal 0 0 -1
    outer loop
      vertex 5.734 -58.2183 0
      vertex 9.94961 -50.0201 0
      vertex 11.4128 -57.3759 0
    endloop
  endfacet
  facet normal 0 0 -1
    outer loop
      vertex 5.734 -58.2183 0
      vertex 4.99887 -50.7544 0
      vertex 9.94961 -50.0201 0
    endloop
  endfacet
  facet normal 0 0 -1
    outer loop
      vertex 0 -58.5 0
      vertex 4.99887 -50.7544 0
      vertex 5.734 -58.2183 0
    endloop
  endfacet
  facet normal 0 0 -1
    outer loop
      vertex 0 -58.5 0
      vertex 0 -51 0
      vertex 4.99887 -50.7544 0
    endloop
  endfacet
  facet normal 0 0 -1
    outer loop
      vertex 0 -58.5 0
      vertex -4.99887 -50.7544 0
      vertex 0 -51 0
    endloop
  endfacet
  facet normal 0 0 -1
    outer loop
      vertex -5.734 -58.2183 0
      vertex -4.99887 -50.7544 0
      vertex 0 -58.5 0
    endloop
  endfacet
  facet normal 0 0 -1
    outer loop
      vertex -5.734 -58.2183 0
      vertex -9.94961 -50.0201 0
      vertex -4.99887 -50.7544 0
    endloop
  endfacet
  facet normal 0 0 -1
    outer loop
      vertex -11.4128 -57.3759 0
      vertex -9.94961 -50.0201 0
      vertex -5.734 -58.2183 0
    endloop
  endfacet
  facet normal 0 0 -1
    outer loop
      vertex -11.4128 -57.3759 0
      vertex -14.8045 -48.804 0
      vertex -9.94961 -50.0201 0
    endloop
  endfacet
  facet normal 0 0 -1
    outer loop
      vertex -16.9817 -55.981 0
      vertex -14.8045 -48.804 0
      vertex -11.4128 -57.3759 0
    endloop
  endfacet
  facet normal 0 0 -1
    outer loop
      vertex -16.9817 -55.981 0
      vertex -19.5169 -47.1179 0
      vertex -14.8045 -48.804 0
    endloop
  endfacet
  facet normal 0 0 -1
    outer loop
      vertex -22.387 -54.047 0
      vertex -19.5169 -47.1179 0
      vertex -16.9817 -55.981 0
    endloop
  endfacet
  facet normal 0 0 -1
    outer loop
      vertex -22.387 -54.047 0
      vertex -24.0412 -44.978 0
      vertex -19.5169 -47.1179 0
    endloop
  endfacet
  facet normal 0 0 -1
    outer loop
      vertex -27.5767 -51.5924 0
      vertex -24.0412 -44.978 0
      vertex -22.387 -54.047 0
    endloop
  endfacet
  facet normal 0 0 -1
    outer loop
      vertex -27.5767 -51.5924 0
      vertex -28.3341 -42.4049 0
      vertex -24.0412 -44.978 0
    endloop
  endfacet
  facet normal 0 0 -1
    outer loop
      vertex -32.5009 -48.641 0
      vertex -28.3341 -42.4049 0
      vertex -27.5767 -51.5924 0
    endloop
  endfacet
  facet normal -0 0 -1
    outer loop
      vertex -28.3341 -42.4049 0
      vertex -32.5009 -48.641 0
      vertex -32.3541 -39.4235 0
    endloop
  endfacet
  facet normal 0 0 -1
    outer loop
      vertex -37.112 -45.2211 0
      vertex -32.3541 -39.4235 0
      vertex -32.5009 -48.641 0
    endloop
  endfacet
  facet normal -0 0 -1
    outer loop
      vertex -32.3541 -39.4235 0
      vertex -37.112 -45.2211 0
      vertex -36.0624 -36.0624 0
    endloop
  endfacet
  facet normal 0 0 -1
    outer loop
      vertex -41.3657 -41.3657 0
      vertex -36.0624 -36.0624 0
      vertex -37.112 -45.2211 0
    endloop
  endfacet
  facet normal -0 0 -1
    outer loop
      vertex -36.0624 -36.0624 0
      vertex -41.3657 -41.3657 0
      vertex -39.4235 -32.3541 0
    endloop
  endfacet
  facet normal 0 0 -1
    outer loop
      vertex -45.2211 -37.112 0
      vertex -39.4235 -32.3541 0
      vertex -41.3657 -41.3657 0
    endloop
  endfacet
  facet normal -0 0 -1
    outer loop
      vertex -39.4235 -32.3541 0
      vertex -45.2211 -37.112 0
      vertex -42.4049 -28.3341 0
    endloop
  endfacet
  facet normal 0 0 -1
    outer loop
      vertex -48.641 -32.5009 0
      vertex -42.4049 -28.3341 0
      vertex -45.2211 -37.112 0
    endloop
  endfacet
  facet normal -0 0 -1
    outer loop
      vertex -42.4049 -28.3341 0
      vertex -48.641 -32.5009 0
      vertex -44.978 -24.0412 0
    endloop
  endfacet
  facet normal 0 0 -1
    outer loop
      vertex -51.5924 -27.5767 0
      vertex -44.978 -24.0412 0
      vertex -48.641 -32.5009 0
    endloop
  endfacet
  facet normal -0 0 -1
    outer loop
      vertex -44.978 -24.0412 0
      vertex -51.5924 -27.5767 0
      vertex -47.1179 -19.5169 0
    endloop
  endfacet
  facet normal 0 0 -1
    outer loop
      vertex -54.047 -22.387 0
      vertex -47.1179 -19.5169 0
      vertex -51.5924 -27.5767 0
    endloop
  endfacet
  facet normal -0 0 -1
    outer loop
      vertex -47.1179 -19.5169 0
      vertex -54.047 -22.387 0
      vertex -48.804 -14.8045 0
    endloop
  endfacet
  facet normal -0 0 -1
    outer loop
      vertex -48.804 -14.8045 0
      vertex -55.981 -16.9817 0
      vertex -50.0201 -9.94961 0
    endloop
  endfacet
  facet normal 0 0 -1
    outer loop
      vertex -55.981 -16.9817 0
      vertex -48.804 -14.8045 0
      vertex -54.047 -22.387 0
    endloop
  endfacet
  facet normal 0 0 -1
    outer loop
      vertex 48.804 14.8045 0
      vertex 55.981 16.9817 0
      vertex 50.0201 9.94961 0
    endloop
  endfacet
  facet normal -0 0 -1
    outer loop
      vertex 55.981 16.9817 0
      vertex 48.804 14.8045 0
      vertex 54.047 22.387 0
    endloop
  endfacet
  facet normal 0 0 -1
    outer loop
      vertex 47.1179 19.5169 0
      vertex 54.047 22.387 0
      vertex 48.804 14.8045 0
    endloop
  endfacet
  facet normal -0 0 -1
    outer loop
      vertex 54.047 22.387 0
      vertex 47.1179 19.5169 0
      vertex 51.5924 27.5767 0
    endloop
  endfacet
  facet normal 0 0 -1
    outer loop
      vertex 44.978 24.0412 0
      vertex 51.5924 27.5767 0
      vertex 47.1179 19.5169 0
    endloop
  endfacet
  facet normal -0 0 -1
    outer loop
      vertex 51.5924 27.5767 0
      vertex 44.978 24.0412 0
      vertex 48.641 32.5009 0
    endloop
  endfacet
  facet normal 0 0 -1
    outer loop
      vertex 42.4049 28.3341 0
      vertex 48.641 32.5009 0
      vertex 44.978 24.0412 0
    endloop
  endfacet
  facet normal -0 0 -1
    outer loop
      vertex 48.641 32.5009 0
      vertex 42.4049 28.3341 0
      vertex 45.2211 37.112 0
    endloop
  endfacet
  facet normal 0 0 -1
    outer loop
      vertex 39.4235 32.3541 0
      vertex 45.2211 37.112 0
      vertex 42.4049 28.3341 0
    endloop
  endfacet
  facet normal -0 0 -1
    outer loop
      vertex 45.2211 37.112 0
      vertex 39.4235 32.3541 0
      vertex 41.3657 41.3657 0
    endloop
  endfacet
  facet normal 0 0 -1
    outer loop
      vertex 36.0624 36.0624 0
      vertex 41.3657 41.3657 0
      vertex 39.4235 32.3541 0
    endloop
  endfacet
  facet normal -0 0 -1
    outer loop
      vertex 41.3657 41.3657 0
      vertex 36.0624 36.0624 0
      vertex 37.112 45.2211 0
    endloop
  endfacet
  facet normal 0 0 -1
    outer loop
      vertex 32.3541 39.4235 0
      vertex 37.112 45.2211 0
      vertex 36.0624 36.0624 0
    endloop
  endfacet
  facet normal -0 0 -1
    outer loop
      vertex 37.112 45.2211 0
      vertex 32.3541 39.4235 0
      vertex 32.5009 48.641 0
    endloop
  endfacet
  facet normal 0 0 -1
    outer loop
      vertex 28.3341 42.4049 0
      vertex 32.5009 48.641 0
      vertex 32.3541 39.4235 0
    endloop
  endfacet
  facet normal 0 0 -1
    outer loop
      vertex 28.3341 42.4049 0
      vertex 27.5767 51.5924 0
      vertex 32.5009 48.641 0
    endloop
  endfacet
  facet normal 0 0 -1
    outer loop
      vertex 24.0412 44.978 0
      vertex 27.5767 51.5924 0
      vertex 28.3341 42.4049 0
    endloop
  endfacet
  facet normal 0 0 -1
    outer loop
      vertex 24.0412 44.978 0
      vertex 22.387 54.047 0
      vertex 27.5767 51.5924 0
    endloop
  endfacet
  facet normal 0 0 -1
    outer loop
      vertex 19.5169 47.1179 0
      vertex 22.387 54.047 0
      vertex 24.0412 44.978 0
    endloop
  endfacet
  facet normal 0 0 -1
    outer loop
      vertex 19.5169 47.1179 0
      vertex 16.9817 55.981 0
      vertex 22.387 54.047 0
    endloop
  endfacet
  facet normal 0 0 -1
    outer loop
      vertex 14.8045 48.804 0
      vertex 16.9817 55.981 0
      vertex 19.5169 47.1179 0
    endloop
  endfacet
  facet normal 0 0 -1
    outer loop
      vertex 14.8045 48.804 0
      vertex 11.4128 57.3759 0
      vertex 16.9817 55.981 0
    endloop
  endfacet
  facet normal 0 0 -1
    outer loop
      vertex 9.94961 50.0201 0
      vertex 11.4128 57.3759 0
      vertex 14.8045 48.804 0
    endloop
  endfacet
  facet normal 0 0 -1
    outer loop
      vertex 9.94961 50.0201 0
      vertex 5.734 58.2183 0
      vertex 11.4128 57.3759 0
    endloop
  endfacet
  facet normal 0 0 -1
    outer loop
      vertex 4.99887 50.7544 0
      vertex 5.734 58.2183 0
      vertex 9.94961 50.0201 0
    endloop
  endfacet
  facet normal 0 0 -1
    outer loop
      vertex 0 51 0
      vertex 5.734 58.2183 0
      vertex 4.99887 50.7544 0
    endloop
  endfacet
  facet normal 0 0 -1
    outer loop
      vertex 0 51 0
      vertex 0 58.5 0
      vertex 5.734 58.2183 0
    endloop
  endfacet
  facet normal 0 0 -1
    outer loop
      vertex -4.99887 50.7544 0
      vertex 0 58.5 0
      vertex 0 51 0
    endloop
  endfacet
  facet normal 0 0 -1
    outer loop
      vertex -4.99887 50.7544 0
      vertex -5.734 58.2183 0
      vertex 0 58.5 0
    endloop
  endfacet
  facet normal 0 0 -1
    outer loop
      vertex -9.94961 50.0201 0
      vertex -5.734 58.2183 0
      vertex -4.99887 50.7544 0
    endloop
  endfacet
  facet normal 0 0 -1
    outer loop
      vertex -9.94961 50.0201 0
      vertex -11.4128 57.3759 0
      vertex -5.734 58.2183 0
    endloop
  endfacet
  facet normal 0 0 -1
    outer loop
      vertex -14.8045 48.804 0
      vertex -11.4128 57.3759 0
      vertex -9.94961 50.0201 0
    endloop
  endfacet
  facet normal 0 0 -1
    outer loop
      vertex -14.8045 48.804 0
      vertex -16.9817 55.981 0
      vertex -11.4128 57.3759 0
    endloop
  endfacet
  facet normal 0 0 -1
    outer loop
      vertex -19.5169 47.1179 0
      vertex -16.9817 55.981 0
      vertex -14.8045 48.804 0
    endloop
  endfacet
  facet normal 0 0 -1
    outer loop
      vertex -19.5169 47.1179 0
      vertex -22.387 54.047 0
      vertex -16.9817 55.981 0
    endloop
  endfacet
  facet normal 0 0 -1
    outer loop
      vertex -24.0412 44.978 0
      vertex -22.387 54.047 0
      vertex -19.5169 47.1179 0
    endloop
  endfacet
  facet normal 0 0 -1
    outer loop
      vertex -24.0412 44.978 0
      vertex -27.5767 51.5924 0
      vertex -22.387 54.047 0
    endloop
  endfacet
  facet normal 0 0 -1
    outer loop
      vertex -28.3341 42.4049 0
      vertex -27.5767 51.5924 0
      vertex -24.0412 44.978 0
    endloop
  endfacet
  facet normal 0 0 -1
    outer loop
      vertex -32.5009 48.641 0
      vertex -28.3341 42.4049 0
      vertex -32.3541 39.4235 0
    endloop
  endfacet
  facet normal 0 0 -1
    outer loop
      vertex -28.3341 42.4049 0
      vertex -32.5009 48.641 0
      vertex -27.5767 51.5924 0
    endloop
  endfacet
  facet normal 0 0 -1
    outer loop
      vertex -37.112 45.2211 0
      vertex -32.3541 39.4235 0
      vertex -36.0624 36.0624 0
    endloop
  endfacet
  facet normal 0 0 -1
    outer loop
      vertex -32.3541 39.4235 0
      vertex -37.112 45.2211 0
      vertex -32.5009 48.641 0
    endloop
  endfacet
  facet normal 0 0 -1
    outer loop
      vertex -41.3657 41.3657 0
      vertex -36.0624 36.0624 0
      vertex -39.4235 32.3541 0
    endloop
  endfacet
  facet normal 0 0 -1
    outer loop
      vertex -36.0624 36.0624 0
      vertex -41.3657 41.3657 0
      vertex -37.112 45.2211 0
    endloop
  endfacet
  facet normal 0 0 -1
    outer loop
      vertex -45.2211 37.112 0
      vertex -39.4235 32.3541 0
      vertex -42.4049 28.3341 0
    endloop
  endfacet
  facet normal 0 0 -1
    outer loop
      vertex -48.641 32.5009 0
      vertex -42.4049 28.3341 0
      vertex -44.978 24.0412 0
    endloop
  endfacet
  facet normal 0 0 -1
    outer loop
      vertex -39.4235 32.3541 0
      vertex -45.2211 37.112 0
      vertex -41.3657 41.3657 0
    endloop
  endfacet
  facet normal 0 0 -1
    outer loop
      vertex -51.5924 27.5767 0
      vertex -44.978 24.0412 0
      vertex -47.1179 19.5169 0
    endloop
  endfacet
  facet normal 0 0 -1
    outer loop
      vertex -42.4049 28.3341 0
      vertex -48.641 32.5009 0
      vertex -45.2211 37.112 0
    endloop
  endfacet
  facet normal 0 0 -1
    outer loop
      vertex -54.047 22.387 0
      vertex -47.1179 19.5169 0
      vertex -48.804 14.8045 0
    endloop
  endfacet
  facet normal 0 0 -1
    outer loop
      vertex -55.981 16.9817 0
      vertex -48.804 14.8045 0
      vertex -50.0201 9.94961 0
    endloop
  endfacet
  facet normal 0 0 -1
    outer loop
      vertex -57.3759 11.4128 0
      vertex -50.0201 9.94961 0
      vertex -50.7544 4.99887 0
    endloop
  endfacet
  facet normal 0 0 -1
    outer loop
      vertex -44.978 24.0412 0
      vertex -51.5924 27.5767 0
      vertex -48.641 32.5009 0
    endloop
  endfacet
  facet normal 0 0 -1
    outer loop
      vertex -58.2183 5.734 0
      vertex -50.7544 4.99887 0
      vertex -51 0 0
    endloop
  endfacet
  facet normal 0 0 -1
    outer loop
      vertex -57.3759 -11.4128 0
      vertex -50.0201 -9.94961 0
      vertex -55.981 -16.9817 0
    endloop
  endfacet
  facet normal -0 0 -1
    outer loop
      vertex -50.0201 -9.94961 0
      vertex -57.3759 -11.4128 0
      vertex -50.7544 -4.99887 0
    endloop
  endfacet
  facet normal 0 0 -1
    outer loop
      vertex -47.1179 19.5169 0
      vertex -54.047 22.387 0
      vertex -51.5924 27.5767 0
    endloop
  endfacet
  facet normal 0 0 -1
    outer loop
      vertex -58.2183 -5.734 0
      vertex -50.7544 -4.99887 0
      vertex -57.3759 -11.4128 0
    endloop
  endfacet
  facet normal 0 0 -1
    outer loop
      vertex -48.804 14.8045 0
      vertex -55.981 16.9817 0
      vertex -54.047 22.387 0
    endloop
  endfacet
  facet normal -0 0 -1
    outer loop
      vertex -50.7544 -4.99887 0
      vertex -58.2183 -5.734 0
      vertex -51 0 0
    endloop
  endfacet
  facet normal 0 0 -1
    outer loop
      vertex -50.0201 9.94961 0
      vertex -57.3759 11.4128 0
      vertex -55.981 16.9817 0
    endloop
  endfacet
  facet normal 0 0 -1
    outer loop
      vertex -58.5 0 0
      vertex -51 0 0
      vertex -58.2183 -5.734 0
    endloop
  endfacet
  facet normal 0 0 -1
    outer loop
      vertex -50.7544 4.99887 0
      vertex -58.2183 5.734 0
      vertex -57.3759 11.4128 0
    endloop
  endfacet
  facet normal 0 0 -1
    outer loop
      vertex -51 0 0
      vertex -58.5 0 0
      vertex -58.2183 5.734 0
    endloop
  endfacet
  facet normal -0.740951 -0.671559 0
    outer loop
      vertex -41.3657 -41.3657 0
      vertex -45.2211 -37.112 2
      vertex -45.2211 -37.112 0
    endloop
  endfacet
  facet normal -0.740951 -0.671559 0
    outer loop
      vertex -45.2211 -37.112 2
      vertex -41.3657 -41.3657 0
      vertex -41.3657 -41.3657 2
    endloop
  endfacet
  facet normal 0.989176 0.146731 0
    outer loop
      vertex 58.2183 5.734 2
      vertex 57.3759 11.4128 0
      vertex 57.3759 11.4128 2
    endloop
  endfacet
  facet normal 0.989176 0.146731 0
    outer loop
      vertex 57.3759 11.4128 0
      vertex 58.2183 5.734 2
      vertex 58.2183 5.734 0
    endloop
  endfacet
  facet normal 0.970031 0.24298 0
    outer loop
      vertex 57.3759 11.4128 2
      vertex 55.981 16.9817 0
      vertex 55.981 16.9817 2
    endloop
  endfacet
  facet normal 0.970031 0.24298 0
    outer loop
      vertex 55.981 16.9817 0
      vertex 57.3759 11.4128 2
      vertex 57.3759 11.4128 0
    endloop
  endfacet
  facet normal 0.941544 0.33689 0
    outer loop
      vertex 55.981 16.9817 2
      vertex 54.047 22.387 0
      vertex 54.047 22.387 2
    endloop
  endfacet
  facet normal 0.941544 0.33689 0
    outer loop
      vertex 54.047 22.387 0
      vertex 55.981 16.9817 2
      vertex 55.981 16.9817 0
    endloop
  endfacet
  facet normal 0.803208 0.595699 0
    outer loop
      vertex 48.641 32.5009 2
      vertex 45.2211 37.112 0
      vertex 45.2211 37.112 2
    endloop
  endfacet
  facet normal 0.803208 0.595699 0
    outer loop
      vertex 45.2211 37.112 0
      vertex 48.641 32.5009 2
      vertex 48.641 32.5009 0
    endloop
  endfacet
  facet normal 0.740951 0.671559 0
    outer loop
      vertex 45.2211 37.112 2
      vertex 41.3657 41.3657 0
      vertex 41.3657 41.3657 2
    endloop
  endfacet
  facet normal 0.740951 0.671559 0
    outer loop
      vertex 41.3657 41.3657 0
      vertex 45.2211 37.112 2
      vertex 45.2211 37.112 0
    endloop
  endfacet
  facet normal 0.595699 0.803208 -0
    outer loop
      vertex 37.112 45.2211 0
      vertex 32.5009 48.641 2
      vertex 37.112 45.2211 2
    endloop
  endfacet
  facet normal 0.595699 0.803208 0
    outer loop
      vertex 32.5009 48.641 2
      vertex 37.112 45.2211 0
      vertex 32.5009 48.641 0
    endloop
  endfacet
  facet normal 0.0490675 0.998795 -0
    outer loop
      vertex 5.734 58.2183 0
      vertex 0 58.5 2
      vertex 5.734 58.2183 2
    endloop
  endfacet
  facet normal 0.0490675 0.998795 0
    outer loop
      vertex 0 58.5 2
      vertex 5.734 58.2183 0
      vertex 0 58.5 0
    endloop
  endfacet
  facet normal 0.514103 0.857729 -0
    outer loop
      vertex 32.5009 48.641 0
      vertex 27.5767 51.5924 2
      vertex 32.5009 48.641 2
    endloop
  endfacet
  facet normal 0.514103 0.857729 0
    outer loop
      vertex 27.5767 51.5924 2
      vertex 32.5009 48.641 0
      vertex 27.5767 51.5924 0
    endloop
  endfacet
  facet normal 0.33689 0.941544 -0
    outer loop
      vertex 22.387 54.047 0
      vertex 16.9817 55.981 2
      vertex 22.387 54.047 2
    endloop
  endfacet
  facet normal 0.33689 0.941544 0
    outer loop
      vertex 16.9817 55.981 2
      vertex 22.387 54.047 0
      vertex 16.9817 55.981 0
    endloop
  endfacet
  facet normal 0.24298 0.970031 -0
    outer loop
      vertex 16.9817 55.981 0
      vertex 11.4128 57.3759 2
      vertex 16.9817 55.981 2
    endloop
  endfacet
  facet normal 0.24298 0.970031 0
    outer loop
      vertex 11.4128 57.3759 2
      vertex 16.9817 55.981 0
      vertex 11.4128 57.3759 0
    endloop
  endfacet
  facet normal -0.998795 0.0490675 0
    outer loop
      vertex -58.5 0 0
      vertex -58.2183 5.734 2
      vertex -58.2183 5.734 0
    endloop
  endfacet
  facet normal -0.998795 0.0490675 0
    outer loop
      vertex -58.2183 5.734 2
      vertex -58.5 0 0
      vertex -58.5 0 2
    endloop
  endfacet
  facet normal 0 0 1
    outer loop
      vertex 51 0 2
      vertex 58.5 0 2
      vertex 58.2183 5.734 2
    endloop
  endfacet
  facet normal 0 0 1
    outer loop
      vertex 50.7544 4.99887 2
      vertex 58.2183 5.734 2
      vertex 57.3759 11.4128 2
    endloop
  endfacet
  facet normal 0 0 1
    outer loop
      vertex 58.5 0 2
      vertex 51 0 2
      vertex 58.2183 -5.734 2
    endloop
  endfacet
  facet normal 0 0 1
    outer loop
      vertex 50.0201 9.94961 2
      vertex 57.3759 11.4128 2
      vertex 55.981 16.9817 2
    endloop
  endfacet
  facet normal -0 0 1
    outer loop
      vertex 50.7544 -4.99887 2
      vertex 58.2183 -5.734 2
      vertex 51 0 2
    endloop
  endfacet
  facet normal 0 0 1
    outer loop
      vertex 48.804 14.8045 2
      vertex 55.981 16.9817 2
      vertex 54.047 22.387 2
    endloop
  endfacet
  facet normal 0 0 1
    outer loop
      vertex 58.2183 -5.734 2
      vertex 50.7544 -4.99887 2
      vertex 57.3759 -11.4128 2
    endloop
  endfacet
  facet normal 0 0 1
    outer loop
      vertex 47.1179 19.5169 2
      vertex 54.047 22.387 2
      vertex 51.5924 27.5767 2
    endloop
  endfacet
  facet normal -0 0 1
    outer loop
      vertex 50.0201 -9.94961 2
      vertex 57.3759 -11.4128 2
      vertex 50.7544 -4.99887 2
    endloop
  endfacet
  facet normal 0 0 1
    outer loop
      vertex 57.3759 -11.4128 2
      vertex 50.0201 -9.94961 2
      vertex 55.981 -16.9817 2
    endloop
  endfacet
  facet normal 0 0 1
    outer loop
      vertex 58.2183 5.734 2
      vertex 50.7544 4.99887 2
      vertex 51 0 2
    endloop
  endfacet
  facet normal 0 0 1
    outer loop
      vertex 57.3759 11.4128 2
      vertex 50.0201 9.94961 2
      vertex 50.7544 4.99887 2
    endloop
  endfacet
  facet normal 0 0 1
    outer loop
      vertex 55.981 16.9817 2
      vertex 48.804 14.8045 2
      vertex 50.0201 9.94961 2
    endloop
  endfacet
  facet normal 0 0 1
    outer loop
      vertex 44.978 24.0412 2
      vertex 51.5924 27.5767 2
      vertex 48.641 32.5009 2
    endloop
  endfacet
  facet normal 0 0 1
    outer loop
      vertex 54.047 22.387 2
      vertex 47.1179 19.5169 2
      vertex 48.804 14.8045 2
    endloop
  endfacet
  facet normal 0 0 1
    outer loop
      vertex 42.4049 28.3341 2
      vertex 48.641 32.5009 2
      vertex 45.2211 37.112 2
    endloop
  endfacet
  facet normal 0 0 1
    outer loop
      vertex 51.5924 27.5767 2
      vertex 44.978 24.0412 2
      vertex 47.1179 19.5169 2
    endloop
  endfacet
  facet normal 0 0 1
    outer loop
      vertex 48.641 32.5009 2
      vertex 42.4049 28.3341 2
      vertex 44.978 24.0412 2
    endloop
  endfacet
  facet normal 0 0 1
    outer loop
      vertex 39.4235 32.3541 2
      vertex 45.2211 37.112 2
      vertex 41.3657 41.3657 2
    endloop
  endfacet
  facet normal 0 0 1
    outer loop
      vertex 45.2211 37.112 2
      vertex 39.4235 32.3541 2
      vertex 42.4049 28.3341 2
    endloop
  endfacet
  facet normal 0 0 1
    outer loop
      vertex 36.0624 36.0624 2
      vertex 41.3657 41.3657 2
      vertex 37.112 45.2211 2
    endloop
  endfacet
  facet normal 0 0 1
    outer loop
      vertex 41.3657 41.3657 2
      vertex 36.0624 36.0624 2
      vertex 39.4235 32.3541 2
    endloop
  endfacet
  facet normal 0 0 1
    outer loop
      vertex 32.3541 39.4235 2
      vertex 37.112 45.2211 2
      vertex 32.5009 48.641 2
    endloop
  endfacet
  facet normal 0 0 1
    outer loop
      vertex 37.112 45.2211 2
      vertex 32.3541 39.4235 2
      vertex 36.0624 36.0624 2
    endloop
  endfacet
  facet normal 0 0 1
    outer loop
      vertex 32.5009 48.641 2
      vertex 28.3341 42.4049 2
      vertex 32.3541 39.4235 2
    endloop
  endfacet
  facet normal 0 0 1
    outer loop
      vertex 27.5767 51.5924 2
      vertex 28.3341 42.4049 2
      vertex 32.5009 48.641 2
    endloop
  endfacet
  facet normal 0 0 1
    outer loop
      vertex 27.5767 51.5924 2
      vertex 24.0412 44.978 2
      vertex 28.3341 42.4049 2
    endloop
  endfacet
  facet normal 0 0 1
    outer loop
      vertex 22.387 54.047 2
      vertex 24.0412 44.978 2
      vertex 27.5767 51.5924 2
    endloop
  endfacet
  facet normal 0 0 1
    outer loop
      vertex 22.387 54.047 2
      vertex 19.5169 47.1179 2
      vertex 24.0412 44.978 2
    endloop
  endfacet
  facet normal 0 0 1
    outer loop
      vertex 16.9817 55.981 2
      vertex 19.5169 47.1179 2
      vertex 22.387 54.047 2
    endloop
  endfacet
  facet normal 0 0 1
    outer loop
      vertex 16.9817 55.981 2
      vertex 14.8045 48.804 2
      vertex 19.5169 47.1179 2
    endloop
  endfacet
  facet normal 0 0 1
    outer loop
      vertex 11.4128 57.3759 2
      vertex 14.8045 48.804 2
      vertex 16.9817 55.981 2
    endloop
  endfacet
  facet normal 0 0 1
    outer loop
      vertex 11.4128 57.3759 2
      vertex 9.94961 50.0201 2
      vertex 14.8045 48.804 2
    endloop
  endfacet
  facet normal 0 0 1
    outer loop
      vertex 5.734 58.2183 2
      vertex 9.94961 50.0201 2
      vertex 11.4128 57.3759 2
    endloop
  endfacet
  facet normal 0 0 1
    outer loop
      vertex 5.734 58.2183 2
      vertex 4.99887 50.7544 2
      vertex 9.94961 50.0201 2
    endloop
  endfacet
  facet normal 0 0 1
    outer loop
      vertex 0 58.5 2
      vertex 4.99887 50.7544 2
      vertex 5.734 58.2183 2
    endloop
  endfacet
  facet normal 0 0 1
    outer loop
      vertex 0 58.5 2
      vertex 0 51 2
      vertex 4.99887 50.7544 2
    endloop
  endfacet
  facet normal 0 0 1
    outer loop
      vertex 0 58.5 2
      vertex -4.99887 50.7544 2
      vertex 0 51 2
    endloop
  endfacet
  facet normal -0 0 1
    outer loop
      vertex -5.734 58.2183 2
      vertex -4.99887 50.7544 2
      vertex 0 58.5 2
    endloop
  endfacet
  facet normal 0 0 1
    outer loop
      vertex -5.734 58.2183 2
      vertex -9.94961 50.0201 2
      vertex -4.99887 50.7544 2
    endloop
  endfacet
  facet normal -0 0 1
    outer loop
      vertex -11.4128 57.3759 2
      vertex -9.94961 50.0201 2
      vertex -5.734 58.2183 2
    endloop
  endfacet
  facet normal 0 0 1
    outer loop
      vertex -11.4128 57.3759 2
      vertex -14.8045 48.804 2
      vertex -9.94961 50.0201 2
    endloop
  endfacet
  facet normal -0 0 1
    outer loop
      vertex -16.9817 55.981 2
      vertex -14.8045 48.804 2
      vertex -11.4128 57.3759 2
    endloop
  endfacet
  facet normal 0 0 1
    outer loop
      vertex -16.9817 55.981 2
      vertex -19.5169 47.1179 2
      vertex -14.8045 48.804 2
    endloop
  endfacet
  facet normal -0 0 1
    outer loop
      vertex -22.387 54.047 2
      vertex -19.5169 47.1179 2
      vertex -16.9817 55.981 2
    endloop
  endfacet
  facet normal 0 0 1
    outer loop
      vertex -22.387 54.047 2
      vertex -24.0412 44.978 2
      vertex -19.5169 47.1179 2
    endloop
  endfacet
  facet normal -0 0 1
    outer loop
      vertex -27.5767 51.5924 2
      vertex -24.0412 44.978 2
      vertex -22.387 54.047 2
    endloop
  endfacet
  facet normal 0 0 1
    outer loop
      vertex -27.5767 51.5924 2
      vertex -28.3341 42.4049 2
      vertex -24.0412 44.978 2
    endloop
  endfacet
  facet normal -0 0 1
    outer loop
      vertex -32.5009 48.641 2
      vertex -28.3341 42.4049 2
      vertex -27.5767 51.5924 2
    endloop
  endfacet
  facet normal 0 0 1
    outer loop
      vertex -28.3341 42.4049 2
      vertex -32.5009 48.641 2
      vertex -32.3541 39.4235 2
    endloop
  endfacet
  facet normal -0 0 1
    outer loop
      vertex -37.112 45.2211 2
      vertex -32.3541 39.4235 2
      vertex -32.5009 48.641 2
    endloop
  endfacet
  facet normal 0 0 1
    outer loop
      vertex -32.3541 39.4235 2
      vertex -37.112 45.2211 2
      vertex -36.0624 36.0624 2
    endloop
  endfacet
  facet normal -0 0 1
    outer loop
      vertex -41.3657 41.3657 2
      vertex -36.0624 36.0624 2
      vertex -37.112 45.2211 2
    endloop
  endfacet
  facet normal 0 0 1
    outer loop
      vertex -36.0624 36.0624 2
      vertex -41.3657 41.3657 2
      vertex -39.4235 32.3541 2
    endloop
  endfacet
  facet normal -0 0 1
    outer loop
      vertex -45.2211 37.112 2
      vertex -39.4235 32.3541 2
      vertex -41.3657 41.3657 2
    endloop
  endfacet
  facet normal 0 0 1
    outer loop
      vertex -39.4235 32.3541 2
      vertex -45.2211 37.112 2
      vertex -42.4049 28.3341 2
    endloop
  endfacet
  facet normal -0 0 1
    outer loop
      vertex -48.641 32.5009 2
      vertex -42.4049 28.3341 2
      vertex -45.2211 37.112 2
    endloop
  endfacet
  facet normal 0 0 1
    outer loop
      vertex -42.4049 28.3341 2
      vertex -48.641 32.5009 2
      vertex -44.978 24.0412 2
    endloop
  endfacet
  facet normal -0 0 1
    outer loop
      vertex -51.5924 27.5767 2
      vertex -44.978 24.0412 2
      vertex -48.641 32.5009 2
    endloop
  endfacet
  facet normal 0 0 1
    outer loop
      vertex -44.978 24.0412 2
      vertex -51.5924 27.5767 2
      vertex -47.1179 19.5169 2
    endloop
  endfacet
  facet normal -0 0 1
    outer loop
      vertex -54.047 22.387 2
      vertex -47.1179 19.5169 2
      vertex -51.5924 27.5767 2
    endloop
  endfacet
  facet normal 0 0 1
    outer loop
      vertex -47.1179 19.5169 2
      vertex -54.047 22.387 2
      vertex -48.804 14.8045 2
    endloop
  endfacet
  facet normal 0 0 1
    outer loop
      vertex -48.804 14.8045 2
      vertex -55.981 16.9817 2
      vertex -50.0201 9.94961 2
    endloop
  endfacet
  facet normal -0 0 1
    outer loop
      vertex -55.981 16.9817 2
      vertex -48.804 14.8045 2
      vertex -54.047 22.387 2
    endloop
  endfacet
  facet normal -0 0 1
    outer loop
      vertex 48.804 -14.8045 2
      vertex 55.981 -16.9817 2
      vertex 50.0201 -9.94961 2
    endloop
  endfacet
  facet normal 0 0 1
    outer loop
      vertex 55.981 -16.9817 2
      vertex 48.804 -14.8045 2
      vertex 54.047 -22.387 2
    endloop
  endfacet
  facet normal -0 0 1
    outer loop
      vertex 47.1179 -19.5169 2
      vertex 54.047 -22.387 2
      vertex 48.804 -14.8045 2
    endloop
  endfacet
  facet normal 0 0 1
    outer loop
      vertex 54.047 -22.387 2
      vertex 47.1179 -19.5169 2
      vertex 51.5924 -27.5767 2
    endloop
  endfacet
  facet normal -0 0 1
    outer loop
      vertex 44.978 -24.0412 2
      vertex 51.5924 -27.5767 2
      vertex 47.1179 -19.5169 2
    endloop
  endfacet
  facet normal 0 0 1
    outer loop
      vertex 51.5924 -27.5767 2
      vertex 44.978 -24.0412 2
      vertex 48.641 -32.5009 2
    endloop
  endfacet
  facet normal -0 0 1
    outer loop
      vertex 42.4049 -28.3341 2
      vertex 48.641 -32.5009 2
      vertex 44.978 -24.0412 2
    endloop
  endfacet
  facet normal 0 0 1
    outer loop
      vertex 48.641 -32.5009 2
      vertex 42.4049 -28.3341 2
      vertex 45.2211 -37.112 2
    endloop
  endfacet
  facet normal -0 0 1
    outer loop
      vertex 39.4235 -32.3541 2
      vertex 45.2211 -37.112 2
      vertex 42.4049 -28.3341 2
    endloop
  endfacet
  facet normal 0 0 1
    outer loop
      vertex 45.2211 -37.112 2
      vertex 39.4235 -32.3541 2
      vertex 41.3657 -41.3657 2
    endloop
  endfacet
  facet normal -0 0 1
    outer loop
      vertex 36.0624 -36.0624 2
      vertex 41.3657 -41.3657 2
      vertex 39.4235 -32.3541 2
    endloop
  endfacet
  facet normal 0 0 1
    outer loop
      vertex 41.3657 -41.3657 2
      vertex 36.0624 -36.0624 2
      vertex 37.112 -45.2211 2
    endloop
  endfacet
  facet normal -0 0 1
    outer loop
      vertex 32.3541 -39.4235 2
      vertex 37.112 -45.2211 2
      vertex 36.0624 -36.0624 2
    endloop
  endfacet
  facet normal 0 0 1
    outer loop
      vertex 37.112 -45.2211 2
      vertex 32.3541 -39.4235 2
      vertex 32.5009 -48.641 2
    endloop
  endfacet
  facet normal -0 0 1
    outer loop
      vertex 28.3341 -42.4049 2
      vertex 32.5009 -48.641 2
      vertex 32.3541 -39.4235 2
    endloop
  endfacet
  facet normal 0 0 1
    outer loop
      vertex 28.3341 -42.4049 2
      vertex 27.5767 -51.5924 2
      vertex 32.5009 -48.641 2
    endloop
  endfacet
  facet normal -0 0 1
    outer loop
      vertex 24.0412 -44.978 2
      vertex 27.5767 -51.5924 2
      vertex 28.3341 -42.4049 2
    endloop
  endfacet
  facet normal 0 0 1
    outer loop
      vertex 24.0412 -44.978 2
      vertex 22.387 -54.047 2
      vertex 27.5767 -51.5924 2
    endloop
  endfacet
  facet normal -0 0 1
    outer loop
      vertex 19.5169 -47.1179 2
      vertex 22.387 -54.047 2
      vertex 24.0412 -44.978 2
    endloop
  endfacet
  facet normal 0 0 1
    outer loop
      vertex 19.5169 -47.1179 2
      vertex 16.9817 -55.981 2
      vertex 22.387 -54.047 2
    endloop
  endfacet
  facet normal -0 0 1
    outer loop
      vertex 14.8045 -48.804 2
      vertex 16.9817 -55.981 2
      vertex 19.5169 -47.1179 2
    endloop
  endfacet
  facet normal 0 0 1
    outer loop
      vertex 14.8045 -48.804 2
      vertex 11.4128 -57.3759 2
      vertex 16.9817 -55.981 2
    endloop
  endfacet
  facet normal -0 0 1
    outer loop
      vertex 9.94961 -50.0201 2
      vertex 11.4128 -57.3759 2
      vertex 14.8045 -48.804 2
    endloop
  endfacet
  facet normal 0 0 1
    outer loop
      vertex 9.94961 -50.0201 2
      vertex 5.734 -58.2183 2
      vertex 11.4128 -57.3759 2
    endloop
  endfacet
  facet normal -0 0 1
    outer loop
      vertex 4.99887 -50.7544 2
      vertex 5.734 -58.2183 2
      vertex 9.94961 -50.0201 2
    endloop
  endfacet
  facet normal -0 0 1
    outer loop
      vertex 0 -51 2
      vertex 5.734 -58.2183 2
      vertex 4.99887 -50.7544 2
    endloop
  endfacet
  facet normal 0 0 1
    outer loop
      vertex 0 -51 2
      vertex 0 -58.5 2
      vertex 5.734 -58.2183 2
    endloop
  endfacet
  facet normal 0 0 1
    outer loop
      vertex -4.99887 -50.7544 2
      vertex 0 -58.5 2
      vertex 0 -51 2
    endloop
  endfacet
  facet normal 0 0 1
    outer loop
      vertex -4.99887 -50.7544 2
      vertex -5.734 -58.2183 2
      vertex 0 -58.5 2
    endloop
  endfacet
  facet normal 0 0 1
    outer loop
      vertex -9.94961 -50.0201 2
      vertex -5.734 -58.2183 2
      vertex -4.99887 -50.7544 2
    endloop
  endfacet
  facet normal 0 0 1
    outer loop
      vertex -9.94961 -50.0201 2
      vertex -11.4128 -57.3759 2
      vertex -5.734 -58.2183 2
    endloop
  endfacet
  facet normal 0 0 1
    outer loop
      vertex -14.8045 -48.804 2
      vertex -11.4128 -57.3759 2
      vertex -9.94961 -50.0201 2
    endloop
  endfacet
  facet normal 0 0 1
    outer loop
      vertex -14.8045 -48.804 2
      vertex -16.9817 -55.981 2
      vertex -11.4128 -57.3759 2
    endloop
  endfacet
  facet normal 0 0 1
    outer loop
      vertex -19.5169 -47.1179 2
      vertex -16.9817 -55.981 2
      vertex -14.8045 -48.804 2
    endloop
  endfacet
  facet normal 0 0 1
    outer loop
      vertex -19.5169 -47.1179 2
      vertex -22.387 -54.047 2
      vertex -16.9817 -55.981 2
    endloop
  endfacet
  facet normal 0 0 1
    outer loop
      vertex -24.0412 -44.978 2
      vertex -22.387 -54.047 2
      vertex -19.5169 -47.1179 2
    endloop
  endfacet
  facet normal 0 0 1
    outer loop
      vertex -24.0412 -44.978 2
      vertex -27.5767 -51.5924 2
      vertex -22.387 -54.047 2
    endloop
  endfacet
  facet normal 0 0 1
    outer loop
      vertex -28.3341 -42.4049 2
      vertex -27.5767 -51.5924 2
      vertex -24.0412 -44.978 2
    endloop
  endfacet
  facet normal 0 0 1
    outer loop
      vertex -32.5009 -48.641 2
      vertex -28.3341 -42.4049 2
      vertex -32.3541 -39.4235 2
    endloop
  endfacet
  facet normal 0 0 1
    outer loop
      vertex -28.3341 -42.4049 2
      vertex -32.5009 -48.641 2
      vertex -27.5767 -51.5924 2
    endloop
  endfacet
  facet normal 0 0 1
    outer loop
      vertex -37.112 -45.2211 2
      vertex -32.3541 -39.4235 2
      vertex -36.0624 -36.0624 2
    endloop
  endfacet
  facet normal 0 0 1
    outer loop
      vertex -32.3541 -39.4235 2
      vertex -37.112 -45.2211 2
      vertex -32.5009 -48.641 2
    endloop
  endfacet
  facet normal 0 0 1
    outer loop
      vertex -41.3657 -41.3657 2
      vertex -36.0624 -36.0624 2
      vertex -39.4235 -32.3541 2
    endloop
  endfacet
  facet normal 0 0 1
    outer loop
      vertex -36.0624 -36.0624 2
      vertex -41.3657 -41.3657 2
      vertex -37.112 -45.2211 2
    endloop
  endfacet
  facet normal 0 0 1
    outer loop
      vertex -45.2211 -37.112 2
      vertex -39.4235 -32.3541 2
      vertex -42.4049 -28.3341 2
    endloop
  endfacet
  facet normal 0 0 1
    outer loop
      vertex -48.641 -32.5009 2
      vertex -42.4049 -28.3341 2
      vertex -44.978 -24.0412 2
    endloop
  endfacet
  facet normal 0 0 1
    outer loop
      vertex -39.4235 -32.3541 2
      vertex -45.2211 -37.112 2
      vertex -41.3657 -41.3657 2
    endloop
  endfacet
  facet normal 0 0 1
    outer loop
      vertex -51.5924 -27.5767 2
      vertex -44.978 -24.0412 2
      vertex -47.1179 -19.5169 2
    endloop
  endfacet
  facet normal 0 0 1
    outer loop
      vertex -42.4049 -28.3341 2
      vertex -48.641 -32.5009 2
      vertex -45.2211 -37.112 2
    endloop
  endfacet
  facet normal 0 0 1
    outer loop
      vertex -54.047 -22.387 2
      vertex -47.1179 -19.5169 2
      vertex -48.804 -14.8045 2
    endloop
  endfacet
  facet normal 0 0 1
    outer loop
      vertex -55.981 -16.9817 2
      vertex -48.804 -14.8045 2
      vertex -50.0201 -9.94961 2
    endloop
  endfacet
  facet normal 0 0 1
    outer loop
      vertex -57.3759 -11.4128 2
      vertex -50.0201 -9.94961 2
      vertex -50.7544 -4.99887 2
    endloop
  endfacet
  facet normal 0 0 1
    outer loop
      vertex -44.978 -24.0412 2
      vertex -51.5924 -27.5767 2
      vertex -48.641 -32.5009 2
    endloop
  endfacet
  facet normal 0 0 1
    outer loop
      vertex -58.2183 -5.734 2
      vertex -50.7544 -4.99887 2
      vertex -51 0 2
    endloop
  endfacet
  facet normal -0 0 1
    outer loop
      vertex -57.3759 11.4128 2
      vertex -50.0201 9.94961 2
      vertex -55.981 16.9817 2
    endloop
  endfacet
  facet normal 0 0 1
    outer loop
      vertex -50.0201 9.94961 2
      vertex -57.3759 11.4128 2
      vertex -50.7544 4.99887 2
    endloop
  endfacet
  facet normal 0 0 1
    outer loop
      vertex -47.1179 -19.5169 2
      vertex -54.047 -22.387 2
      vertex -51.5924 -27.5767 2
    endloop
  endfacet
  facet normal -0 0 1
    outer loop
      vertex -58.2183 5.734 2
      vertex -50.7544 4.99887 2
      vertex -57.3759 11.4128 2
    endloop
  endfacet
  facet normal 0 0 1
    outer loop
      vertex -48.804 -14.8045 2
      vertex -55.981 -16.9817 2
      vertex -54.047 -22.387 2
    endloop
  endfacet
  facet normal 0 0 1
    outer loop
      vertex -50.7544 4.99887 2
      vertex -58.2183 5.734 2
      vertex -51 0 2
    endloop
  endfacet
  facet normal 0 0 1
    outer loop
      vertex -50.0201 -9.94961 2
      vertex -57.3759 -11.4128 2
      vertex -55.981 -16.9817 2
    endloop
  endfacet
  facet normal 0 0 1
    outer loop
      vertex -58.5 0 2
      vertex -51 0 2
      vertex -58.2183 5.734 2
    endloop
  endfacet
  facet normal 0 0 1
    outer loop
      vertex -50.7544 -4.99887 2
      vertex -58.2183 -5.734 2
      vertex -57.3759 -11.4128 2
    endloop
  endfacet
  facet normal 0 0 1
    outer loop
      vertex -51 0 2
      vertex -58.5 0 2
      vertex -58.2183 -5.734 2
    endloop
  endfacet
  facet normal -0.941544 0.33689 0
    outer loop
      vertex -55.981 16.9817 0
      vertex -54.047 22.387 2
      vertex -54.047 22.387 0
    endloop
  endfacet
  facet normal -0.941544 0.33689 0
    outer loop
      vertex -54.047 22.387 2
      vertex -55.981 16.9817 0
      vertex -55.981 16.9817 2
    endloop
  endfacet
  facet normal -0.970031 0.24298 0
    outer loop
      vertex -57.3759 11.4128 0
      vertex -55.981 16.9817 2
      vertex -55.981 16.9817 0
    endloop
  endfacet
  facet normal -0.970031 0.24298 0
    outer loop
      vertex -55.981 16.9817 2
      vertex -57.3759 11.4128 0
      vertex -57.3759 11.4128 2
    endloop
  endfacet
  facet normal -0.857729 0.514103 0
    outer loop
      vertex -51.5924 27.5767 0
      vertex -48.641 32.5009 2
      vertex -48.641 32.5009 0
    endloop
  endfacet
  facet normal -0.857729 0.514103 0
    outer loop
      vertex -48.641 32.5009 2
      vertex -51.5924 27.5767 0
      vertex -51.5924 27.5767 2
    endloop
  endfacet
  facet normal -0.803208 0.595699 0
    outer loop
      vertex -48.641 32.5009 0
      vertex -45.2211 37.112 2
      vertex -45.2211 37.112 0
    endloop
  endfacet
  facet normal -0.803208 0.595699 0
    outer loop
      vertex -45.2211 37.112 2
      vertex -48.641 32.5009 0
      vertex -48.641 32.5009 2
    endloop
  endfacet
  facet normal -0.24298 0.970031 0
    outer loop
      vertex -11.4128 57.3759 0
      vertex -16.9817 55.981 2
      vertex -11.4128 57.3759 2
    endloop
  endfacet
  facet normal -0.24298 0.970031 0
    outer loop
      vertex -16.9817 55.981 2
      vertex -11.4128 57.3759 0
      vertex -16.9817 55.981 0
    endloop
  endfacet
  facet normal -0.0490675 0.998795 0
    outer loop
      vertex 0 58.5 0
      vertex -5.734 58.2183 2
      vertex 0 58.5 2
    endloop
  endfacet
  facet normal -0.0490675 0.998795 0
    outer loop
      vertex -5.734 58.2183 2
      vertex 0 58.5 0
      vertex -5.734 58.2183 0
    endloop
  endfacet
  facet normal -0.514103 0.857729 0
    outer loop
      vertex -27.5767 51.5924 0
      vertex -32.5009 48.641 2
      vertex -27.5767 51.5924 2
    endloop
  endfacet
  facet normal -0.514103 0.857729 0
    outer loop
      vertex -32.5009 48.641 2
      vertex -27.5767 51.5924 0
      vertex -32.5009 48.641 0
    endloop
  endfacet
  facet normal -0.595699 0.803208 0
    outer loop
      vertex -32.5009 48.641 0
      vertex -37.112 45.2211 2
      vertex -32.5009 48.641 2
    endloop
  endfacet
  facet normal -0.595699 0.803208 0
    outer loop
      vertex -37.112 45.2211 2
      vertex -32.5009 48.641 0
      vertex -37.112 45.2211 0
    endloop
  endfacet
  facet normal -0.427555 0.903989 0
    outer loop
      vertex -22.387 54.047 0
      vertex -27.5767 51.5924 2
      vertex -22.387 54.047 2
    endloop
  endfacet
  facet normal -0.427555 0.903989 0
    outer loop
      vertex -27.5767 51.5924 2
      vertex -22.387 54.047 0
      vertex -27.5767 51.5924 0
    endloop
  endfacet
  facet normal -0.671559 0.740951 0
    outer loop
      vertex -37.112 45.2211 0
      vertex -41.3657 41.3657 2
      vertex -37.112 45.2211 2
    endloop
  endfacet
  facet normal -0.671559 0.740951 0
    outer loop
      vertex -41.3657 41.3657 2
      vertex -37.112 45.2211 0
      vertex -41.3657 41.3657 0
    endloop
  endfacet
  facet normal 0.998795 0.0490675 0
    outer loop
      vertex 58.5 0 2
      vertex 58.2183 5.734 0
      vertex 58.2183 5.734 2
    endloop
  endfacet
  facet normal 0.998795 0.0490675 0
    outer loop
      vertex 58.2183 5.734 0
      vertex 58.5 0 2
      vertex 58.5 0 0
    endloop
  endfacet
  facet normal 0.989176 -0.146731 0
    outer loop
      vertex 57.3759 -11.4128 2
      vertex 58.2183 -5.734 0
      vertex 58.2183 -5.734 2
    endloop
  endfacet
  facet normal 0.989176 -0.146731 0
    outer loop
      vertex 58.2183 -5.734 0
      vertex 57.3759 -11.4128 2
      vertex 57.3759 -11.4128 0
    endloop
  endfacet
  facet normal 0.0490675 -0.998795 0
    outer loop
      vertex 0 -58.5 0
      vertex 5.734 -58.2183 2
      vertex 0 -58.5 2
    endloop
  endfacet
  facet normal 0.0490675 -0.998795 0
    outer loop
      vertex 5.734 -58.2183 2
      vertex 0 -58.5 0
      vertex 5.734 -58.2183 0
    endloop
  endfacet
  facet normal 0.740951 -0.671559 0
    outer loop
      vertex 41.3657 -41.3657 2
      vertex 45.2211 -37.112 0
      vertex 45.2211 -37.112 2
    endloop
  endfacet
  facet normal 0.740951 -0.671559 0
    outer loop
      vertex 45.2211 -37.112 0
      vertex 41.3657 -41.3657 2
      vertex 41.3657 -41.3657 0
    endloop
  endfacet
  facet normal 0.903989 -0.427555 0
    outer loop
      vertex 51.5924 -27.5767 2
      vertex 54.047 -22.387 0
      vertex 54.047 -22.387 2
    endloop
  endfacet
  facet normal 0.903989 -0.427555 0
    outer loop
      vertex 54.047 -22.387 0
      vertex 51.5924 -27.5767 2
      vertex 51.5924 -27.5767 0
    endloop
  endfacet
  facet normal 0.24298 -0.970031 0
    outer loop
      vertex 11.4128 -57.3759 0
      vertex 16.9817 -55.981 2
      vertex 11.4128 -57.3759 2
    endloop
  endfacet
  facet normal 0.24298 -0.970031 0
    outer loop
      vertex 16.9817 -55.981 2
      vertex 11.4128 -57.3759 0
      vertex 16.9817 -55.981 0
    endloop
  endfacet
  facet normal 0.671559 -0.740951 0
    outer loop
      vertex 37.112 -45.2211 0
      vertex 41.3657 -41.3657 2
      vertex 37.112 -45.2211 2
    endloop
  endfacet
  facet normal 0.671559 -0.740951 0
    outer loop
      vertex 41.3657 -41.3657 2
      vertex 37.112 -45.2211 0
      vertex 41.3657 -41.3657 0
    endloop
  endfacet
  facet normal 0.595699 -0.803208 0
    outer loop
      vertex 32.5009 -48.641 0
      vertex 37.112 -45.2211 2
      vertex 32.5009 -48.641 2
    endloop
  endfacet
  facet normal 0.595699 -0.803208 0
    outer loop
      vertex 37.112 -45.2211 2
      vertex 32.5009 -48.641 0
      vertex 37.112 -45.2211 0
    endloop
  endfacet
  facet normal 0.427555 -0.903989 0
    outer loop
      vertex 22.387 -54.047 0
      vertex 27.5767 -51.5924 2
      vertex 22.387 -54.047 2
    endloop
  endfacet
  facet normal 0.427555 -0.903989 0
    outer loop
      vertex 27.5767 -51.5924 2
      vertex 22.387 -54.047 0
      vertex 27.5767 -51.5924 0
    endloop
  endfacet
  facet normal -0.33689 -0.941544 0
    outer loop
      vertex -22.387 -54.047 0
      vertex -16.9817 -55.981 2
      vertex -22.387 -54.047 2
    endloop
  endfacet
  facet normal -0.33689 -0.941544 -0
    outer loop
      vertex -16.9817 -55.981 2
      vertex -22.387 -54.047 0
      vertex -16.9817 -55.981 0
    endloop
  endfacet
  facet normal -0.514103 -0.857729 0
    outer loop
      vertex -32.5009 -48.641 0
      vertex -27.5767 -51.5924 2
      vertex -32.5009 -48.641 2
    endloop
  endfacet
  facet normal -0.514103 -0.857729 -0
    outer loop
      vertex -27.5767 -51.5924 2
      vertex -32.5009 -48.641 0
      vertex -27.5767 -51.5924 0
    endloop
  endfacet
  facet normal -0.970031 -0.24298 0
    outer loop
      vertex -55.981 -16.9817 0
      vertex -57.3759 -11.4128 2
      vertex -57.3759 -11.4128 0
    endloop
  endfacet
  facet normal -0.970031 -0.24298 0
    outer loop
      vertex -57.3759 -11.4128 2
      vertex -55.981 -16.9817 0
      vertex -55.981 -16.9817 2
    endloop
  endfacet
  facet normal -0.998795 -0.0490675 0
    outer loop
      vertex -58.2183 -5.734 0
      vertex -58.5 0 2
      vertex -58.5 0 0
    endloop
  endfacet
  facet normal -0.998795 -0.0490675 0
    outer loop
      vertex -58.5 0 2
      vertex -58.2183 -5.734 0
      vertex -58.2183 -5.734 2
    endloop
  endfacet
  facet normal -0.803208 -0.595699 0
    outer loop
      vertex -45.2211 -37.112 0
      vertex -48.641 -32.5009 2
      vertex -48.641 -32.5009 0
    endloop
  endfacet
  facet normal -0.803208 -0.595699 0
    outer loop
      vertex -48.641 -32.5009 2
      vertex -45.2211 -37.112 0
      vertex -45.2211 -37.112 2
    endloop
  endfacet
  facet normal -0.857729 -0.514103 0
    outer loop
      vertex -48.641 -32.5009 0
      vertex -51.5924 -27.5767 2
      vertex -51.5924 -27.5767 0
    endloop
  endfacet
  facet normal -0.857729 -0.514103 0
    outer loop
      vertex -51.5924 -27.5767 2
      vertex -48.641 -32.5009 0
      vertex -48.641 -32.5009 2
    endloop
  endfacet
  facet normal -0.903989 -0.427555 0
    outer loop
      vertex -51.5924 -27.5767 0
      vertex -54.047 -22.387 2
      vertex -54.047 -22.387 0
    endloop
  endfacet
  facet normal -0.903989 -0.427555 0
    outer loop
      vertex -54.047 -22.387 2
      vertex -51.5924 -27.5767 0
      vertex -51.5924 -27.5767 2
    endloop
  endfacet
  facet normal 0.970031 -0.24298 0
    outer loop
      vertex 55.981 -16.9817 2
      vertex 57.3759 -11.4128 0
      vertex 57.3759 -11.4128 2
    endloop
  endfacet
  facet normal 0.970031 -0.24298 0
    outer loop
      vertex 57.3759 -11.4128 0
      vertex 55.981 -16.9817 2
      vertex 55.981 -16.9817 0
    endloop
  endfacet
  facet normal 0.857729 -0.514103 0
    outer loop
      vertex 48.641 -32.5009 2
      vertex 51.5924 -27.5767 0
      vertex 51.5924 -27.5767 2
    endloop
  endfacet
  facet normal 0.857729 -0.514103 0
    outer loop
      vertex 51.5924 -27.5767 0
      vertex 48.641 -32.5009 2
      vertex 48.641 -32.5009 0
    endloop
  endfacet
  facet normal 0.146731 -0.989176 0
    outer loop
      vertex 5.734 -58.2183 0
      vertex 11.4128 -57.3759 2
      vertex 5.734 -58.2183 2
    endloop
  endfacet
  facet normal 0.146731 -0.989176 0
    outer loop
      vertex 11.4128 -57.3759 2
      vertex 5.734 -58.2183 0
      vertex 11.4128 -57.3759 0
    endloop
  endfacet
  facet normal 0.33689 -0.941544 0
    outer loop
      vertex 16.9817 -55.981 0
      vertex 22.387 -54.047 2
      vertex 16.9817 -55.981 2
    endloop
  endfacet
  facet normal 0.33689 -0.941544 0
    outer loop
      vertex 22.387 -54.047 2
      vertex 16.9817 -55.981 0
      vertex 22.387 -54.047 0
    endloop
  endfacet
  facet normal 0.514103 -0.857729 0
    outer loop
      vertex 27.5767 -51.5924 0
      vertex 32.5009 -48.641 2
      vertex 27.5767 -51.5924 2
    endloop
  endfacet
  facet normal 0.514103 -0.857729 0
    outer loop
      vertex 32.5009 -48.641 2
      vertex 27.5767 -51.5924 0
      vertex 32.5009 -48.641 0
    endloop
  endfacet
  facet normal -0.0490675 -0.998795 0
    outer loop
      vertex -5.734 -58.2183 0
      vertex 0 -58.5 2
      vertex -5.734 -58.2183 2
    endloop
  endfacet
  facet normal -0.0490675 -0.998795 -0
    outer loop
      vertex 0 -58.5 2
      vertex -5.734 -58.2183 0
      vertex 0 -58.5 0
    endloop
  endfacet
  facet normal -0.24298 -0.970031 0
    outer loop
      vertex -16.9817 -55.981 0
      vertex -11.4128 -57.3759 2
      vertex -16.9817 -55.981 2
    endloop
  endfacet
  facet normal -0.24298 -0.970031 -0
    outer loop
      vertex -11.4128 -57.3759 2
      vertex -16.9817 -55.981 0
      vertex -11.4128 -57.3759 0
    endloop
  endfacet
  facet normal -0.427555 -0.903989 0
    outer loop
      vertex -27.5767 -51.5924 0
      vertex -22.387 -54.047 2
      vertex -27.5767 -51.5924 2
    endloop
  endfacet
  facet normal -0.427555 -0.903989 -0
    outer loop
      vertex -22.387 -54.047 2
      vertex -27.5767 -51.5924 0
      vertex -22.387 -54.047 0
    endloop
  endfacet
  facet normal -0.595699 -0.803208 0
    outer loop
      vertex -37.112 -45.2211 0
      vertex -32.5009 -48.641 2
      vertex -37.112 -45.2211 2
    endloop
  endfacet
  facet normal -0.595699 -0.803208 -0
    outer loop
      vertex -32.5009 -48.641 2
      vertex -37.112 -45.2211 0
      vertex -32.5009 -48.641 0
    endloop
  endfacet
  facet normal -0.941544 -0.33689 0
    outer loop
      vertex -54.047 -22.387 0
      vertex -55.981 -16.9817 2
      vertex -55.981 -16.9817 0
    endloop
  endfacet
  facet normal -0.941544 -0.33689 0
    outer loop
      vertex -55.981 -16.9817 2
      vertex -54.047 -22.387 0
      vertex -54.047 -22.387 2
    endloop
  endfacet
  facet normal -0.989176 -0.146731 0
    outer loop
      vertex -57.3759 -11.4128 0
      vertex -58.2183 -5.734 2
      vertex -58.2183 -5.734 0
    endloop
  endfacet
  facet normal -0.989176 -0.146731 0
    outer loop
      vertex -58.2183 -5.734 2
      vertex -57.3759 -11.4128 0
      vertex -57.3759 -11.4128 2
    endloop
  endfacet
  facet normal 0.941544 -0.33689 0
    outer loop
      vertex 54.047 -22.387 2
      vertex 55.981 -16.9817 0
      vertex 55.981 -16.9817 2
    endloop
  endfacet
  facet normal 0.941544 -0.33689 0
    outer loop
      vertex 55.981 -16.9817 0
      vertex 54.047 -22.387 2
      vertex 54.047 -22.387 0
    endloop
  endfacet
  facet normal 0.803208 -0.595699 0
    outer loop
      vertex 45.2211 -37.112 2
      vertex 48.641 -32.5009 0
      vertex 48.641 -32.5009 2
    endloop
  endfacet
  facet normal 0.803208 -0.595699 0
    outer loop
      vertex 48.641 -32.5009 0
      vertex 45.2211 -37.112 2
      vertex 45.2211 -37.112 0
    endloop
  endfacet
  facet normal -0.671559 -0.740952 0
    outer loop
      vertex 32.3541 39.4235 0
      vertex 36.0624 36.0624 2
      vertex 32.3541 39.4235 2
    endloop
  endfacet
  facet normal -0.671559 -0.740952 -0
    outer loop
      vertex 36.0624 36.0624 2
      vertex 32.3541 39.4235 0
      vertex 36.0624 36.0624 0
    endloop
  endfacet
  facet normal -0.998795 0.0490676 0
    outer loop
      vertex 50.7544 -4.99887 0
      vertex 51 0 2
      vertex 51 0 0
    endloop
  endfacet
  facet normal -0.998795 0.0490676 0
    outer loop
      vertex 51 0 2
      vertex 50.7544 -4.99887 0
      vertex 50.7544 -4.99887 2
    endloop
  endfacet
  facet normal 0.33689 -0.941544 0
    outer loop
      vertex -19.5169 47.1179 0
      vertex -14.8045 48.804 2
      vertex -19.5169 47.1179 2
    endloop
  endfacet
  facet normal 0.33689 -0.941544 0
    outer loop
      vertex -14.8045 48.804 2
      vertex -19.5169 47.1179 0
      vertex -14.8045 48.804 0
    endloop
  endfacet
  facet normal 0.903989 -0.427555 0
    outer loop
      vertex -47.1179 19.5169 2
      vertex -44.978 24.0412 0
      vertex -44.978 24.0412 2
    endloop
  endfacet
  facet normal 0.903989 -0.427555 0
    outer loop
      vertex -44.978 24.0412 0
      vertex -47.1179 19.5169 2
      vertex -47.1179 19.5169 0
    endloop
  endfacet
  facet normal 0.427555 0.903989 -0
    outer loop
      vertex -19.5169 -47.1179 0
      vertex -24.0412 -44.978 2
      vertex -19.5169 -47.1179 2
    endloop
  endfacet
  facet normal 0.427555 0.903989 0
    outer loop
      vertex -24.0412 -44.978 2
      vertex -19.5169 -47.1179 0
      vertex -24.0412 -44.978 0
    endloop
  endfacet
  facet normal -0.903989 -0.427555 0
    outer loop
      vertex 47.1179 19.5169 0
      vertex 44.978 24.0412 2
      vertex 44.978 24.0412 0
    endloop
  endfacet
  facet normal -0.903989 -0.427555 0
    outer loop
      vertex 44.978 24.0412 2
      vertex 47.1179 19.5169 0
      vertex 47.1179 19.5169 2
    endloop
  endfacet
  facet normal -0.857728 -0.514103 0
    outer loop
      vertex 44.978 24.0412 0
      vertex 42.4049 28.3341 2
      vertex 42.4049 28.3341 0
    endloop
  endfacet
  facet normal -0.857728 -0.514103 0
    outer loop
      vertex 42.4049 28.3341 2
      vertex 44.978 24.0412 0
      vertex 44.978 24.0412 2
    endloop
  endfacet
  facet normal -0.427555 -0.903989 0
    outer loop
      vertex 19.5169 47.1179 0
      vertex 24.0412 44.978 2
      vertex 19.5169 47.1179 2
    endloop
  endfacet
  facet normal -0.427555 -0.903989 -0
    outer loop
      vertex 24.0412 44.978 2
      vertex 19.5169 47.1179 0
      vertex 24.0412 44.978 0
    endloop
  endfacet
  facet normal -0.14673 -0.989177 0
    outer loop
      vertex 4.99887 50.7544 0
      vertex 9.94961 50.0201 2
      vertex 4.99887 50.7544 2
    endloop
  endfacet
  facet normal -0.14673 -0.989177 -0
    outer loop
      vertex 9.94961 50.0201 2
      vertex 4.99887 50.7544 0
      vertex 9.94961 50.0201 0
    endloop
  endfacet
  facet normal 0.989177 -0.14673 0
    outer loop
      vertex -50.7544 4.99887 2
      vertex -50.0201 9.94961 0
      vertex -50.0201 9.94961 2
    endloop
  endfacet
  facet normal 0.989177 -0.14673 0
    outer loop
      vertex -50.0201 9.94961 0
      vertex -50.7544 4.99887 2
      vertex -50.7544 4.99887 0
    endloop
  endfacet
  facet normal 0.740952 -0.671559 0
    outer loop
      vertex -39.4235 32.3541 2
      vertex -36.0624 36.0624 0
      vertex -36.0624 36.0624 2
    endloop
  endfacet
  facet normal 0.740952 -0.671559 0
    outer loop
      vertex -36.0624 36.0624 0
      vertex -39.4235 32.3541 2
      vertex -39.4235 32.3541 0
    endloop
  endfacet
  facet normal 0.14673 -0.989177 0
    outer loop
      vertex -9.94961 50.0201 0
      vertex -4.99887 50.7544 2
      vertex -9.94961 50.0201 2
    endloop
  endfacet
  facet normal 0.14673 -0.989177 0
    outer loop
      vertex -4.99887 50.7544 2
      vertex -9.94961 50.0201 0
      vertex -4.99887 50.7544 0
    endloop
  endfacet
  facet normal -0.941544 0.33689 0
    outer loop
      vertex 47.1179 -19.5169 0
      vertex 48.804 -14.8045 2
      vertex 48.804 -14.8045 0
    endloop
  endfacet
  facet normal -0.941544 0.33689 0
    outer loop
      vertex 48.804 -14.8045 2
      vertex 47.1179 -19.5169 0
      vertex 47.1179 -19.5169 2
    endloop
  endfacet
  facet normal 0.14673 0.989177 -0
    outer loop
      vertex -4.99887 -50.7544 0
      vertex -9.94961 -50.0201 2
      vertex -4.99887 -50.7544 2
    endloop
  endfacet
  facet normal 0.14673 0.989177 0
    outer loop
      vertex -9.94961 -50.0201 2
      vertex -4.99887 -50.7544 0
      vertex -9.94961 -50.0201 0
    endloop
  endfacet
  facet normal 0.671559 0.740952 -0
    outer loop
      vertex -32.3541 -39.4235 0
      vertex -36.0624 -36.0624 2
      vertex -32.3541 -39.4235 2
    endloop
  endfacet
  facet normal 0.671559 0.740952 0
    outer loop
      vertex -36.0624 -36.0624 2
      vertex -32.3541 -39.4235 0
      vertex -36.0624 -36.0624 0
    endloop
  endfacet
  facet normal -0.989177 -0.14673 0
    outer loop
      vertex 50.7544 4.99887 0
      vertex 50.0201 9.94961 2
      vertex 50.0201 9.94961 0
    endloop
  endfacet
  facet normal -0.989177 -0.14673 0
    outer loop
      vertex 50.0201 9.94961 2
      vertex 50.7544 4.99887 0
      vertex 50.7544 4.99887 2
    endloop
  endfacet
  facet normal -0.970031 -0.242981 0
    outer loop
      vertex 50.0201 9.94961 0
      vertex 48.804 14.8045 2
      vertex 48.804 14.8045 0
    endloop
  endfacet
  facet normal -0.970031 -0.242981 0
    outer loop
      vertex 48.804 14.8045 2
      vertex 50.0201 9.94961 0
      vertex 50.0201 9.94961 2
    endloop
  endfacet
  facet normal -0.941544 -0.33689 0
    outer loop
      vertex 48.804 14.8045 0
      vertex 47.1179 19.5169 2
      vertex 47.1179 19.5169 0
    endloop
  endfacet
  facet normal -0.941544 -0.33689 0
    outer loop
      vertex 47.1179 19.5169 2
      vertex 48.804 14.8045 0
      vertex 48.804 14.8045 2
    endloop
  endfacet
  facet normal -0.803207 -0.595699 0
    outer loop
      vertex 42.4049 28.3341 0
      vertex 39.4235 32.3541 2
      vertex 39.4235 32.3541 0
    endloop
  endfacet
  facet normal -0.803207 -0.595699 0
    outer loop
      vertex 39.4235 32.3541 2
      vertex 42.4049 28.3341 0
      vertex 42.4049 28.3341 2
    endloop
  endfacet
  facet normal -0.740952 -0.671559 0
    outer loop
      vertex 39.4235 32.3541 0
      vertex 36.0624 36.0624 2
      vertex 36.0624 36.0624 0
    endloop
  endfacet
  facet normal -0.740952 -0.671559 0
    outer loop
      vertex 36.0624 36.0624 2
      vertex 39.4235 32.3541 0
      vertex 39.4235 32.3541 2
    endloop
  endfacet
  facet normal -0.595699 -0.803207 0
    outer loop
      vertex 28.3341 42.4049 0
      vertex 32.3541 39.4235 2
      vertex 28.3341 42.4049 2
    endloop
  endfacet
  facet normal -0.595699 -0.803207 -0
    outer loop
      vertex 32.3541 39.4235 2
      vertex 28.3341 42.4049 0
      vertex 32.3541 39.4235 0
    endloop
  endfacet
  facet normal -0.0490676 -0.998795 0
    outer loop
      vertex 0 51 0
      vertex 4.99887 50.7544 2
      vertex 0 51 2
    endloop
  endfacet
  facet normal -0.0490676 -0.998795 -0
    outer loop
      vertex 4.99887 50.7544 2
      vertex 0 51 0
      vertex 4.99887 50.7544 0
    endloop
  endfacet
  facet normal -0.514103 -0.857728 0
    outer loop
      vertex 24.0412 44.978 0
      vertex 28.3341 42.4049 2
      vertex 24.0412 44.978 2
    endloop
  endfacet
  facet normal -0.514103 -0.857728 -0
    outer loop
      vertex 28.3341 42.4049 2
      vertex 24.0412 44.978 0
      vertex 28.3341 42.4049 0
    endloop
  endfacet
  facet normal -0.33689 -0.941544 0
    outer loop
      vertex 14.8045 48.804 0
      vertex 19.5169 47.1179 2
      vertex 14.8045 48.804 2
    endloop
  endfacet
  facet normal -0.33689 -0.941544 -0
    outer loop
      vertex 19.5169 47.1179 2
      vertex 14.8045 48.804 0
      vertex 19.5169 47.1179 0
    endloop
  endfacet
  facet normal -0.242981 -0.970031 0
    outer loop
      vertex 9.94961 50.0201 0
      vertex 14.8045 48.804 2
      vertex 9.94961 50.0201 2
    endloop
  endfacet
  facet normal -0.242981 -0.970031 -0
    outer loop
      vertex 14.8045 48.804 2
      vertex 9.94961 50.0201 0
      vertex 14.8045 48.804 0
    endloop
  endfacet
  facet normal 0.998795 -0.0490676 0
    outer loop
      vertex -51 0 2
      vertex -50.7544 4.99887 0
      vertex -50.7544 4.99887 2
    endloop
  endfacet
  facet normal 0.998795 -0.0490676 0
    outer loop
      vertex -50.7544 4.99887 0
      vertex -51 0 2
      vertex -51 0 0
    endloop
  endfacet
  facet normal 0.941544 -0.33689 0
    outer loop
      vertex -48.804 14.8045 2
      vertex -47.1179 19.5169 0
      vertex -47.1179 19.5169 2
    endloop
  endfacet
  facet normal 0.941544 -0.33689 0
    outer loop
      vertex -47.1179 19.5169 0
      vertex -48.804 14.8045 2
      vertex -48.804 14.8045 0
    endloop
  endfacet
  facet normal 0.970031 -0.242981 0
    outer loop
      vertex -50.0201 9.94961 2
      vertex -48.804 14.8045 0
      vertex -48.804 14.8045 2
    endloop
  endfacet
  facet normal 0.970031 -0.242981 0
    outer loop
      vertex -48.804 14.8045 0
      vertex -50.0201 9.94961 2
      vertex -50.0201 9.94961 0
    endloop
  endfacet
  facet normal 0.857728 -0.514103 0
    outer loop
      vertex -44.978 24.0412 2
      vertex -42.4049 28.3341 0
      vertex -42.4049 28.3341 2
    endloop
  endfacet
  facet normal 0.857728 -0.514103 0
    outer loop
      vertex -42.4049 28.3341 0
      vertex -44.978 24.0412 2
      vertex -44.978 24.0412 0
    endloop
  endfacet
  facet normal 0.803207 -0.595699 0
    outer loop
      vertex -42.4049 28.3341 2
      vertex -39.4235 32.3541 0
      vertex -39.4235 32.3541 2
    endloop
  endfacet
  facet normal 0.803207 -0.595699 0
    outer loop
      vertex -39.4235 32.3541 0
      vertex -42.4049 28.3341 2
      vertex -42.4049 28.3341 0
    endloop
  endfacet
  facet normal 0.242981 -0.970031 0
    outer loop
      vertex -14.8045 48.804 0
      vertex -9.94961 50.0201 2
      vertex -14.8045 48.804 2
    endloop
  endfacet
  facet normal 0.242981 -0.970031 0
    outer loop
      vertex -9.94961 50.0201 2
      vertex -14.8045 48.804 0
      vertex -9.94961 50.0201 0
    endloop
  endfacet
  facet normal 0.0490676 -0.998795 0
    outer loop
      vertex -4.99887 50.7544 0
      vertex 0 51 2
      vertex -4.99887 50.7544 2
    endloop
  endfacet
  facet normal 0.0490676 -0.998795 0
    outer loop
      vertex 0 51 2
      vertex -4.99887 50.7544 0
      vertex 0 51 0
    endloop
  endfacet
  facet normal 0.514103 -0.857728 0
    outer loop
      vertex -28.3341 42.4049 0
      vertex -24.0412 44.978 2
      vertex -28.3341 42.4049 2
    endloop
  endfacet
  facet normal 0.514103 -0.857728 0
    outer loop
      vertex -24.0412 44.978 2
      vertex -28.3341 42.4049 0
      vertex -24.0412 44.978 0
    endloop
  endfacet
  facet normal 0.595699 -0.803207 0
    outer loop
      vertex -32.3541 39.4235 0
      vertex -28.3341 42.4049 2
      vertex -32.3541 39.4235 2
    endloop
  endfacet
  facet normal 0.595699 -0.803207 0
    outer loop
      vertex -28.3341 42.4049 2
      vertex -32.3541 39.4235 0
      vertex -28.3341 42.4049 0
    endloop
  endfacet
  facet normal 0.427555 -0.903989 0
    outer loop
      vertex -24.0412 44.978 0
      vertex -19.5169 47.1179 2
      vertex -24.0412 44.978 2
    endloop
  endfacet
  facet normal 0.427555 -0.903989 0
    outer loop
      vertex -19.5169 47.1179 2
      vertex -24.0412 44.978 0
      vertex -19.5169 47.1179 0
    endloop
  endfacet
  facet normal 0.671559 -0.740952 0
    outer loop
      vertex -36.0624 36.0624 0
      vertex -32.3541 39.4235 2
      vertex -36.0624 36.0624 2
    endloop
  endfacet
  facet normal 0.671559 -0.740952 0
    outer loop
      vertex -32.3541 39.4235 2
      vertex -36.0624 36.0624 0
      vertex -32.3541 39.4235 0
    endloop
  endfacet
  facet normal -0.998795 -0.0490676 0
    outer loop
      vertex 51 0 0
      vertex 50.7544 4.99887 2
      vertex 50.7544 4.99887 0
    endloop
  endfacet
  facet normal -0.998795 -0.0490676 0
    outer loop
      vertex 50.7544 4.99887 2
      vertex 51 0 0
      vertex 51 0 2
    endloop
  endfacet
  facet normal -0.0490676 0.998795 0
    outer loop
      vertex 4.99887 -50.7544 0
      vertex 0 -51 2
      vertex 4.99887 -50.7544 2
    endloop
  endfacet
  facet normal -0.0490676 0.998795 0
    outer loop
      vertex 0 -51 2
      vertex 4.99887 -50.7544 0
      vertex 0 -51 0
    endloop
  endfacet
  facet normal -0.740952 0.671559 0
    outer loop
      vertex 36.0624 -36.0624 0
      vertex 39.4235 -32.3541 2
      vertex 39.4235 -32.3541 0
    endloop
  endfacet
  facet normal -0.740952 0.671559 0
    outer loop
      vertex 39.4235 -32.3541 2
      vertex 36.0624 -36.0624 0
      vertex 36.0624 -36.0624 2
    endloop
  endfacet
  facet normal -0.242981 0.970031 0
    outer loop
      vertex 14.8045 -48.804 0
      vertex 9.94961 -50.0201 2
      vertex 14.8045 -48.804 2
    endloop
  endfacet
  facet normal -0.242981 0.970031 0
    outer loop
      vertex 9.94961 -50.0201 2
      vertex 14.8045 -48.804 0
      vertex 9.94961 -50.0201 0
    endloop
  endfacet
  facet normal -0.595699 0.803207 0
    outer loop
      vertex 32.3541 -39.4235 0
      vertex 28.3341 -42.4049 2
      vertex 32.3541 -39.4235 2
    endloop
  endfacet
  facet normal -0.595699 0.803207 0
    outer loop
      vertex 28.3341 -42.4049 2
      vertex 32.3541 -39.4235 0
      vertex 28.3341 -42.4049 0
    endloop
  endfacet
  facet normal -0.427555 0.903989 0
    outer loop
      vertex 24.0412 -44.978 0
      vertex 19.5169 -47.1179 2
      vertex 24.0412 -44.978 2
    endloop
  endfacet
  facet normal -0.427555 0.903989 0
    outer loop
      vertex 19.5169 -47.1179 2
      vertex 24.0412 -44.978 0
      vertex 19.5169 -47.1179 0
    endloop
  endfacet
  facet normal 0.0490676 0.998795 -0
    outer loop
      vertex 0 -51 0
      vertex -4.99887 -50.7544 2
      vertex 0 -51 2
    endloop
  endfacet
  facet normal 0.0490676 0.998795 0
    outer loop
      vertex -4.99887 -50.7544 2
      vertex 0 -51 0
      vertex -4.99887 -50.7544 0
    endloop
  endfacet
  facet normal 0.33689 0.941544 -0
    outer loop
      vertex -14.8045 -48.804 0
      vertex -19.5169 -47.1179 2
      vertex -14.8045 -48.804 2
    endloop
  endfacet
  facet normal 0.33689 0.941544 0
    outer loop
      vertex -19.5169 -47.1179 2
      vertex -14.8045 -48.804 0
      vertex -19.5169 -47.1179 0
    endloop
  endfacet
  facet normal 0.514103 0.857728 -0
    outer loop
      vertex -24.0412 -44.978 0
      vertex -28.3341 -42.4049 2
      vertex -24.0412 -44.978 2
    endloop
  endfacet
  facet normal 0.514103 0.857728 0
    outer loop
      vertex -28.3341 -42.4049 2
      vertex -24.0412 -44.978 0
      vertex -28.3341 -42.4049 0
    endloop
  endfacet
  facet normal 0.970031 0.242981 0
    outer loop
      vertex -48.804 -14.8045 2
      vertex -50.0201 -9.94961 0
      vertex -50.0201 -9.94961 2
    endloop
  endfacet
  facet normal 0.970031 0.242981 0
    outer loop
      vertex -50.0201 -9.94961 0
      vertex -48.804 -14.8045 2
      vertex -48.804 -14.8045 0
    endloop
  endfacet
  facet normal 0.998795 0.0490676 0
    outer loop
      vertex -50.7544 -4.99887 2
      vertex -51 0 0
      vertex -51 0 2
    endloop
  endfacet
  facet normal 0.998795 0.0490676 0
    outer loop
      vertex -51 0 0
      vertex -50.7544 -4.99887 2
      vertex -50.7544 -4.99887 0
    endloop
  endfacet
  facet normal 0.803207 0.595699 0
    outer loop
      vertex -39.4235 -32.3541 2
      vertex -42.4049 -28.3341 0
      vertex -42.4049 -28.3341 2
    endloop
  endfacet
  facet normal 0.803207 0.595699 0
    outer loop
      vertex -42.4049 -28.3341 0
      vertex -39.4235 -32.3541 2
      vertex -39.4235 -32.3541 0
    endloop
  endfacet
  facet normal 0.857728 0.514103 0
    outer loop
      vertex -42.4049 -28.3341 2
      vertex -44.978 -24.0412 0
      vertex -44.978 -24.0412 2
    endloop
  endfacet
  facet normal 0.857728 0.514103 0
    outer loop
      vertex -44.978 -24.0412 0
      vertex -42.4049 -28.3341 2
      vertex -42.4049 -28.3341 0
    endloop
  endfacet
  facet normal 0.903989 0.427555 0
    outer loop
      vertex -44.978 -24.0412 2
      vertex -47.1179 -19.5169 0
      vertex -47.1179 -19.5169 2
    endloop
  endfacet
  facet normal 0.903989 0.427555 0
    outer loop
      vertex -47.1179 -19.5169 0
      vertex -44.978 -24.0412 2
      vertex -44.978 -24.0412 0
    endloop
  endfacet
  facet normal -0.989177 0.14673 0
    outer loop
      vertex 50.0201 -9.94961 0
      vertex 50.7544 -4.99887 2
      vertex 50.7544 -4.99887 0
    endloop
  endfacet
  facet normal -0.989177 0.14673 0
    outer loop
      vertex 50.7544 -4.99887 2
      vertex 50.0201 -9.94961 0
      vertex 50.0201 -9.94961 2
    endloop
  endfacet
  facet normal -0.857728 0.514103 0
    outer loop
      vertex 42.4049 -28.3341 0
      vertex 44.978 -24.0412 2
      vertex 44.978 -24.0412 0
    endloop
  endfacet
  facet normal -0.857728 0.514103 0
    outer loop
      vertex 44.978 -24.0412 2
      vertex 42.4049 -28.3341 0
      vertex 42.4049 -28.3341 2
    endloop
  endfacet
  facet normal -0.14673 0.989177 0
    outer loop
      vertex 9.94961 -50.0201 0
      vertex 4.99887 -50.7544 2
      vertex 9.94961 -50.0201 2
    endloop
  endfacet
  facet normal -0.14673 0.989177 0
    outer loop
      vertex 4.99887 -50.7544 2
      vertex 9.94961 -50.0201 0
      vertex 4.99887 -50.7544 0
    endloop
  endfacet
  facet normal -0.33689 0.941544 0
    outer loop
      vertex 19.5169 -47.1179 0
      vertex 14.8045 -48.804 2
      vertex 19.5169 -47.1179 2
    endloop
  endfacet
  facet normal -0.33689 0.941544 0
    outer loop
      vertex 14.8045 -48.804 2
      vertex 19.5169 -47.1179 0
      vertex 14.8045 -48.804 0
    endloop
  endfacet
  facet normal -0.671559 0.740952 0
    outer loop
      vertex 36.0624 -36.0624 0
      vertex 32.3541 -39.4235 2
      vertex 36.0624 -36.0624 2
    endloop
  endfacet
  facet normal -0.671559 0.740952 0
    outer loop
      vertex 32.3541 -39.4235 2
      vertex 36.0624 -36.0624 0
      vertex 32.3541 -39.4235 0
    endloop
  endfacet
  facet normal -0.514103 0.857728 0
    outer loop
      vertex 28.3341 -42.4049 0
      vertex 24.0412 -44.978 2
      vertex 28.3341 -42.4049 2
    endloop
  endfacet
  facet normal -0.514103 0.857728 0
    outer loop
      vertex 24.0412 -44.978 2
      vertex 28.3341 -42.4049 0
      vertex 24.0412 -44.978 0
    endloop
  endfacet
  facet normal 0.242981 0.970031 -0
    outer loop
      vertex -9.94961 -50.0201 0
      vertex -14.8045 -48.804 2
      vertex -9.94961 -50.0201 2
    endloop
  endfacet
  facet normal 0.242981 0.970031 0
    outer loop
      vertex -14.8045 -48.804 2
      vertex -9.94961 -50.0201 0
      vertex -14.8045 -48.804 0
    endloop
  endfacet
  facet normal 0.595699 0.803207 -0
    outer loop
      vertex -28.3341 -42.4049 0
      vertex -32.3541 -39.4235 2
      vertex -28.3341 -42.4049 2
    endloop
  endfacet
  facet normal 0.595699 0.803207 0
    outer loop
      vertex -32.3541 -39.4235 2
      vertex -28.3341 -42.4049 0
      vertex -32.3541 -39.4235 0
    endloop
  endfacet
  facet normal 0.941544 0.33689 0
    outer loop
      vertex -47.1179 -19.5169 2
      vertex -48.804 -14.8045 0
      vertex -48.804 -14.8045 2
    endloop
  endfacet
  facet normal 0.941544 0.33689 0
    outer loop
      vertex -48.804 -14.8045 0
      vertex -47.1179 -19.5169 2
      vertex -47.1179 -19.5169 0
    endloop
  endfacet
  facet normal 0.989177 0.14673 0
    outer loop
      vertex -50.0201 -9.94961 2
      vertex -50.7544 -4.99887 0
      vertex -50.7544 -4.99887 2
    endloop
  endfacet
  facet normal 0.989177 0.14673 0
    outer loop
      vertex -50.7544 -4.99887 0
      vertex -50.0201 -9.94961 2
      vertex -50.0201 -9.94961 0
    endloop
  endfacet
  facet normal 0.740952 0.671559 0
    outer loop
      vertex -36.0624 -36.0624 2
      vertex -39.4235 -32.3541 0
      vertex -39.4235 -32.3541 2
    endloop
  endfacet
  facet normal 0.740952 0.671559 0
    outer loop
      vertex -39.4235 -32.3541 0
      vertex -36.0624 -36.0624 2
      vertex -36.0624 -36.0624 0
    endloop
  endfacet
  facet normal -0.970031 0.242981 0
    outer loop
      vertex 48.804 -14.8045 0
      vertex 50.0201 -9.94961 2
      vertex 50.0201 -9.94961 0
    endloop
  endfacet
  facet normal -0.970031 0.242981 0
    outer loop
      vertex 50.0201 -9.94961 2
      vertex 48.804 -14.8045 0
      vertex 48.804 -14.8045 2
    endloop
  endfacet
  facet normal -0.903989 0.427555 0
    outer loop
      vertex 44.978 -24.0412 0
      vertex 47.1179 -19.5169 2
      vertex 47.1179 -19.5169 0
    endloop
  endfacet
  facet normal -0.903989 0.427555 0
    outer loop
      vertex 47.1179 -19.5169 2
      vertex 44.978 -24.0412 0
      vertex 44.978 -24.0412 2
    endloop
  endfacet
  facet normal -0.803207 0.595699 0
    outer loop
      vertex 39.4235 -32.3541 0
      vertex 42.4049 -28.3341 2
      vertex 42.4049 -28.3341 0
    endloop
  endfacet
  facet normal -0.803207 0.595699 0
    outer loop
      vertex 42.4049 -28.3341 2
      vertex 39.4235 -32.3541 0
      vertex 39.4235 -32.3541 2
    endloop
  endfacet
endsolid OpenSCAD_Model
