solid OpenSCAD_Model
  facet normal 0.426209 0.904625 -0
    outer loop
      vertex 1.7357 21.841 0
      vertex 1.69134 21.8619 2.2
      vertex 1.7357 21.841 2.2
    endloop
  endfacet
  facet normal 0.426209 0.904625 0
    outer loop
      vertex 1.69134 21.8619 2.2
      vertex 1.7357 21.841 0
      vertex 1.69134 21.8619 0
    endloop
  endfacet
  facet normal 0 1 -0
    outer loop
      vertex 1.5 21.9 0
      vertex 0.5 21.9 2.2
      vertex 1.5 21.9 2.2
    endloop
  endfacet
  facet normal 0 1 0
    outer loop
      vertex 0.5 21.9 2.2
      vertex 1.5 21.9 0
      vertex 0.5 21.9 0
    endloop
  endfacet
  facet normal 0.048911 0.998803 -0
    outer loop
      vertex 1.54901 21.8976 0
      vertex 1.5 21.9 2.2
      vertex 1.54901 21.8976 2.2
    endloop
  endfacet
  facet normal 0.048911 0.998803 0
    outer loop
      vertex 1.5 21.9 2.2
      vertex 1.54901 21.8976 0
      vertex 1.5 21.9 0
    endloop
  endfacet
  facet normal 0 -1 0
    outer loop
      vertex -0.424999 0 0
      vertex 2.425 0 2.2
      vertex -0.424999 0 2.2
    endloop
  endfacet
  facet normal 0 -1 -0
    outer loop
      vertex 2.425 0 2.2
      vertex -0.424999 0 0
      vertex 2.425 0 0
    endloop
  endfacet
  facet normal 0 0 1
    outer loop
      vertex 1.5 21.9 2.2
      vertex 2 21.4 2.2
      vertex 1.99759 21.449 2.2
    endloop
  endfacet
  facet normal 0 0 1
    outer loop
      vertex 2.425 1.7 2.2
      vertex 2.85 1.275 2.2
      vertex 2.84795 1.31666 2.2
    endloop
  endfacet
  facet normal 0 0 1
    outer loop
      vertex 2.85 1.275 2.2
      vertex 2 1.7 2.2
      vertex 2.85 0.424999 2.2
    endloop
  endfacet
  facet normal 0 0 1
    outer loop
      vertex 2.425 1.7 2.2
      vertex 2.84795 1.31666 2.2
      vertex 2.84183 1.35791 2.2
    endloop
  endfacet
  facet normal 0 -0 1
    outer loop
      vertex 2.425 0 2.2
      vertex 2.85 0.424999 2.2
      vertex 2 1.7 2.2
    endloop
  endfacet
  facet normal 0 0 1
    outer loop
      vertex 2.425 1.7 2.2
      vertex 2.84183 1.35791 2.2
      vertex 2.8317 1.39837 2.2
    endloop
  endfacet
  facet normal 0 0 1
    outer loop
      vertex 2.85 0.424999 2.2
      vertex 2.425 0 2.2
      vertex 2.84795 0.383343 2.2
    endloop
  endfacet
  facet normal 0 0 1
    outer loop
      vertex 2.425 1.7 2.2
      vertex 2.8317 1.39837 2.2
      vertex 2.81765 1.43764 2.2
    endloop
  endfacet
  facet normal 0 0 1
    outer loop
      vertex 2.84795 0.383343 2.2
      vertex 2.425 0 2.2
      vertex 2.84183 0.342087 2.2
    endloop
  endfacet
  facet normal 0 0 1
    outer loop
      vertex 2.425 1.7 2.2
      vertex 2.81765 1.43764 2.2
      vertex 2.79982 1.47534 2.2
    endloop
  endfacet
  facet normal 0 0 1
    outer loop
      vertex 2.84183 0.342087 2.2
      vertex 2.425 0 2.2
      vertex 2.8317 0.301629 2.2
    endloop
  endfacet
  facet normal 0 0 1
    outer loop
      vertex 2.425 1.7 2.2
      vertex 2.79982 1.47534 2.2
      vertex 2.77837 1.51112 2.2
    endloop
  endfacet
  facet normal 0 0 1
    outer loop
      vertex 2.8317 0.301629 2.2
      vertex 2.425 0 2.2
      vertex 2.81765 0.26236 2.2
    endloop
  endfacet
  facet normal 0 0 1
    outer loop
      vertex 2.425 1.7 2.2
      vertex 2.77837 1.51112 2.2
      vertex 2.75353 1.54462 2.2
    endloop
  endfacet
  facet normal 0 0 1
    outer loop
      vertex 2.85 1.275 2.2
      vertex 2.425 1.7 2.2
      vertex 2 1.7 2.2
    endloop
  endfacet
  facet normal 0 0 1
    outer loop
      vertex 2.425 1.7 2.2
      vertex 2.75353 1.54462 2.2
      vertex 2.72552 1.57552 2.2
    endloop
  endfacet
  facet normal 0 0 1
    outer loop
      vertex 2.81765 0.26236 2.2
      vertex 2.425 0 2.2
      vertex 2.79982 0.224656 2.2
    endloop
  endfacet
  facet normal 0 0 1
    outer loop
      vertex 2.425 1.7 2.2
      vertex 2.72552 1.57552 2.2
      vertex 2.69462 1.60353 2.2
    endloop
  endfacet
  facet normal 0 0 1
    outer loop
      vertex 2.77837 0.188883 2.2
      vertex 2.425 0 2.2
      vertex 2.75353 0.155382 2.2
    endloop
  endfacet
  facet normal 0 0 1
    outer loop
      vertex 2.425 1.7 2.2
      vertex 2.69462 1.60353 2.2
      vertex 2.66112 1.62837 2.2
    endloop
  endfacet
  facet normal 0 0 1
    outer loop
      vertex 2.75353 0.155382 2.2
      vertex 2.425 0 2.2
      vertex 2.72552 0.124479 2.2
    endloop
  endfacet
  facet normal 0 0 1
    outer loop
      vertex 2.425 1.7 2.2
      vertex 2.66112 1.62837 2.2
      vertex 2.62534 1.64981 2.2
    endloop
  endfacet
  facet normal 0 0 1
    outer loop
      vertex 2.72552 0.124479 2.2
      vertex 2.425 0 2.2
      vertex 2.69462 0.0964699 2.2
    endloop
  endfacet
  facet normal 0 0 1
    outer loop
      vertex 2.425 1.7 2.2
      vertex 2.62534 1.64981 2.2
      vertex 2.58764 1.66765 2.2
    endloop
  endfacet
  facet normal 0 0 1
    outer loop
      vertex 2.69462 0.0964699 2.2
      vertex 2.425 0 2.2
      vertex 2.66112 0.0716248 2.2
    endloop
  endfacet
  facet normal 0 0 1
    outer loop
      vertex 2.425 1.7 2.2
      vertex 2.58764 1.66765 2.2
      vertex 2.54837 1.6817 2.2
    endloop
  endfacet
  facet normal 0 0 1
    outer loop
      vertex 2.66112 0.0716248 2.2
      vertex 2.425 0 2.2
      vertex 2.62534 0.0501833 2.2
    endloop
  endfacet
  facet normal 0 0 1
    outer loop
      vertex 2.425 1.7 2.2
      vertex 2.54837 1.6817 2.2
      vertex 2.50791 1.69183 2.2
    endloop
  endfacet
  facet normal 0 0 1
    outer loop
      vertex 2.62534 0.0501833 2.2
      vertex 2.425 0 2.2
      vertex 2.58764 0.0323505 2.2
    endloop
  endfacet
  facet normal 0 0 1
    outer loop
      vertex 2.425 1.7 2.2
      vertex 2.50791 1.69183 2.2
      vertex 2.46666 1.69795 2.2
    endloop
  endfacet
  facet normal 0 0 1
    outer loop
      vertex 2.58764 0.0323505 2.2
      vertex 2.425 0 2.2
      vertex 2.54837 0.0183001 2.2
    endloop
  endfacet
  facet normal 0 0 1
    outer loop
      vertex 2.54837 0.0183001 2.2
      vertex 2.425 0 2.2
      vertex 2.50791 0.00816631 2.2
    endloop
  endfacet
  facet normal 0 0 1
    outer loop
      vertex 2.50791 0.00816631 2.2
      vertex 2.425 0 2.2
      vertex 2.46666 0.00204659 2.2
    endloop
  endfacet
  facet normal 0 0 1
    outer loop
      vertex 2.79982 0.224656 2.2
      vertex 2.425 0 2.2
      vertex 2.77837 0.188883 2.2
    endloop
  endfacet
  facet normal 0 0 1
    outer loop
      vertex 1.5 21.9 2.2
      vertex 1.99759 21.449 2.2
      vertex 1.99039 21.4975 2.2
    endloop
  endfacet
  facet normal 0 0 1
    outer loop
      vertex 1.5 21.9 2.2
      vertex 1.99039 21.4975 2.2
      vertex 1.97847 21.5451 2.2
    endloop
  endfacet
  facet normal 0 0 1
    outer loop
      vertex 1.5 21.9 2.2
      vertex 1.97847 21.5451 2.2
      vertex 1.96194 21.5913 2.2
    endloop
  endfacet
  facet normal 0 0 1
    outer loop
      vertex 1.5 21.9 2.2
      vertex 1.96194 21.5913 2.2
      vertex 1.94096 21.6357 2.2
    endloop
  endfacet
  facet normal 0 0 1
    outer loop
      vertex 1.5 21.9 2.2
      vertex 1.94096 21.6357 2.2
      vertex 1.91573 21.6778 2.2
    endloop
  endfacet
  facet normal 0 0 1
    outer loop
      vertex 1.5 21.9 2.2
      vertex 1.91573 21.6778 2.2
      vertex 1.88651 21.7172 2.2
    endloop
  endfacet
  facet normal 0 0 1
    outer loop
      vertex 1.5 21.9 2.2
      vertex 1.88651 21.7172 2.2
      vertex 1.85355 21.7536 2.2
    endloop
  endfacet
  facet normal 0 0 1
    outer loop
      vertex 1.5 21.9 2.2
      vertex 1.85355 21.7536 2.2
      vertex 1.8172 21.7865 2.2
    endloop
  endfacet
  facet normal 0 0 1
    outer loop
      vertex 1.5 21.9 2.2
      vertex 1.8172 21.7865 2.2
      vertex 1.77778 21.8157 2.2
    endloop
  endfacet
  facet normal 0 0 1
    outer loop
      vertex 1.5 21.9 2.2
      vertex 1.77778 21.8157 2.2
      vertex 1.7357 21.841 2.2
    endloop
  endfacet
  facet normal 0 0 1
    outer loop
      vertex 1.5 21.9 2.2
      vertex 1.7357 21.841 2.2
      vertex 1.69134 21.8619 2.2
    endloop
  endfacet
  facet normal 0 0 1
    outer loop
      vertex 1.5 21.9 2.2
      vertex 1.69134 21.8619 2.2
      vertex 1.64514 21.8785 2.2
    endloop
  endfacet
  facet normal 0 0 1
    outer loop
      vertex 1.5 21.9 2.2
      vertex 1.64514 21.8785 2.2
      vertex 1.59754 21.8904 2.2
    endloop
  endfacet
  facet normal 0 0 1
    outer loop
      vertex 1.5 21.9 2.2
      vertex 1.59754 21.8904 2.2
      vertex 1.54901 21.8976 2.2
    endloop
  endfacet
  facet normal 0 0 1
    outer loop
      vertex 2 21.4 2.2
      vertex 1.5 21.9 2.2
      vertex 0 21.4 2.2
    endloop
  endfacet
  facet normal 0 0 1
    outer loop
      vertex 0 21.4 2.2
      vertex 1.5 21.9 2.2
      vertex 0.5 21.9 2.2
    endloop
  endfacet
  facet normal 0 0 1
    outer loop
      vertex 0 21.4 2.2
      vertex 0.5 21.9 2.2
      vertex 0.450992 21.8976 2.2
    endloop
  endfacet
  facet normal 0 0 1
    outer loop
      vertex 0 21.4 2.2
      vertex 0.450992 21.8976 2.2
      vertex 0.402455 21.8904 2.2
    endloop
  endfacet
  facet normal 0 0 1
    outer loop
      vertex 0 21.4 2.2
      vertex 0.402455 21.8904 2.2
      vertex 0.354858 21.8785 2.2
    endloop
  endfacet
  facet normal 0 0 1
    outer loop
      vertex 0 21.4 2.2
      vertex 0.354858 21.8785 2.2
      vertex 0.308659 21.8619 2.2
    endloop
  endfacet
  facet normal 0 0 1
    outer loop
      vertex 0 21.4 2.2
      vertex 0.308659 21.8619 2.2
      vertex 0.264302 21.841 2.2
    endloop
  endfacet
  facet normal 0 0 1
    outer loop
      vertex 0 21.4 2.2
      vertex 0.264302 21.841 2.2
      vertex 0.222216 21.8157 2.2
    endloop
  endfacet
  facet normal 0 0 1
    outer loop
      vertex 0 21.4 2.2
      vertex 0.222216 21.8157 2.2
      vertex 0.182804 21.7865 2.2
    endloop
  endfacet
  facet normal 0 0 1
    outer loop
      vertex 0 21.4 2.2
      vertex 0.182804 21.7865 2.2
      vertex 0.146447 21.7536 2.2
    endloop
  endfacet
  facet normal 0 0 1
    outer loop
      vertex 0 21.4 2.2
      vertex 0.146447 21.7536 2.2
      vertex 0.113495 21.7172 2.2
    endloop
  endfacet
  facet normal 0 0 1
    outer loop
      vertex 0 21.4 2.2
      vertex 0.113495 21.7172 2.2
      vertex 0.0842657 21.6778 2.2
    endloop
  endfacet
  facet normal 0 0 1
    outer loop
      vertex 0 21.4 2.2
      vertex 0.0842657 21.6778 2.2
      vertex 0.0590401 21.6357 2.2
    endloop
  endfacet
  facet normal 0 0 1
    outer loop
      vertex 0 21.4 2.2
      vertex 0.0590401 21.6357 2.2
      vertex 0.0380611 21.5913 2.2
    endloop
  endfacet
  facet normal 0 0 1
    outer loop
      vertex 0 21.4 2.2
      vertex 0.0380611 21.5913 2.2
      vertex 0.0215302 21.5451 2.2
    endloop
  endfacet
  facet normal 0 0 1
    outer loop
      vertex 0 21.4 2.2
      vertex 0.0215302 21.5451 2.2
      vertex 0.00960827 21.4975 2.2
    endloop
  endfacet
  facet normal 0 0 1
    outer loop
      vertex 0 21.4 2.2
      vertex 0.00960827 21.4975 2.2
      vertex 0.00240803 21.449 2.2
    endloop
  endfacet
  facet normal 0 0 1
    outer loop
      vertex 2 21.4 2.2
      vertex 0 21.4 2.2
      vertex 2 1.7 2.2
    endloop
  endfacet
  facet normal 0 0 1
    outer loop
      vertex 0 1.7 2.2
      vertex 2 1.7 2.2
      vertex 0 21.4 2.2
    endloop
  endfacet
  facet normal -0 0 1
    outer loop
      vertex 0 1.7 2.2
      vertex 2.425 0 2.2
      vertex 2 1.7 2.2
    endloop
  endfacet
  facet normal 0 0 1
    outer loop
      vertex -0.849998 1.275 2.2
      vertex 0 1.7 2.2
      vertex -0.424999 1.7 2.2
    endloop
  endfacet
  facet normal 0 0 1
    outer loop
      vertex 0 1.7 2.2
      vertex -0.424999 0 2.2
      vertex 2.425 0 2.2
    endloop
  endfacet
  facet normal 0 0 1
    outer loop
      vertex -0.849998 1.275 2.2
      vertex -0.424999 1.7 2.2
      vertex -0.466656 1.69795 2.2
    endloop
  endfacet
  facet normal 0 0 1
    outer loop
      vertex -0.849998 0.424999 2.2
      vertex 0 1.7 2.2
      vertex -0.849998 1.275 2.2
    endloop
  endfacet
  facet normal 0 0 1
    outer loop
      vertex -0.849998 1.275 2.2
      vertex -0.466656 1.69795 2.2
      vertex -0.507912 1.69183 2.2
    endloop
  endfacet
  facet normal 0 0 1
    outer loop
      vertex 0 1.7 2.2
      vertex -0.849998 0.424999 2.2
      vertex -0.424999 0 2.2
    endloop
  endfacet
  facet normal 0 0 1
    outer loop
      vertex -0.849998 1.275 2.2
      vertex -0.507912 1.69183 2.2
      vertex -0.548369 1.6817 2.2
    endloop
  endfacet
  facet normal 0 0 1
    outer loop
      vertex -0.424999 0 2.2
      vertex -0.849998 0.424999 2.2
      vertex -0.466656 0.00204659 2.2
    endloop
  endfacet
  facet normal 0 0 1
    outer loop
      vertex -0.849998 1.275 2.2
      vertex -0.548369 1.6817 2.2
      vertex -0.587639 1.66765 2.2
    endloop
  endfacet
  facet normal 0 0 1
    outer loop
      vertex -0.466656 0.00204659 2.2
      vertex -0.849998 0.424999 2.2
      vertex -0.507912 0.00816631 2.2
    endloop
  endfacet
  facet normal 0 0 1
    outer loop
      vertex -0.849998 1.275 2.2
      vertex -0.587639 1.66765 2.2
      vertex -0.625342 1.64981 2.2
    endloop
  endfacet
  facet normal 0 0 1
    outer loop
      vertex -0.507912 0.00816631 2.2
      vertex -0.849998 0.424999 2.2
      vertex -0.548369 0.0183001 2.2
    endloop
  endfacet
  facet normal 0 0 1
    outer loop
      vertex -0.849998 1.275 2.2
      vertex -0.625342 1.64981 2.2
      vertex -0.661116 1.62837 2.2
    endloop
  endfacet
  facet normal 0 0 1
    outer loop
      vertex -0.548369 0.0183001 2.2
      vertex -0.849998 0.424999 2.2
      vertex -0.587639 0.0323505 2.2
    endloop
  endfacet
  facet normal 0 0 1
    outer loop
      vertex -0.849998 1.275 2.2
      vertex -0.661116 1.62837 2.2
      vertex -0.694616 1.60353 2.2
    endloop
  endfacet
  facet normal 0 0 1
    outer loop
      vertex -0.587639 0.0323505 2.2
      vertex -0.849998 0.424999 2.2
      vertex -0.625342 0.0501833 2.2
    endloop
  endfacet
  facet normal 0 0 1
    outer loop
      vertex -0.849998 1.275 2.2
      vertex -0.694616 1.60353 2.2
      vertex -0.725519 1.57552 2.2
    endloop
  endfacet
  facet normal 0 0 1
    outer loop
      vertex -0.625342 0.0501833 2.2
      vertex -0.849998 0.424999 2.2
      vertex -0.661116 0.0716248 2.2
    endloop
  endfacet
  facet normal 0 0 1
    outer loop
      vertex -0.849998 1.275 2.2
      vertex -0.725519 1.57552 2.2
      vertex -0.753529 1.54462 2.2
    endloop
  endfacet
  facet normal 0 0 1
    outer loop
      vertex -0.661116 0.0716248 2.2
      vertex -0.849998 0.424999 2.2
      vertex -0.694616 0.0964699 2.2
    endloop
  endfacet
  facet normal 0 0 1
    outer loop
      vertex -0.849998 1.275 2.2
      vertex -0.753529 1.54462 2.2
      vertex -0.778374 1.51112 2.2
    endloop
  endfacet
  facet normal 0 0 1
    outer loop
      vertex -0.694616 0.0964699 2.2
      vertex -0.849998 0.424999 2.2
      vertex -0.725519 0.124479 2.2
    endloop
  endfacet
  facet normal 0 0 1
    outer loop
      vertex -0.849998 1.275 2.2
      vertex -0.778374 1.51112 2.2
      vertex -0.799815 1.47534 2.2
    endloop
  endfacet
  facet normal 0 0 1
    outer loop
      vertex -0.725519 0.124479 2.2
      vertex -0.849998 0.424999 2.2
      vertex -0.753529 0.155382 2.2
    endloop
  endfacet
  facet normal 0 0 1
    outer loop
      vertex -0.849998 1.275 2.2
      vertex -0.799815 1.47534 2.2
      vertex -0.817648 1.43764 2.2
    endloop
  endfacet
  facet normal 0 0 1
    outer loop
      vertex -0.753529 0.155382 2.2
      vertex -0.849998 0.424999 2.2
      vertex -0.778374 0.188883 2.2
    endloop
  endfacet
  facet normal 0 0 1
    outer loop
      vertex -0.849998 1.275 2.2
      vertex -0.817648 1.43764 2.2
      vertex -0.831698 1.39837 2.2
    endloop
  endfacet
  facet normal 0 0 1
    outer loop
      vertex -0.778374 0.188883 2.2
      vertex -0.849998 0.424999 2.2
      vertex -0.799815 0.224656 2.2
    endloop
  endfacet
  facet normal 0 0 1
    outer loop
      vertex -0.849998 1.275 2.2
      vertex -0.831698 1.39837 2.2
      vertex -0.841832 1.35791 2.2
    endloop
  endfacet
  facet normal 0 0 1
    outer loop
      vertex -0.799815 0.224656 2.2
      vertex -0.849998 0.424999 2.2
      vertex -0.817648 0.26236 2.2
    endloop
  endfacet
  facet normal 0 0 1
    outer loop
      vertex -0.849998 1.275 2.2
      vertex -0.841832 1.35791 2.2
      vertex -0.847952 1.31666 2.2
    endloop
  endfacet
  facet normal 0 0 1
    outer loop
      vertex -0.817648 0.26236 2.2
      vertex -0.849998 0.424999 2.2
      vertex -0.831698 0.301629 2.2
    endloop
  endfacet
  facet normal 0 0 1
    outer loop
      vertex -0.831698 0.301629 2.2
      vertex -0.849998 0.424999 2.2
      vertex -0.841832 0.342087 2.2
    endloop
  endfacet
  facet normal 0 0 1
    outer loop
      vertex -0.841832 0.342087 2.2
      vertex -0.849998 0.424999 2.2
      vertex -0.847952 0.383343 2.2
    endloop
  endfacet
  facet normal 1 -0 0
    outer loop
      vertex 2 1.7 2.2
      vertex 2 21.4 0
      vertex 2 21.4 2.2
    endloop
  endfacet
  facet normal 1 0 0
    outer loop
      vertex 2 21.4 0
      vertex 2 1.7 2.2
      vertex 2 1.7 0
    endloop
  endfacet
  facet normal -1 0 0
    outer loop
      vertex 0 1.7 0
      vertex 0 21.4 2.2
      vertex 0 21.4 0
    endloop
  endfacet
  facet normal -1 -0 0
    outer loop
      vertex 0 21.4 2.2
      vertex 0 1.7 0
      vertex 0 1.7 2.2
    endloop
  endfacet
  facet normal -0.741347 0.671122 0
    outer loop
      vertex 0.113495 21.7172 0
      vertex 0.146447 21.7536 2.2
      vertex 0.146447 21.7536 0
    endloop
  endfacet
  facet normal -0.741347 0.671122 0
    outer loop
      vertex 0.146447 21.7536 2.2
      vertex 0.113495 21.7172 0
      vertex 0.113495 21.7172 2.2
    endloop
  endfacet
  facet normal -0.048913 0.998803 0
    outer loop
      vertex 0.5 21.9 0
      vertex 0.450992 21.8976 2.2
      vertex 0.5 21.9 2.2
    endloop
  endfacet
  facet normal -0.048913 0.998803 0
    outer loop
      vertex 0.450992 21.8976 2.2
      vertex 0.5 21.9 0
      vertex 0.450992 21.8976 0
    endloop
  endfacet
  facet normal -0.51522 0.857058 0
    outer loop
      vertex 0.264302 21.841 0
      vertex 0.222216 21.8157 2.2
      vertex 0.264302 21.841 2.2
    endloop
  endfacet
  facet normal -0.51522 0.857058 0
    outer loop
      vertex 0.222216 21.8157 2.2
      vertex 0.264302 21.841 0
      vertex 0.222216 21.8157 0
    endloop
  endfacet
  facet normal -0.998795 0.0490842 0
    outer loop
      vertex 0 21.4 0
      vertex 0.00240803 21.449 2.2
      vertex 0.00240803 21.449 0
    endloop
  endfacet
  facet normal -0.998795 0.0490842 0
    outer loop
      vertex 0.00240803 21.449 2.2
      vertex 0 21.4 0
      vertex 0 21.4 2.2
    endloop
  endfacet
  facet normal 0.242536 0.970143 -0
    outer loop
      vertex 1.64514 21.8785 0
      vertex 1.59754 21.8904 2.2
      vertex 1.64514 21.8785 2.2
    endloop
  endfacet
  facet normal 0.242536 0.970143 0
    outer loop
      vertex 1.59754 21.8904 2.2
      vertex 1.64514 21.8785 0
      vertex 1.59754 21.8904 0
    endloop
  endfacet
  facet normal 0.515274 0.857025 -0
    outer loop
      vertex 1.77778 21.8157 0
      vertex 1.7357 21.841 2.2
      vertex 1.77778 21.8157 2.2
    endloop
  endfacet
  facet normal 0.515274 0.857025 0
    outer loop
      vertex 1.7357 21.841 2.2
      vertex 1.77778 21.8157 0
      vertex 1.7357 21.841 0
    endloop
  endfacet
  facet normal 0.803218 0.595686 0
    outer loop
      vertex 1.91573 21.6778 2.2
      vertex 1.88651 21.7172 0
      vertex 1.88651 21.7172 2.2
    endloop
  endfacet
  facet normal 0.803218 0.595686 0
    outer loop
      vertex 1.88651 21.7172 0
      vertex 1.91573 21.6778 2.2
      vertex 1.91573 21.6778 0
    endloop
  endfacet
  facet normal 0 0 -1
    outer loop
      vertex 2.425 0 0
      vertex 2.85 0.424999 0
      vertex 2.84795 0.383343 0
    endloop
  endfacet
  facet normal 0 0 -1
    outer loop
      vertex 2.85 0.424999 0
      vertex 2 1.7 0
      vertex 2.85 1.275 0
    endloop
  endfacet
  facet normal 0 0 -1
    outer loop
      vertex 2.425 0 0
      vertex 2.84795 0.383343 0
      vertex 2.84183 0.342087 0
    endloop
  endfacet
  facet normal -0 -0 -1
    outer loop
      vertex 2.425 1.7 0
      vertex 2.85 1.275 0
      vertex 2 1.7 0
    endloop
  endfacet
  facet normal 0 0 -1
    outer loop
      vertex 2.425 0 0
      vertex 2.84183 0.342087 0
      vertex 2.8317 0.301629 0
    endloop
  endfacet
  facet normal 0 0 -1
    outer loop
      vertex 2.85 1.275 0
      vertex 2.425 1.7 0
      vertex 2.84795 1.31666 0
    endloop
  endfacet
  facet normal 0 0 -1
    outer loop
      vertex 2.425 0 0
      vertex 2.8317 0.301629 0
      vertex 2.81765 0.26236 0
    endloop
  endfacet
  facet normal 0 0 -1
    outer loop
      vertex 2.84795 1.31666 0
      vertex 2.425 1.7 0
      vertex 2.84183 1.35791 0
    endloop
  endfacet
  facet normal 0 0 -1
    outer loop
      vertex 2.425 0 0
      vertex 2.81765 0.26236 0
      vertex 2.79982 0.224656 0
    endloop
  endfacet
  facet normal 0 0 -1
    outer loop
      vertex 2.84183 1.35791 0
      vertex 2.425 1.7 0
      vertex 2.8317 1.39837 0
    endloop
  endfacet
  facet normal 0 0 -1
    outer loop
      vertex 2.425 0 0
      vertex 2.79982 0.224656 0
      vertex 2.77837 0.188883 0
    endloop
  endfacet
  facet normal -0 0 -1
    outer loop
      vertex 2.85 0.424999 0
      vertex 2.425 0 0
      vertex 2 1.7 0
    endloop
  endfacet
  facet normal 0 0 -1
    outer loop
      vertex 2.425 0 0
      vertex 2.77837 0.188883 0
      vertex 2.75353 0.155382 0
    endloop
  endfacet
  facet normal 0 0 -1
    outer loop
      vertex 2.8317 1.39837 0
      vertex 2.425 1.7 0
      vertex 2.81765 1.43764 0
    endloop
  endfacet
  facet normal 0 0 -1
    outer loop
      vertex 2.425 0 0
      vertex 2.75353 0.155382 0
      vertex 2.72552 0.124479 0
    endloop
  endfacet
  facet normal 0 0 -1
    outer loop
      vertex 2.81765 1.43764 0
      vertex 2.425 1.7 0
      vertex 2.79982 1.47534 0
    endloop
  endfacet
  facet normal 0 0 -1
    outer loop
      vertex 2.425 0 0
      vertex 2.72552 0.124479 0
      vertex 2.69462 0.0964699 0
    endloop
  endfacet
  facet normal 0 0 -1
    outer loop
      vertex 2.77837 1.51112 0
      vertex 2.425 1.7 0
      vertex 2.75353 1.54462 0
    endloop
  endfacet
  facet normal 0 0 -1
    outer loop
      vertex 2.425 0 0
      vertex 2.69462 0.0964699 0
      vertex 2.66112 0.0716248 0
    endloop
  endfacet
  facet normal 0 0 -1
    outer loop
      vertex 2.75353 1.54462 0
      vertex 2.425 1.7 0
      vertex 2.72552 1.57552 0
    endloop
  endfacet
  facet normal 0 0 -1
    outer loop
      vertex 2.425 0 0
      vertex 2.66112 0.0716248 0
      vertex 2.62534 0.0501833 0
    endloop
  endfacet
  facet normal 0 0 -1
    outer loop
      vertex 2.72552 1.57552 0
      vertex 2.425 1.7 0
      vertex 2.69462 1.60353 0
    endloop
  endfacet
  facet normal 0 0 -1
    outer loop
      vertex 2.425 0 0
      vertex 2.62534 0.0501833 0
      vertex 2.58764 0.0323505 0
    endloop
  endfacet
  facet normal 0 0 -1
    outer loop
      vertex 2.69462 1.60353 0
      vertex 2.425 1.7 0
      vertex 2.66112 1.62837 0
    endloop
  endfacet
  facet normal 0 0 -1
    outer loop
      vertex 2.425 0 0
      vertex 2.58764 0.0323505 0
      vertex 2.54837 0.0183001 0
    endloop
  endfacet
  facet normal 0 0 -1
    outer loop
      vertex 2.66112 1.62837 0
      vertex 2.425 1.7 0
      vertex 2.62534 1.64981 0
    endloop
  endfacet
  facet normal 0 0 -1
    outer loop
      vertex 2.425 0 0
      vertex 2.54837 0.0183001 0
      vertex 2.50791 0.00816631 0
    endloop
  endfacet
  facet normal 0 0 -1
    outer loop
      vertex 2.62534 1.64981 0
      vertex 2.425 1.7 0
      vertex 2.58764 1.66765 0
    endloop
  endfacet
  facet normal 0 0 -1
    outer loop
      vertex 2.425 0 0
      vertex 2.50791 0.00816631 0
      vertex 2.46666 0.00204659 0
    endloop
  endfacet
  facet normal 0 0 -1
    outer loop
      vertex 2.58764 1.66765 0
      vertex 2.425 1.7 0
      vertex 2.54837 1.6817 0
    endloop
  endfacet
  facet normal 0 0 -1
    outer loop
      vertex 2.54837 1.6817 0
      vertex 2.425 1.7 0
      vertex 2.50791 1.69183 0
    endloop
  endfacet
  facet normal 0 0 -1
    outer loop
      vertex 2.50791 1.69183 0
      vertex 2.425 1.7 0
      vertex 2.46666 1.69795 0
    endloop
  endfacet
  facet normal 0 0 -1
    outer loop
      vertex 2.79982 1.47534 0
      vertex 2.425 1.7 0
      vertex 2.77837 1.51112 0
    endloop
  endfacet
  facet normal 0 0 -1
    outer loop
      vertex 0 21.4 0
      vertex 2 21.4 0
      vertex 2 1.7 0
    endloop
  endfacet
  facet normal 0 -0 -1
    outer loop
      vertex 1.5 21.9 0
      vertex 2 21.4 0
      vertex 0 21.4 0
    endloop
  endfacet
  facet normal 0 0 -1
    outer loop
      vertex 2 21.4 0
      vertex 1.5 21.9 0
      vertex 1.99759 21.449 0
    endloop
  endfacet
  facet normal 0 0 -1
    outer loop
      vertex 1.99759 21.449 0
      vertex 1.5 21.9 0
      vertex 1.99039 21.4975 0
    endloop
  endfacet
  facet normal 0 0 -1
    outer loop
      vertex 1.99039 21.4975 0
      vertex 1.5 21.9 0
      vertex 1.97847 21.5451 0
    endloop
  endfacet
  facet normal 0 0 -1
    outer loop
      vertex 1.97847 21.5451 0
      vertex 1.5 21.9 0
      vertex 1.96194 21.5913 0
    endloop
  endfacet
  facet normal 0 0 -1
    outer loop
      vertex 1.96194 21.5913 0
      vertex 1.5 21.9 0
      vertex 1.94096 21.6357 0
    endloop
  endfacet
  facet normal 0 0 -1
    outer loop
      vertex 1.94096 21.6357 0
      vertex 1.5 21.9 0
      vertex 1.91573 21.6778 0
    endloop
  endfacet
  facet normal 0 0 -1
    outer loop
      vertex 1.91573 21.6778 0
      vertex 1.5 21.9 0
      vertex 1.88651 21.7172 0
    endloop
  endfacet
  facet normal 0 0 -1
    outer loop
      vertex 1.88651 21.7172 0
      vertex 1.5 21.9 0
      vertex 1.85355 21.7536 0
    endloop
  endfacet
  facet normal 0 0 -1
    outer loop
      vertex 1.85355 21.7536 0
      vertex 1.5 21.9 0
      vertex 1.8172 21.7865 0
    endloop
  endfacet
  facet normal 0 0 -1
    outer loop
      vertex 1.8172 21.7865 0
      vertex 1.5 21.9 0
      vertex 1.77778 21.8157 0
    endloop
  endfacet
  facet normal 0 0 -1
    outer loop
      vertex 1.77778 21.8157 0
      vertex 1.5 21.9 0
      vertex 1.7357 21.841 0
    endloop
  endfacet
  facet normal 0 0 -1
    outer loop
      vertex 1.7357 21.841 0
      vertex 1.5 21.9 0
      vertex 1.69134 21.8619 0
    endloop
  endfacet
  facet normal 0 0 -1
    outer loop
      vertex 1.69134 21.8619 0
      vertex 1.5 21.9 0
      vertex 1.64514 21.8785 0
    endloop
  endfacet
  facet normal 0 0 -1
    outer loop
      vertex 1.64514 21.8785 0
      vertex 1.5 21.9 0
      vertex 1.59754 21.8904 0
    endloop
  endfacet
  facet normal 0 0 -1
    outer loop
      vertex 1.59754 21.8904 0
      vertex 1.5 21.9 0
      vertex 1.54901 21.8976 0
    endloop
  endfacet
  facet normal -0 0 -1
    outer loop
      vertex 1.5 21.9 0
      vertex 0 21.4 0
      vertex 0.5 21.9 0
    endloop
  endfacet
  facet normal 0 0 -1
    outer loop
      vertex 0.5 21.9 0
      vertex 0 21.4 0
      vertex 0.450992 21.8976 0
    endloop
  endfacet
  facet normal 0 0 -1
    outer loop
      vertex 0.450992 21.8976 0
      vertex 0 21.4 0
      vertex 0.402455 21.8904 0
    endloop
  endfacet
  facet normal 0 0 -1
    outer loop
      vertex 0.402455 21.8904 0
      vertex 0 21.4 0
      vertex 0.354858 21.8785 0
    endloop
  endfacet
  facet normal 0 0 -1
    outer loop
      vertex 0.354858 21.8785 0
      vertex 0 21.4 0
      vertex 0.308659 21.8619 0
    endloop
  endfacet
  facet normal 0 0 -1
    outer loop
      vertex 0.308659 21.8619 0
      vertex 0 21.4 0
      vertex 0.264302 21.841 0
    endloop
  endfacet
  facet normal 0 0 -1
    outer loop
      vertex 0.264302 21.841 0
      vertex 0 21.4 0
      vertex 0.222216 21.8157 0
    endloop
  endfacet
  facet normal 0 0 -1
    outer loop
      vertex 0.222216 21.8157 0
      vertex 0 21.4 0
      vertex 0.182804 21.7865 0
    endloop
  endfacet
  facet normal 0 0 -1
    outer loop
      vertex 0.182804 21.7865 0
      vertex 0 21.4 0
      vertex 0.146447 21.7536 0
    endloop
  endfacet
  facet normal 0 0 -1
    outer loop
      vertex 0.146447 21.7536 0
      vertex 0 21.4 0
      vertex 0.113495 21.7172 0
    endloop
  endfacet
  facet normal 0 0 -1
    outer loop
      vertex 0.113495 21.7172 0
      vertex 0 21.4 0
      vertex 0.0842657 21.6778 0
    endloop
  endfacet
  facet normal 0 0 -1
    outer loop
      vertex 0.0842657 21.6778 0
      vertex 0 21.4 0
      vertex 0.0590401 21.6357 0
    endloop
  endfacet
  facet normal 0 0 -1
    outer loop
      vertex 0.0590401 21.6357 0
      vertex 0 21.4 0
      vertex 0.0380611 21.5913 0
    endloop
  endfacet
  facet normal 0 0 -1
    outer loop
      vertex 0.0380611 21.5913 0
      vertex 0 21.4 0
      vertex 0.0215302 21.5451 0
    endloop
  endfacet
  facet normal 0 0 -1
    outer loop
      vertex 0.0215302 21.5451 0
      vertex 0 21.4 0
      vertex 0.00960827 21.4975 0
    endloop
  endfacet
  facet normal 0 0 -1
    outer loop
      vertex 0 21.4 0
      vertex 2 1.7 0
      vertex 0 1.7 0
    endloop
  endfacet
  facet normal 0 0 -1
    outer loop
      vertex 2.425 0 0
      vertex 0 1.7 0
      vertex 2 1.7 0
    endloop
  endfacet
  facet normal 0 0 -1
    outer loop
      vertex -0.424999 0 0
      vertex 0 1.7 0
      vertex 2.425 0 0
    endloop
  endfacet
  facet normal 0 0 -1
    outer loop
      vertex -0.849998 0.424999 0
      vertex 0 1.7 0
      vertex -0.424999 0 0
    endloop
  endfacet
  facet normal 0 0 -1
    outer loop
      vertex -0.849998 0.424999 0
      vertex -0.424999 0 0
      vertex -0.466656 0.00204659 0
    endloop
  endfacet
  facet normal 0 0 -1
    outer loop
      vertex -0.849998 1.275 0
      vertex 0 1.7 0
      vertex -0.849998 0.424999 0
    endloop
  endfacet
  facet normal 0 0 -1
    outer loop
      vertex -0.849998 0.424999 0
      vertex -0.466656 0.00204659 0
      vertex -0.507912 0.00816631 0
    endloop
  endfacet
  facet normal -0 0 -1
    outer loop
      vertex 0 1.7 0
      vertex -0.849998 1.275 0
      vertex -0.424999 1.7 0
    endloop
  endfacet
  facet normal 0 0 -1
    outer loop
      vertex -0.849998 0.424999 0
      vertex -0.507912 0.00816631 0
      vertex -0.548369 0.0183001 0
    endloop
  endfacet
  facet normal 0 0 -1
    outer loop
      vertex -0.424999 1.7 0
      vertex -0.849998 1.275 0
      vertex -0.466656 1.69795 0
    endloop
  endfacet
  facet normal 0 0 -1
    outer loop
      vertex -0.849998 0.424999 0
      vertex -0.548369 0.0183001 0
      vertex -0.587639 0.0323505 0
    endloop
  endfacet
  facet normal 0 0 -1
    outer loop
      vertex -0.466656 1.69795 0
      vertex -0.849998 1.275 0
      vertex -0.507912 1.69183 0
    endloop
  endfacet
  facet normal 0 0 -1
    outer loop
      vertex -0.849998 0.424999 0
      vertex -0.587639 0.0323505 0
      vertex -0.625342 0.0501833 0
    endloop
  endfacet
  facet normal 0 0 -1
    outer loop
      vertex -0.507912 1.69183 0
      vertex -0.849998 1.275 0
      vertex -0.548369 1.6817 0
    endloop
  endfacet
  facet normal 0 0 -1
    outer loop
      vertex -0.849998 0.424999 0
      vertex -0.625342 0.0501833 0
      vertex -0.661116 0.0716248 0
    endloop
  endfacet
  facet normal 0 0 -1
    outer loop
      vertex -0.548369 1.6817 0
      vertex -0.849998 1.275 0
      vertex -0.587639 1.66765 0
    endloop
  endfacet
  facet normal 0 0 -1
    outer loop
      vertex -0.849998 0.424999 0
      vertex -0.661116 0.0716248 0
      vertex -0.694616 0.0964699 0
    endloop
  endfacet
  facet normal 0 0 -1
    outer loop
      vertex -0.587639 1.66765 0
      vertex -0.849998 1.275 0
      vertex -0.625342 1.64981 0
    endloop
  endfacet
  facet normal 0 0 -1
    outer loop
      vertex -0.849998 0.424999 0
      vertex -0.694616 0.0964699 0
      vertex -0.725519 0.124479 0
    endloop
  endfacet
  facet normal 0 0 -1
    outer loop
      vertex -0.625342 1.64981 0
      vertex -0.849998 1.275 0
      vertex -0.661116 1.62837 0
    endloop
  endfacet
  facet normal 0 0 -1
    outer loop
      vertex -0.849998 0.424999 0
      vertex -0.725519 0.124479 0
      vertex -0.753529 0.155382 0
    endloop
  endfacet
  facet normal 0 0 -1
    outer loop
      vertex -0.661116 1.62837 0
      vertex -0.849998 1.275 0
      vertex -0.694616 1.60353 0
    endloop
  endfacet
  facet normal 0 0 -1
    outer loop
      vertex -0.849998 0.424999 0
      vertex -0.753529 0.155382 0
      vertex -0.778374 0.188883 0
    endloop
  endfacet
  facet normal 0 0 -1
    outer loop
      vertex -0.694616 1.60353 0
      vertex -0.849998 1.275 0
      vertex -0.725519 1.57552 0
    endloop
  endfacet
  facet normal 0 0 -1
    outer loop
      vertex -0.849998 0.424999 0
      vertex -0.778374 0.188883 0
      vertex -0.799815 0.224656 0
    endloop
  endfacet
  facet normal 0 0 -1
    outer loop
      vertex -0.725519 1.57552 0
      vertex -0.849998 1.275 0
      vertex -0.753529 1.54462 0
    endloop
  endfacet
  facet normal 0 0 -1
    outer loop
      vertex -0.849998 0.424999 0
      vertex -0.799815 0.224656 0
      vertex -0.817648 0.26236 0
    endloop
  endfacet
  facet normal 0 0 -1
    outer loop
      vertex -0.753529 1.54462 0
      vertex -0.849998 1.275 0
      vertex -0.778374 1.51112 0
    endloop
  endfacet
  facet normal 0 0 -1
    outer loop
      vertex -0.849998 0.424999 0
      vertex -0.817648 0.26236 0
      vertex -0.831698 0.301629 0
    endloop
  endfacet
  facet normal 0 0 -1
    outer loop
      vertex -0.778374 1.51112 0
      vertex -0.849998 1.275 0
      vertex -0.799815 1.47534 0
    endloop
  endfacet
  facet normal 0 0 -1
    outer loop
      vertex -0.849998 0.424999 0
      vertex -0.831698 0.301629 0
      vertex -0.841832 0.342087 0
    endloop
  endfacet
  facet normal 0 0 -1
    outer loop
      vertex -0.799815 1.47534 0
      vertex -0.849998 1.275 0
      vertex -0.817648 1.43764 0
    endloop
  endfacet
  facet normal 0 0 -1
    outer loop
      vertex -0.849998 0.424999 0
      vertex -0.841832 0.342087 0
      vertex -0.847952 0.383343 0
    endloop
  endfacet
  facet normal 0 0 -1
    outer loop
      vertex -0.817648 1.43764 0
      vertex -0.849998 1.275 0
      vertex -0.831698 1.39837 0
    endloop
  endfacet
  facet normal 0 0 -1
    outer loop
      vertex -0.831698 1.39837 0
      vertex -0.849998 1.275 0
      vertex -0.841832 1.35791 0
    endloop
  endfacet
  facet normal 0 0 -1
    outer loop
      vertex -0.841832 1.35791 0
      vertex -0.849998 1.275 0
      vertex -0.847952 1.31666 0
    endloop
  endfacet
  facet normal 0 0 -1
    outer loop
      vertex 0.00960827 21.4975 0
      vertex 0 21.4 0
      vertex 0.00240803 21.449 0
    endloop
  endfacet
  facet normal -0.670976 0.741479 0
    outer loop
      vertex 0.182804 21.7865 0
      vertex 0.146447 21.7536 2.2
      vertex 0.182804 21.7865 2.2
    endloop
  endfacet
  facet normal -0.670976 0.741479 0
    outer loop
      vertex 0.146447 21.7536 2.2
      vertex 0.182804 21.7865 0
      vertex 0.146447 21.7536 0
    endloop
  endfacet
  facet normal -0.595306 0.803499 0
    outer loop
      vertex 0.222216 21.8157 0
      vertex 0.182804 21.7865 2.2
      vertex 0.222216 21.8157 2.2
    endloop
  endfacet
  facet normal -0.595306 0.803499 0
    outer loop
      vertex 0.182804 21.7865 2.2
      vertex 0.222216 21.8157 0
      vertex 0.182804 21.7865 0
    endloop
  endfacet
  facet normal -0.803127 0.595808 0
    outer loop
      vertex 0.0842657 21.6778 0
      vertex 0.113495 21.7172 2.2
      vertex 0.113495 21.7172 0
    endloop
  endfacet
  facet normal -0.803127 0.595808 0
    outer loop
      vertex 0.113495 21.7172 2.2
      vertex 0.0842657 21.6778 0
      vertex 0.0842657 21.6778 2.2
    endloop
  endfacet
  facet normal -0.904152 0.427212 0
    outer loop
      vertex 0.0380611 21.5913 0
      vertex 0.0590401 21.6357 2.2
      vertex 0.0590401 21.6357 0
    endloop
  endfacet
  facet normal -0.904152 0.427212 0
    outer loop
      vertex 0.0590401 21.6357 2.2
      vertex 0.0380611 21.5913 0
      vertex 0.0380611 21.5913 2.2
    endloop
  endfacet
  facet normal 0.338142 0.941095 -0
    outer loop
      vertex 1.69134 21.8619 0
      vertex 1.64514 21.8785 2.2
      vertex 1.69134 21.8619 2.2
    endloop
  endfacet
  facet normal 0.338142 0.941095 0
    outer loop
      vertex 1.64514 21.8785 2.2
      vertex 1.69134 21.8619 0
      vertex 1.64514 21.8785 0
    endloop
  endfacet
  facet normal 0.146755 0.989173 -0
    outer loop
      vertex 1.59754 21.8904 0
      vertex 1.54901 21.8976 2.2
      vertex 1.59754 21.8904 2.2
    endloop
  endfacet
  facet normal 0.146755 0.989173 0
    outer loop
      vertex 1.54901 21.8976 2.2
      vertex 1.59754 21.8904 0
      vertex 1.54901 21.8976 0
    endloop
  endfacet
  facet normal 0.970047 0.242919 0
    outer loop
      vertex 1.99039 21.4975 2.2
      vertex 1.97847 21.5451 0
      vertex 1.97847 21.5451 2.2
    endloop
  endfacet
  facet normal 0.970047 0.242919 0
    outer loop
      vertex 1.97847 21.5451 0
      vertex 1.99039 21.4975 2.2
      vertex 1.99039 21.4975 0
    endloop
  endfacet
  facet normal 0.941548 0.336879 0
    outer loop
      vertex 1.97847 21.5451 2.2
      vertex 1.96194 21.5913 0
      vertex 1.96194 21.5913 2.2
    endloop
  endfacet
  facet normal 0.941548 0.336879 0
    outer loop
      vertex 1.96194 21.5913 0
      vertex 1.97847 21.5451 2.2
      vertex 1.97847 21.5451 0
    endloop
  endfacet
  facet normal -0.426233 0.904613 0
    outer loop
      vertex 0.308659 21.8619 0
      vertex 0.264302 21.841 2.2
      vertex 0.308659 21.8619 2.2
    endloop
  endfacet
  facet normal -0.426233 0.904613 0
    outer loop
      vertex 0.264302 21.841 2.2
      vertex 0.308659 21.8619 0
      vertex 0.264302 21.841 0
    endloop
  endfacet
  facet normal -0.146735 0.989176 0
    outer loop
      vertex 0.450992 21.8976 0
      vertex 0.402455 21.8904 2.2
      vertex 0.450992 21.8976 2.2
    endloop
  endfacet
  facet normal -0.146735 0.989176 0
    outer loop
      vertex 0.402455 21.8904 2.2
      vertex 0.450992 21.8976 0
      vertex 0.402455 21.8904 0
    endloop
  endfacet
  facet normal -0.857802 0.51398 0
    outer loop
      vertex 0.0590401 21.6357 0
      vertex 0.0842657 21.6778 2.2
      vertex 0.0842657 21.6778 0
    endloop
  endfacet
  facet normal -0.857802 0.51398 0
    outer loop
      vertex 0.0842657 21.6778 2.2
      vertex 0.0590401 21.6357 0
      vertex 0.0590401 21.6357 2.2
    endloop
  endfacet
  facet normal -0.941542 0.336895 0
    outer loop
      vertex 0.0215302 21.5451 0
      vertex 0.0380611 21.5913 2.2
      vertex 0.0380611 21.5913 0
    endloop
  endfacet
  facet normal -0.941542 0.336895 0
    outer loop
      vertex 0.0380611 21.5913 2.2
      vertex 0.0215302 21.5451 0
      vertex 0.0215302 21.5451 2.2
    endloop
  endfacet
  facet normal 0.595228 0.803557 -0
    outer loop
      vertex 1.8172 21.7865 0
      vertex 1.77778 21.8157 2.2
      vertex 1.8172 21.7865 2.2
    endloop
  endfacet
  facet normal 0.595228 0.803557 0
    outer loop
      vertex 1.77778 21.8157 2.2
      vertex 1.8172 21.7865 0
      vertex 1.77778 21.8157 0
    endloop
  endfacet
  facet normal 0.671047 0.741415 -0
    outer loop
      vertex 1.85355 21.7536 0
      vertex 1.8172 21.7865 2.2
      vertex 1.85355 21.7536 2.2
    endloop
  endfacet
  facet normal 0.671047 0.741415 0
    outer loop
      vertex 1.8172 21.7865 2.2
      vertex 1.85355 21.7536 0
      vertex 1.8172 21.7865 0
    endloop
  endfacet
  facet normal 0.741266 0.671212 0
    outer loop
      vertex 1.88651 21.7172 2.2
      vertex 1.85355 21.7536 0
      vertex 1.85355 21.7536 2.2
    endloop
  endfacet
  facet normal 0.741266 0.671212 0
    outer loop
      vertex 1.85355 21.7536 0
      vertex 1.88651 21.7172 2.2
      vertex 1.88651 21.7172 0
    endloop
  endfacet
  facet normal 0.998793 0.0491243 0
    outer loop
      vertex 2 21.4 2.2
      vertex 1.99759 21.449 0
      vertex 1.99759 21.449 2.2
    endloop
  endfacet
  facet normal 0.998793 0.0491243 0
    outer loop
      vertex 1.99759 21.449 0
      vertex 2 21.4 2.2
      vertex 2 21.4 0
    endloop
  endfacet
  facet normal 0.857762 0.514046 0
    outer loop
      vertex 1.94096 21.6357 2.2
      vertex 1.91573 21.6778 0
      vertex 1.91573 21.6778 2.2
    endloop
  endfacet
  facet normal 0.857762 0.514046 0
    outer loop
      vertex 1.91573 21.6778 0
      vertex 1.94096 21.6357 2.2
      vertex 1.94096 21.6357 0
    endloop
  endfacet
  facet normal 0.904144 0.427228 0
    outer loop
      vertex 1.96194 21.5913 2.2
      vertex 1.94096 21.6357 0
      vertex 1.94096 21.6357 2.2
    endloop
  endfacet
  facet normal 0.904144 0.427228 0
    outer loop
      vertex 1.94096 21.6357 0
      vertex 1.96194 21.5913 2.2
      vertex 1.96194 21.5913 0
    endloop
  endfacet
  facet normal -0.338149 0.941093 0
    outer loop
      vertex 0.354858 21.8785 0
      vertex 0.308659 21.8619 2.2
      vertex 0.354858 21.8785 2.2
    endloop
  endfacet
  facet normal -0.338149 0.941093 0
    outer loop
      vertex 0.308659 21.8619 2.2
      vertex 0.354858 21.8785 0
      vertex 0.308659 21.8619 0
    endloop
  endfacet
  facet normal -0.24255 0.970139 0
    outer loop
      vertex 0.402455 21.8904 0
      vertex 0.354858 21.8785 2.2
      vertex 0.402455 21.8904 2.2
    endloop
  endfacet
  facet normal -0.24255 0.970139 0
    outer loop
      vertex 0.354858 21.8785 2.2
      vertex 0.402455 21.8904 0
      vertex 0.354858 21.8785 0
    endloop
  endfacet
  facet normal -0.989159 0.146849 0
    outer loop
      vertex 0.00240803 21.449 0
      vertex 0.00960827 21.4975 2.2
      vertex 0.00960827 21.4975 0
    endloop
  endfacet
  facet normal -0.989159 0.146849 0
    outer loop
      vertex 0.00960827 21.4975 2.2
      vertex 0.00240803 21.449 0
      vertex 0.00240803 21.449 2.2
    endloop
  endfacet
  facet normal -0.970037 0.242956 0
    outer loop
      vertex 0.00960827 21.4975 0
      vertex 0.0215302 21.5451 2.2
      vertex 0.0215302 21.5451 0
    endloop
  endfacet
  facet normal -0.970037 0.242956 0
    outer loop
      vertex 0.0215302 21.5451 2.2
      vertex 0.00960827 21.4975 0
      vertex 0.00960827 21.4975 2.2
    endloop
  endfacet
  facet normal 0.98916 0.146844 0
    outer loop
      vertex 1.99759 21.449 2.2
      vertex 1.99039 21.4975 0
      vertex 1.99039 21.4975 2.2
    endloop
  endfacet
  facet normal 0.98916 0.146844 0
    outer loop
      vertex 1.99039 21.4975 0
      vertex 1.99759 21.449 2.2
      vertex 1.99759 21.449 0
    endloop
  endfacet
  facet normal 0.857683 0.514178 0
    outer loop
      vertex 2.79982 1.47534 2.2
      vertex 2.77837 1.51112 0
      vertex 2.77837 1.51112 2.2
    endloop
  endfacet
  facet normal 0.857683 0.514178 0
    outer loop
      vertex 2.77837 1.51112 0
      vertex 2.79982 1.47534 2.2
      vertex 2.79982 1.47534 0
    endloop
  endfacet
  facet normal -0.903969 0.427599 0
    outer loop
      vertex -0.817648 1.43764 0
      vertex -0.799815 1.47534 2.2
      vertex -0.799815 1.47534 0
    endloop
  endfacet
  facet normal -0.903969 0.427599 0
    outer loop
      vertex -0.799815 1.47534 2.2
      vertex -0.817648 1.43764 0
      vertex -0.817648 1.43764 2.2
    endloop
  endfacet
  facet normal 0 1 -0
    outer loop
      vertex 2.425 1.7 0
      vertex 2 1.7 2.2
      vertex 2.425 1.7 2.2
    endloop
  endfacet
  facet normal 0 1 0
    outer loop
      vertex 2 1.7 2.2
      vertex 2.425 1.7 0
      vertex 2 1.7 0
    endloop
  endfacet
  facet normal 0 1 -0
    outer loop
      vertex 0 1.7 0
      vertex -0.424999 1.7 2.2
      vertex 0 1.7 2.2
    endloop
  endfacet
  facet normal 0 1 0
    outer loop
      vertex -0.424999 1.7 2.2
      vertex 0 1.7 0
      vertex -0.424999 1.7 0
    endloop
  endfacet
  facet normal -0.146736 0.989176 0
    outer loop
      vertex -0.466656 1.69795 0
      vertex -0.507912 1.69183 2.2
      vertex -0.466656 1.69795 2.2
    endloop
  endfacet
  facet normal -0.146736 0.989176 0
    outer loop
      vertex -0.507912 1.69183 2.2
      vertex -0.466656 1.69795 0
      vertex -0.507912 1.69183 0
    endloop
  endfacet
  facet normal 0.242874 0.970058 -0
    outer loop
      vertex 2.54837 1.6817 0
      vertex 2.50791 1.69183 2.2
      vertex 2.54837 1.6817 2.2
    endloop
  endfacet
  facet normal 0.242874 0.970058 0
    outer loop
      vertex 2.50791 1.69183 2.2
      vertex 2.54837 1.6817 0
      vertex 2.50791 1.69183 0
    endloop
  endfacet
  facet normal 0.803268 0.595617 0
    outer loop
      vertex 2.77837 1.51112 2.2
      vertex 2.75353 1.54462 0
      vertex 2.75353 1.54462 2.2
    endloop
  endfacet
  facet normal 0.803268 0.595617 0
    outer loop
      vertex 2.75353 1.54462 0
      vertex 2.77837 1.51112 2.2
      vertex 2.77837 1.51112 0
    endloop
  endfacet
  facet normal 0.903996 0.42754 0
    outer loop
      vertex 2.81765 1.43764 2.2
      vertex 2.79982 1.47534 0
      vertex 2.79982 1.47534 2.2
    endloop
  endfacet
  facet normal 0.903996 0.42754 0
    outer loop
      vertex 2.79982 1.47534 0
      vertex 2.81765 1.43764 2.2
      vertex 2.81765 1.43764 0
    endloop
  endfacet
  facet normal -0.740905 0.67161 0
    outer loop
      vertex -0.753529 1.54462 0
      vertex -0.725519 1.57552 2.2
      vertex -0.725519 1.57552 0
    endloop
  endfacet
  facet normal -0.740905 0.67161 0
    outer loop
      vertex -0.725519 1.57552 2.2
      vertex -0.753529 1.54462 0
      vertex -0.753529 1.54462 2.2
    endloop
  endfacet
  facet normal -1 0 0
    outer loop
      vertex -0.849998 0.424999 0
      vertex -0.849998 1.275 2.2
      vertex -0.849998 1.275 0
    endloop
  endfacet
  facet normal -1 -0 0
    outer loop
      vertex -0.849998 1.275 2.2
      vertex -0.849998 0.424999 0
      vertex -0.849998 0.424999 2.2
    endloop
  endfacet
  facet normal -0.0490704 -0.998795 0
    outer loop
      vertex -0.466656 0.00204659 0
      vertex -0.424999 0 2.2
      vertex -0.466656 0.00204659 2.2
    endloop
  endfacet
  facet normal -0.0490704 -0.998795 -0
    outer loop
      vertex -0.424999 0 2.2
      vertex -0.466656 0.00204659 0
      vertex -0.424999 0 0
    endloop
  endfacet
  facet normal -0.427708 0.903917 0
    outer loop
      vertex -0.587639 1.66765 0
      vertex -0.625342 1.64981 2.2
      vertex -0.587639 1.66765 2.2
    endloop
  endfacet
  facet normal -0.427708 0.903917 0
    outer loop
      vertex -0.625342 1.64981 2.2
      vertex -0.587639 1.66765 0
      vertex -0.625342 1.64981 0
    endloop
  endfacet
  facet normal -0.336868 0.941552 0
    outer loop
      vertex -0.548369 1.6817 0
      vertex -0.587639 1.66765 2.2
      vertex -0.548369 1.6817 2.2
    endloop
  endfacet
  facet normal -0.336868 0.941552 0
    outer loop
      vertex -0.587639 1.66765 2.2
      vertex -0.548369 1.6817 0
      vertex -0.587639 1.66765 0
    endloop
  endfacet
  facet normal -0.242891 0.970054 0
    outer loop
      vertex -0.507912 1.69183 0
      vertex -0.548369 1.6817 2.2
      vertex -0.507912 1.69183 2.2
    endloop
  endfacet
  facet normal -0.242891 0.970054 0
    outer loop
      vertex -0.548369 1.6817 2.2
      vertex -0.507912 1.69183 0
      vertex -0.548369 1.6817 0
    endloop
  endfacet
  facet normal -0.0491519 0.998791 0
    outer loop
      vertex -0.424999 1.7 0
      vertex -0.466656 1.69795 2.2
      vertex -0.424999 1.7 2.2
    endloop
  endfacet
  facet normal -0.0491519 0.998791 0
    outer loop
      vertex -0.466656 1.69795 2.2
      vertex -0.424999 1.7 0
      vertex -0.466656 1.69795 0
    endloop
  endfacet
  facet normal 0.0491484 0.998791 -0
    outer loop
      vertex 2.46666 1.69795 0
      vertex 2.425 1.7 2.2
      vertex 2.46666 1.69795 2.2
    endloop
  endfacet
  facet normal 0.0491484 0.998791 0
    outer loop
      vertex 2.425 1.7 2.2
      vertex 2.46666 1.69795 0
      vertex 2.425 1.7 0
    endloop
  endfacet
  facet normal 0.595617 0.803268 -0
    outer loop
      vertex 2.69462 1.60353 0
      vertex 2.66112 1.62837 2.2
      vertex 2.69462 1.60353 2.2
    endloop
  endfacet
  facet normal 0.595617 0.803268 0
    outer loop
      vertex 2.66112 1.62837 2.2
      vertex 2.69462 1.60353 0
      vertex 2.66112 1.62837 0
    endloop
  endfacet
  facet normal 0.67161 0.740905 -0
    outer loop
      vertex 2.72552 1.57552 0
      vertex 2.69462 1.60353 2.2
      vertex 2.72552 1.57552 2.2
    endloop
  endfacet
  facet normal 0.67161 0.740905 0
    outer loop
      vertex 2.69462 1.60353 2.2
      vertex 2.72552 1.57552 0
      vertex 2.69462 1.60353 0
    endloop
  endfacet
  facet normal 0.941552 0.336868 0
    outer loop
      vertex 2.8317 1.39837 2.2
      vertex 2.81765 1.43764 0
      vertex 2.81765 1.43764 2.2
    endloop
  endfacet
  facet normal 0.941552 0.336868 0
    outer loop
      vertex 2.81765 1.43764 0
      vertex 2.8317 1.39837 2.2
      vertex 2.8317 1.39837 0
    endloop
  endfacet
  facet normal 0.970058 0.242874 0
    outer loop
      vertex 2.84183 1.35791 2.2
      vertex 2.8317 1.39837 0
      vertex 2.8317 1.39837 2.2
    endloop
  endfacet
  facet normal 0.970058 0.242874 0
    outer loop
      vertex 2.8317 1.39837 0
      vertex 2.84183 1.35791 2.2
      vertex 2.84183 1.35791 0
    endloop
  endfacet
  facet normal 0.989176 -0.146736 0
    outer loop
      vertex 2.84183 0.342087 2.2
      vertex 2.84795 0.383343 0
      vertex 2.84795 0.383343 2.2
    endloop
  endfacet
  facet normal 0.989176 -0.146736 0
    outer loop
      vertex 2.84795 0.383343 0
      vertex 2.84183 0.342087 2.2
      vertex 2.84183 0.342087 0
    endloop
  endfacet
  facet normal -0.595617 0.803268 0
    outer loop
      vertex -0.661116 1.62837 0
      vertex -0.694616 1.60353 2.2
      vertex -0.661116 1.62837 2.2
    endloop
  endfacet
  facet normal -0.595617 0.803268 0
    outer loop
      vertex -0.694616 1.60353 2.2
      vertex -0.661116 1.62837 0
      vertex -0.694616 1.60353 0
    endloop
  endfacet
  facet normal -0.671574 0.740937 0
    outer loop
      vertex -0.694616 1.60353 0
      vertex -0.725519 1.57552 2.2
      vertex -0.694616 1.60353 2.2
    endloop
  endfacet
  facet normal -0.671574 0.740937 0
    outer loop
      vertex -0.725519 1.57552 2.2
      vertex -0.694616 1.60353 0
      vertex -0.725519 1.57552 0
    endloop
  endfacet
  facet normal -0.970035 0.242964 0
    outer loop
      vertex -0.841832 1.35791 0
      vertex -0.831698 1.39837 2.2
      vertex -0.831698 1.39837 0
    endloop
  endfacet
  facet normal -0.970035 0.242964 0
    outer loop
      vertex -0.831698 1.39837 2.2
      vertex -0.841832 1.35791 0
      vertex -0.841832 1.35791 2.2
    endloop
  endfacet
  facet normal -0.941552 0.336868 0
    outer loop
      vertex -0.831698 1.39837 0
      vertex -0.817648 1.43764 2.2
      vertex -0.817648 1.43764 0
    endloop
  endfacet
  facet normal -0.941552 0.336868 0
    outer loop
      vertex -0.817648 1.43764 2.2
      vertex -0.831698 1.39837 0
      vertex -0.831698 1.39837 2.2
    endloop
  endfacet
  facet normal -0.803211 0.595695 0
    outer loop
      vertex -0.778374 1.51112 0
      vertex -0.753529 1.54462 2.2
      vertex -0.753529 1.54462 0
    endloop
  endfacet
  facet normal -0.803211 0.595695 0
    outer loop
      vertex -0.753529 1.54462 2.2
      vertex -0.778374 1.51112 0
      vertex -0.778374 1.51112 2.2
    endloop
  endfacet
  facet normal -0.998796 0.0490527 0
    outer loop
      vertex -0.849998 1.275 0
      vertex -0.847952 1.31666 2.2
      vertex -0.847952 1.31666 0
    endloop
  endfacet
  facet normal -0.998796 0.0490527 0
    outer loop
      vertex -0.847952 1.31666 2.2
      vertex -0.849998 1.275 0
      vertex -0.849998 1.275 2.2
    endloop
  endfacet
  facet normal -0.998796 -0.0490574 0
    outer loop
      vertex -0.847952 0.383343 0
      vertex -0.849998 0.424999 2.2
      vertex -0.849998 0.424999 0
    endloop
  endfacet
  facet normal -0.998796 -0.0490574 0
    outer loop
      vertex -0.849998 0.424999 2.2
      vertex -0.847952 0.383343 0
      vertex -0.847952 0.383343 2.2
    endloop
  endfacet
  facet normal 0.146751 -0.989174 0
    outer loop
      vertex 2.46666 0.00204659 0
      vertex 2.50791 0.00816631 2.2
      vertex 2.46666 0.00204659 2.2
    endloop
  endfacet
  facet normal 0.146751 -0.989174 0
    outer loop
      vertex 2.50791 0.00816631 2.2
      vertex 2.46666 0.00204659 0
      vertex 2.50791 0.00816631 0
    endloop
  endfacet
  facet normal 0.0490668 -0.998795 0
    outer loop
      vertex 2.425 0 0
      vertex 2.46666 0.00204659 2.2
      vertex 2.425 0 2.2
    endloop
  endfacet
  facet normal 0.0490668 -0.998795 0
    outer loop
      vertex 2.46666 0.00204659 2.2
      vertex 2.425 0 0
      vertex 2.46666 0.00204659 0
    endloop
  endfacet
  facet normal 0.336876 -0.941549 0
    outer loop
      vertex 2.54837 0.0183001 0
      vertex 2.58764 0.0323505 2.2
      vertex 2.54837 0.0183001 2.2
    endloop
  endfacet
  facet normal 0.336876 -0.941549 0
    outer loop
      vertex 2.58764 0.0323505 2.2
      vertex 2.54837 0.0183001 0
      vertex 2.58764 0.0323505 0
    endloop
  endfacet
  facet normal -0.514066 0.857751 0
    outer loop
      vertex -0.625342 1.64981 0
      vertex -0.661116 1.62837 2.2
      vertex -0.625342 1.64981 2.2
    endloop
  endfacet
  facet normal -0.514066 0.857751 0
    outer loop
      vertex -0.661116 1.62837 2.2
      vertex -0.625342 1.64981 0
      vertex -0.661116 1.62837 0
    endloop
  endfacet
  facet normal 0.146757 0.989173 -0
    outer loop
      vertex 2.50791 1.69183 0
      vertex 2.46666 1.69795 2.2
      vertex 2.50791 1.69183 2.2
    endloop
  endfacet
  facet normal 0.146757 0.989173 0
    outer loop
      vertex 2.46666 1.69795 2.2
      vertex 2.50791 1.69183 0
      vertex 2.46666 1.69795 0
    endloop
  endfacet
  facet normal 0.427736 0.903904 -0
    outer loop
      vertex 2.62534 1.64981 0
      vertex 2.58764 1.66765 2.2
      vertex 2.62534 1.64981 2.2
    endloop
  endfacet
  facet normal 0.427736 0.903904 0
    outer loop
      vertex 2.58764 1.66765 2.2
      vertex 2.62534 1.64981 0
      vertex 2.58764 1.66765 0
    endloop
  endfacet
  facet normal 0.336868 0.941552 -0
    outer loop
      vertex 2.58764 1.66765 0
      vertex 2.54837 1.6817 2.2
      vertex 2.58764 1.66765 2.2
    endloop
  endfacet
  facet normal 0.336868 0.941552 0
    outer loop
      vertex 2.54837 1.6817 2.2
      vertex 2.58764 1.66765 0
      vertex 2.54837 1.6817 0
    endloop
  endfacet
  facet normal 0.514002 0.857789 -0
    outer loop
      vertex 2.66112 1.62837 0
      vertex 2.62534 1.64981 2.2
      vertex 2.66112 1.62837 2.2
    endloop
  endfacet
  facet normal 0.514002 0.857789 0
    outer loop
      vertex 2.62534 1.64981 2.2
      vertex 2.66112 1.62837 0
      vertex 2.62534 1.64981 0
    endloop
  endfacet
  facet normal 0.998791 0.0491484 0
    outer loop
      vertex 2.85 1.275 2.2
      vertex 2.84795 1.31666 0
      vertex 2.84795 1.31666 2.2
    endloop
  endfacet
  facet normal 0.998791 0.0491484 0
    outer loop
      vertex 2.84795 1.31666 0
      vertex 2.85 1.275 2.2
      vertex 2.85 1.275 0
    endloop
  endfacet
  facet normal 1 -0 0
    outer loop
      vertex 2.85 0.424999 2.2
      vertex 2.85 1.275 0
      vertex 2.85 1.275 2.2
    endloop
  endfacet
  facet normal 1 0 0
    outer loop
      vertex 2.85 1.275 0
      vertex 2.85 0.424999 2.2
      vertex 2.85 0.424999 0
    endloop
  endfacet
  facet normal 0.427595 -0.90397 0
    outer loop
      vertex 2.58764 0.0323505 0
      vertex 2.62534 0.0501833 2.2
      vertex 2.58764 0.0323505 2.2
    endloop
  endfacet
  facet normal 0.427595 -0.90397 0
    outer loop
      vertex 2.62534 0.0501833 2.2
      vertex 2.58764 0.0323505 0
      vertex 2.62534 0.0501833 0
    endloop
  endfacet
  facet normal 0.970055 -0.242885 0
    outer loop
      vertex 2.8317 0.301629 2.2
      vertex 2.84183 0.342087 0
      vertex 2.84183 0.342087 2.2
    endloop
  endfacet
  facet normal 0.970055 -0.242885 0
    outer loop
      vertex 2.84183 0.342087 0
      vertex 2.8317 0.301629 2.2
      vertex 2.8317 0.301629 0
    endloop
  endfacet
  facet normal 0.941549 -0.336876 0
    outer loop
      vertex 2.81765 0.26236 2.2
      vertex 2.8317 0.301629 0
      vertex 2.8317 0.301629 2.2
    endloop
  endfacet
  facet normal 0.941549 -0.336876 0
    outer loop
      vertex 2.8317 0.301629 0
      vertex 2.81765 0.26236 2.2
      vertex 2.81765 0.26236 0
    endloop
  endfacet
  facet normal 0.803277 -0.595606 0
    outer loop
      vertex 2.75353 0.155382 2.2
      vertex 2.77837 0.188883 0
      vertex 2.77837 0.188883 2.2
    endloop
  endfacet
  facet normal 0.803277 -0.595606 0
    outer loop
      vertex 2.77837 0.188883 0
      vertex 2.75353 0.155382 2.2
      vertex 2.75353 0.155382 0
    endloop
  endfacet
  facet normal -0.989176 -0.146736 0
    outer loop
      vertex -0.841832 0.342087 0
      vertex -0.847952 0.383343 2.2
      vertex -0.847952 0.383343 0
    endloop
  endfacet
  facet normal -0.989176 -0.146736 0
    outer loop
      vertex -0.847952 0.383343 2.2
      vertex -0.841832 0.342087 0
      vertex -0.841832 0.342087 2.2
    endloop
  endfacet
  facet normal -0.903986 -0.427562 0
    outer loop
      vertex -0.799815 0.224656 0
      vertex -0.817648 0.26236 2.2
      vertex -0.817648 0.26236 0
    endloop
  endfacet
  facet normal -0.903986 -0.427562 0
    outer loop
      vertex -0.817648 0.26236 2.2
      vertex -0.799815 0.224656 0
      vertex -0.799815 0.224656 2.2
    endloop
  endfacet
  facet normal -0.941549 -0.336876 0
    outer loop
      vertex -0.817648 0.26236 0
      vertex -0.831698 0.301629 2.2
      vertex -0.831698 0.301629 0
    endloop
  endfacet
  facet normal -0.941549 -0.336876 0
    outer loop
      vertex -0.831698 0.301629 2.2
      vertex -0.817648 0.26236 0
      vertex -0.817648 0.26236 2.2
    endloop
  endfacet
  facet normal -0.740937 -0.671574 0
    outer loop
      vertex -0.725519 0.124479 0
      vertex -0.753529 0.155382 2.2
      vertex -0.753529 0.155382 0
    endloop
  endfacet
  facet normal -0.740937 -0.671574 0
    outer loop
      vertex -0.753529 0.155382 2.2
      vertex -0.725519 0.124479 0
      vertex -0.725519 0.124479 2.2
    endloop
  endfacet
  facet normal -0.803219 -0.595683 0
    outer loop
      vertex -0.753529 0.155382 0
      vertex -0.778374 0.188883 2.2
      vertex -0.778374 0.188883 0
    endloop
  endfacet
  facet normal -0.803219 -0.595683 0
    outer loop
      vertex -0.778374 0.188883 2.2
      vertex -0.753529 0.155382 0
      vertex -0.753529 0.155382 2.2
    endloop
  endfacet
  facet normal -0.857734 -0.514094 0
    outer loop
      vertex -0.778374 0.188883 0
      vertex -0.799815 0.224656 2.2
      vertex -0.799815 0.224656 0
    endloop
  endfacet
  facet normal -0.857734 -0.514094 0
    outer loop
      vertex -0.799815 0.224656 2.2
      vertex -0.778374 0.188883 0
      vertex -0.778374 0.188883 2.2
    endloop
  endfacet
  facet normal -0.989173 0.146757 0
    outer loop
      vertex -0.847952 1.31666 0
      vertex -0.841832 1.35791 2.2
      vertex -0.841832 1.35791 0
    endloop
  endfacet
  facet normal -0.989173 0.146757 0
    outer loop
      vertex -0.841832 1.35791 2.2
      vertex -0.847952 1.31666 0
      vertex -0.847952 1.31666 2.2
    endloop
  endfacet
  facet normal 0.740905 0.67161 0
    outer loop
      vertex 2.75353 1.54462 2.2
      vertex 2.72552 1.57552 0
      vertex 2.72552 1.57552 2.2
    endloop
  endfacet
  facet normal 0.740905 0.67161 0
    outer loop
      vertex 2.72552 1.57552 0
      vertex 2.75353 1.54462 2.2
      vertex 2.75353 1.54462 0
    endloop
  endfacet
  facet normal 0.989173 0.146757 0
    outer loop
      vertex 2.84795 1.31666 2.2
      vertex 2.84183 1.35791 0
      vertex 2.84183 1.35791 2.2
    endloop
  endfacet
  facet normal 0.989173 0.146757 0
    outer loop
      vertex 2.84183 1.35791 0
      vertex 2.84795 1.31666 2.2
      vertex 2.84795 1.31666 0
    endloop
  endfacet
  facet normal 0.998791 -0.0491531 0
    outer loop
      vertex 2.84795 0.383343 2.2
      vertex 2.85 0.424999 0
      vertex 2.85 0.424999 2.2
    endloop
  endfacet
  facet normal 0.998791 -0.0491531 0
    outer loop
      vertex 2.85 0.424999 0
      vertex 2.84795 0.383343 2.2
      vertex 2.84795 0.383343 0
    endloop
  endfacet
  facet normal 0.595696 -0.80321 0
    outer loop
      vertex 2.66112 0.0716248 0
      vertex 2.69462 0.0964699 2.2
      vertex 2.66112 0.0716248 2.2
    endloop
  endfacet
  facet normal 0.595696 -0.80321 0
    outer loop
      vertex 2.69462 0.0964699 2.2
      vertex 2.66112 0.0716248 0
      vertex 2.69462 0.0964699 0
    endloop
  endfacet
  facet normal 0.671598 -0.740916 0
    outer loop
      vertex 2.69462 0.0964699 0
      vertex 2.72552 0.124479 2.2
      vertex 2.69462 0.0964699 2.2
    endloop
  endfacet
  facet normal 0.671598 -0.740916 0
    outer loop
      vertex 2.72552 0.124479 2.2
      vertex 2.69462 0.0964699 0
      vertex 2.72552 0.124479 0
    endloop
  endfacet
  facet normal 0.740937 -0.671574 0
    outer loop
      vertex 2.72552 0.124479 2.2
      vertex 2.75353 0.155382 0
      vertex 2.75353 0.155382 2.2
    endloop
  endfacet
  facet normal 0.740937 -0.671574 0
    outer loop
      vertex 2.75353 0.155382 0
      vertex 2.72552 0.124479 2.2
      vertex 2.72552 0.124479 0
    endloop
  endfacet
  facet normal 0.857639 -0.514252 0
    outer loop
      vertex 2.77837 0.188883 2.2
      vertex 2.79982 0.224656 0
      vertex 2.79982 0.224656 2.2
    endloop
  endfacet
  facet normal 0.857639 -0.514252 0
    outer loop
      vertex 2.79982 0.224656 0
      vertex 2.77837 0.188883 2.2
      vertex 2.77837 0.188883 0
    endloop
  endfacet
  facet normal -0.242977 -0.970032 0
    outer loop
      vertex -0.548369 0.0183001 0
      vertex -0.507912 0.00816631 2.2
      vertex -0.548369 0.0183001 2.2
    endloop
  endfacet
  facet normal -0.242977 -0.970032 -0
    outer loop
      vertex -0.507912 0.00816631 2.2
      vertex -0.548369 0.0183001 0
      vertex -0.507912 0.00816631 0
    endloop
  endfacet
  facet normal -0.336876 -0.941549 0
    outer loop
      vertex -0.587639 0.0323505 0
      vertex -0.548369 0.0183001 2.2
      vertex -0.587639 0.0323505 2.2
    endloop
  endfacet
  facet normal -0.336876 -0.941549 -0
    outer loop
      vertex -0.548369 0.0183001 2.2
      vertex -0.587639 0.0323505 0
      vertex -0.548369 0.0183001 0
    endloop
  endfacet
  facet normal -0.514092 -0.857735 0
    outer loop
      vertex -0.661116 0.0716248 0
      vertex -0.625342 0.0501833 2.2
      vertex -0.661116 0.0716248 2.2
    endloop
  endfacet
  facet normal -0.514092 -0.857735 -0
    outer loop
      vertex -0.625342 0.0501833 2.2
      vertex -0.661116 0.0716248 0
      vertex -0.625342 0.0501833 0
    endloop
  endfacet
  facet normal -0.671562 -0.740948 0
    outer loop
      vertex -0.725519 0.124479 0
      vertex -0.694616 0.0964699 2.2
      vertex -0.725519 0.124479 2.2
    endloop
  endfacet
  facet normal -0.671562 -0.740948 -0
    outer loop
      vertex -0.694616 0.0964699 2.2
      vertex -0.725519 0.124479 0
      vertex -0.694616 0.0964699 0
    endloop
  endfacet
  facet normal -0.595696 -0.80321 0
    outer loop
      vertex -0.694616 0.0964699 0
      vertex -0.661116 0.0716248 2.2
      vertex -0.694616 0.0964699 2.2
    endloop
  endfacet
  facet normal -0.595696 -0.80321 -0
    outer loop
      vertex -0.661116 0.0716248 2.2
      vertex -0.694616 0.0964699 0
      vertex -0.661116 0.0716248 0
    endloop
  endfacet
  facet normal -0.857778 0.51402 0
    outer loop
      vertex -0.799815 1.47534 0
      vertex -0.778374 1.51112 2.2
      vertex -0.778374 1.51112 0
    endloop
  endfacet
  facet normal -0.857778 0.51402 0
    outer loop
      vertex -0.778374 1.51112 2.2
      vertex -0.799815 1.47534 0
      vertex -0.799815 1.47534 2.2
    endloop
  endfacet
  facet normal 0.24296 -0.970036 0
    outer loop
      vertex 2.50791 0.00816631 0
      vertex 2.54837 0.0183001 2.2
      vertex 2.50791 0.00816631 2.2
    endloop
  endfacet
  facet normal 0.24296 -0.970036 0
    outer loop
      vertex 2.54837 0.0183001 2.2
      vertex 2.50791 0.00816631 0
      vertex 2.54837 0.0183001 0
    endloop
  endfacet
  facet normal 0.514029 -0.857773 0
    outer loop
      vertex 2.62534 0.0501833 0
      vertex 2.66112 0.0716248 2.2
      vertex 2.62534 0.0501833 2.2
    endloop
  endfacet
  facet normal 0.514029 -0.857773 0
    outer loop
      vertex 2.66112 0.0716248 2.2
      vertex 2.62534 0.0501833 0
      vertex 2.66112 0.0716248 0
    endloop
  endfacet
  facet normal 0.904014 -0.427503 0
    outer loop
      vertex 2.79982 0.224656 2.2
      vertex 2.81765 0.26236 0
      vertex 2.81765 0.26236 2.2
    endloop
  endfacet
  facet normal 0.904014 -0.427503 0
    outer loop
      vertex 2.81765 0.26236 0
      vertex 2.79982 0.224656 2.2
      vertex 2.79982 0.224656 0
    endloop
  endfacet
  facet normal -0.970032 -0.242976 0
    outer loop
      vertex -0.831698 0.301629 0
      vertex -0.841832 0.342087 2.2
      vertex -0.841832 0.342087 0
    endloop
  endfacet
  facet normal -0.970032 -0.242976 0
    outer loop
      vertex -0.841832 0.342087 2.2
      vertex -0.831698 0.301629 0
      vertex -0.831698 0.301629 2.2
    endloop
  endfacet
  facet normal -0.14673 -0.989177 0
    outer loop
      vertex -0.507912 0.00816631 0
      vertex -0.466656 0.00204659 2.2
      vertex -0.507912 0.00816631 2.2
    endloop
  endfacet
  facet normal -0.14673 -0.989177 -0
    outer loop
      vertex -0.466656 0.00204659 2.2
      vertex -0.507912 0.00816631 0
      vertex -0.466656 0.00204659 0
    endloop
  endfacet
  facet normal -0.427567 -0.903984 0
    outer loop
      vertex -0.625342 0.0501833 0
      vertex -0.587639 0.0323505 2.2
      vertex -0.625342 0.0501833 2.2
    endloop
  endfacet
  facet normal -0.427567 -0.903984 -0
    outer loop
      vertex -0.587639 0.0323505 2.2
      vertex -0.625342 0.0501833 0
      vertex -0.587639 0.0323505 0
    endloop
  endfacet
endsolid OpenSCAD_Model
